G04*
G04 #@! TF.GenerationSoftware,Altium Limited,Altium Designer,19.1.8 (144)*
G04*
G04 Layer_Color=8388736*
%FSLAX44Y44*%
%MOMM*%
G71*
G01*
G75*
%ADD16R,0.4302X0.5032*%
%ADD18R,0.5532X0.3302*%
%ADD21R,0.3302X0.5532*%
%ADD22R,0.5032X0.4302*%
%ADD23R,0.5588X0.5080*%
%ADD24R,0.5080X0.5588*%
%ADD25R,1.4620X0.5680*%
%ADD26R,1.7032X3.2032*%
%ADD27R,0.8032X1.0032*%
%ADD28R,0.6532X0.5532*%
%ADD29R,1.0032X0.8032*%
%ADD30C,1.4732*%
D16*
X852791Y927993D02*
D03*
Y920675D02*
D03*
X836281Y920826D02*
D03*
Y928144D02*
D03*
X804531Y941963D02*
D03*
Y934645D02*
D03*
X885811Y949583D02*
D03*
Y942265D02*
D03*
X799451Y898383D02*
D03*
Y891065D02*
D03*
X772098Y941963D02*
D03*
Y934645D02*
D03*
X788315Y941963D02*
D03*
Y934645D02*
D03*
X819771Y920675D02*
D03*
Y927993D02*
D03*
X816211Y898383D02*
D03*
Y891065D02*
D03*
X939151Y898783D02*
D03*
Y891465D02*
D03*
X922641D02*
D03*
Y898783D02*
D03*
D18*
X962110Y888774D02*
D03*
X954292D02*
D03*
D21*
X756271Y942213D02*
D03*
Y934395D02*
D03*
X832471Y890815D02*
D03*
Y898633D02*
D03*
X906131Y949833D02*
D03*
Y942015D02*
D03*
X865491Y949833D02*
D03*
Y942015D02*
D03*
D22*
X842631Y949734D02*
D03*
X835313D02*
D03*
X893582Y925604D02*
D03*
X900900D02*
D03*
Y909094D02*
D03*
X893582D02*
D03*
Y892584D02*
D03*
X900900D02*
D03*
D23*
X920101Y950059D02*
D03*
Y940661D02*
D03*
X983601Y944273D02*
D03*
Y934875D02*
D03*
D24*
X963606Y902744D02*
D03*
X954208D02*
D03*
D25*
X940675Y926264D02*
D03*
Y945264D02*
D03*
X963027D02*
D03*
Y935764D02*
D03*
Y926264D02*
D03*
D26*
X741031Y900204D02*
D03*
Y939574D02*
D03*
D27*
X876921Y890244D02*
D03*
Y915244D02*
D03*
D28*
X858181Y899974D02*
D03*
Y889974D02*
D03*
X849181D02*
D03*
Y899974D02*
D03*
D29*
X785281Y912904D02*
D03*
X760281D02*
D03*
Y891314D02*
D03*
X785281D02*
D03*
D30*
X984871D02*
D03*
X985520Y911860D02*
D03*
X1004570Y928370D02*
D03*
X1003921Y948464D02*
D03*
M02*
