G04*
G04 #@! TF.GenerationSoftware,Altium Limited,Altium Designer,19.1.8 (144)*
G04*
G04 Layer_Color=65535*
%FSLAX44Y44*%
%MOMM*%
G71*
G01*
G75*
%ADD10C,0.1000*%
%ADD11C,0.2540*%
%ADD12C,0.1524*%
%ADD13C,0.0762*%
%ADD14C,0.1500*%
D10*
X884525Y884964D02*
G03*
X884525Y884964I-500J0D01*
G01*
X755501Y905800D02*
G03*
X755501Y905800I-500J0D01*
G01*
X791061Y898418D02*
G03*
X791061Y898418I-500J0D01*
G01*
X999408Y915859D02*
X1000408Y916858D01*
Y918858D01*
X999408Y919857D01*
X995410D01*
X994410Y918858D01*
Y916858D01*
X995410Y915859D01*
X997409D01*
Y917858D01*
X994410Y913859D02*
X1000408D01*
X994410Y909861D01*
X1000408D01*
Y907861D02*
X994410D01*
Y904862D01*
X995410Y903863D01*
X999408D01*
X1000408Y904862D01*
Y907861D01*
X1018458Y932369D02*
X1019458Y933368D01*
Y935368D01*
X1018458Y936367D01*
X1014460D01*
X1013460Y935368D01*
Y933368D01*
X1014460Y932369D01*
X1016459D01*
Y934368D01*
X1013460Y930369D02*
X1019458D01*
X1013460Y926371D01*
X1019458D01*
Y924371D02*
X1013460D01*
Y921372D01*
X1014460Y920373D01*
X1018458D01*
X1019458Y921372D01*
Y924371D01*
Y953463D02*
X1015459D01*
X1013460Y951463D01*
X1015459Y949464D01*
X1019458D01*
Y947465D02*
X1013460D01*
Y944466D01*
X1014460Y943466D01*
X1015459D01*
X1016459D01*
X1017459Y944466D01*
Y947465D01*
X1000408Y896313D02*
X996409D01*
X994410Y894313D01*
X996409Y892314D01*
X1000408D01*
X994410Y889315D02*
Y887316D01*
X995410Y886316D01*
X997409D01*
X998409Y887316D01*
Y889315D01*
X997409Y890315D01*
X995410D01*
X994410Y889315D01*
X755001Y923982D02*
Y917984D01*
X758000D01*
X759000Y918984D01*
Y922983D01*
X758000Y923982D01*
X755001D01*
X760999Y917984D02*
X762998D01*
X761999D01*
Y923982D01*
X760999Y922983D01*
X753731Y902392D02*
Y896394D01*
X756730D01*
X757730Y897394D01*
Y901393D01*
X756730Y902392D01*
X753731D01*
X763728Y896394D02*
X759729D01*
X763728Y900393D01*
Y901393D01*
X762728Y902392D01*
X760729D01*
X759729Y901393D01*
X871841Y927792D02*
Y921794D01*
X874840D01*
X875840Y922794D01*
Y926793D01*
X874840Y927792D01*
X871841D01*
X877839Y926793D02*
X878839Y927792D01*
X880838D01*
X881838Y926793D01*
Y925793D01*
X880838Y924793D01*
X879838D01*
X880838D01*
X881838Y923794D01*
Y922794D01*
X880838Y921794D01*
X878839D01*
X877839Y922794D01*
X863140Y907554D02*
Y911553D01*
X862140Y912552D01*
X860141D01*
X859141Y911553D01*
Y907554D01*
X860141Y906554D01*
X862140D01*
X861140Y908554D02*
X863140Y906554D01*
X862140D02*
X863140Y907554D01*
X865139Y906554D02*
X867138D01*
X866139D01*
Y912552D01*
X865139Y911553D01*
X756460Y954733D02*
X755460Y955732D01*
X753461D01*
X752461Y954733D01*
Y950734D01*
X753461Y949734D01*
X755460D01*
X756460Y950734D01*
X758459Y949734D02*
X760458D01*
X759459D01*
Y955732D01*
X758459Y954733D01*
X831390Y911153D02*
X830390Y912152D01*
X828391D01*
X827391Y911153D01*
Y907154D01*
X828391Y906154D01*
X830390D01*
X831390Y907154D01*
X837388Y906154D02*
X833389D01*
X837388Y910153D01*
Y911153D01*
X836388Y912152D01*
X834389D01*
X833389Y911153D01*
X974629Y889856D02*
X975629Y890855D01*
Y892855D01*
X974629Y893854D01*
X970631D01*
X969631Y892855D01*
Y890855D01*
X970631Y889856D01*
X974629Y887856D02*
X975629Y886857D01*
Y884857D01*
X974629Y883858D01*
X973630D01*
X972630Y884857D01*
Y885857D01*
Y884857D01*
X971630Y883858D01*
X970631D01*
X969631Y884857D01*
Y886857D01*
X970631Y887856D01*
X894783Y951193D02*
X893783Y950193D01*
Y948194D01*
X894783Y947194D01*
X898781D01*
X899781Y948194D01*
Y950193D01*
X898781Y951193D01*
X899781Y956191D02*
X893783D01*
X896782Y953192D01*
Y957191D01*
X854143Y949923D02*
X853143Y948923D01*
Y946924D01*
X854143Y945924D01*
X858141D01*
X859141Y946924D01*
Y948923D01*
X858141Y949923D01*
X853143Y955921D02*
Y951922D01*
X856142D01*
X855142Y953922D01*
Y954921D01*
X856142Y955921D01*
X858141D01*
X859141Y954921D01*
Y952922D01*
X858141Y951922D01*
X819922Y947194D02*
Y953192D01*
X822921D01*
X823921Y952193D01*
Y950193D01*
X822921Y949194D01*
X819922D01*
X821921D02*
X823921Y947194D01*
X825920D02*
X827919D01*
X826920D01*
Y953192D01*
X825920Y952193D01*
X799451Y949734D02*
Y955732D01*
X802450D01*
X803450Y954733D01*
Y952733D01*
X802450Y951734D01*
X799451D01*
X801450D02*
X803450Y949734D01*
X809448D02*
X805449D01*
X809448Y953733D01*
Y954733D01*
X808448Y955732D01*
X806449D01*
X805449Y954733D01*
X878191Y945773D02*
X872193D01*
Y948772D01*
X873193Y949772D01*
X875192D01*
X876192Y948772D01*
Y945773D01*
Y947773D02*
X878191Y949772D01*
X873193Y951771D02*
X872193Y952771D01*
Y954770D01*
X873193Y955770D01*
X874192D01*
X875192Y954770D01*
Y953771D01*
Y954770D01*
X876192Y955770D01*
X877191D01*
X878191Y954770D01*
Y952771D01*
X877191Y951771D01*
X795641Y906154D02*
Y912152D01*
X798640D01*
X799640Y911153D01*
Y909153D01*
X798640Y908154D01*
X795641D01*
X797640D02*
X799640Y906154D01*
X804638D02*
Y912152D01*
X801639Y909153D01*
X805638D01*
X768288Y955732D02*
X772287D01*
Y954733D01*
X768288Y950734D01*
Y949734D01*
X772287D01*
X774286D02*
X776286D01*
X775286D01*
Y955732D01*
X774286Y954733D01*
X783235Y955732D02*
X787233D01*
Y954733D01*
X783235Y950734D01*
Y949734D01*
X787233D01*
X793231D02*
X789233D01*
X793231Y953733D01*
Y954733D01*
X792232Y955732D01*
X790232D01*
X789233Y954733D01*
X815961Y941762D02*
X819960D01*
Y940763D01*
X815961Y936764D01*
Y935764D01*
X819960D01*
X821959Y940763D02*
X822959Y941762D01*
X824958D01*
X825958Y940763D01*
Y939763D01*
X824958Y938763D01*
X823958D01*
X824958D01*
X825958Y937764D01*
Y936764D01*
X824958Y935764D01*
X822959D01*
X821959Y936764D01*
X832471Y941913D02*
X836470D01*
Y940914D01*
X832471Y936915D01*
Y935915D01*
X836470D01*
X841468D02*
Y941913D01*
X838469Y938914D01*
X842468D01*
X847711Y941762D02*
X851710D01*
Y940763D01*
X847711Y936764D01*
Y935764D01*
X851710D01*
X857708Y941762D02*
X853709D01*
Y938763D01*
X855708Y939763D01*
X856708D01*
X857708Y938763D01*
Y936764D01*
X856708Y935764D01*
X854709D01*
X853709Y936764D01*
X812401Y912152D02*
X816400D01*
Y911153D01*
X812401Y907154D01*
Y906154D01*
X816400D01*
X822398Y912152D02*
X820398Y911153D01*
X818399Y909153D01*
Y907154D01*
X819399Y906154D01*
X821398D01*
X822398Y907154D01*
Y908154D01*
X821398Y909153D01*
X818399D01*
X914669Y929414D02*
Y925416D01*
X913669D01*
X909671Y929414D01*
X908671D01*
Y925416D01*
X914669Y923416D02*
Y919418D01*
X913669D01*
X909671Y923416D01*
X908671D01*
X914669Y912904D02*
Y908906D01*
X913669D01*
X909671Y912904D01*
X908671D01*
Y908906D01*
X913669Y906906D02*
X914669Y905907D01*
Y903907D01*
X913669Y902908D01*
X912670D01*
X911670Y903907D01*
X910670Y902908D01*
X909671D01*
X908671Y903907D01*
Y905907D01*
X909671Y906906D01*
X910670D01*
X911670Y905907D01*
X912670Y906906D01*
X913669D01*
X911670Y905907D02*
Y903907D01*
X914669Y897664D02*
Y893666D01*
X913669D01*
X909671Y897664D01*
X908671D01*
Y893666D01*
X909671Y891666D02*
X908671Y890667D01*
Y888667D01*
X909671Y887668D01*
X913669D01*
X914669Y888667D01*
Y890667D01*
X913669Y891666D01*
X912670D01*
X911670Y890667D01*
Y887668D01*
X932801Y912552D02*
X936800D01*
Y911553D01*
X932801Y907554D01*
Y906554D01*
X936800D01*
X938799D02*
X940798D01*
X939799D01*
Y912552D01*
X938799Y911553D01*
X943797D02*
X944797Y912552D01*
X946796D01*
X947796Y911553D01*
Y907554D01*
X946796Y906554D01*
X944797D01*
X943797Y907554D01*
Y911553D01*
X916291Y912552D02*
X920290D01*
Y911553D01*
X916291Y907554D01*
Y906554D01*
X920290D01*
X922289D02*
X924288D01*
X923289D01*
Y912552D01*
X922289Y911553D01*
X927287Y906554D02*
X929287D01*
X928287D01*
Y912552D01*
X927287Y911553D01*
X920290Y932579D02*
X919290Y933578D01*
X917291D01*
X916291Y932579D01*
Y928580D01*
X917291Y927580D01*
X919290D01*
X920290Y928580D01*
X926288Y933578D02*
X924288Y932579D01*
X922289Y930579D01*
Y928580D01*
X923289Y927580D01*
X925288D01*
X926288Y928580D01*
Y929580D01*
X925288Y930579D01*
X922289D01*
X983169Y956228D02*
X982169Y957228D01*
X980170D01*
X979170Y956228D01*
Y952230D01*
X980170Y951230D01*
X982169D01*
X983169Y952230D01*
X985168Y957228D02*
X989167D01*
Y956228D01*
X985168Y952230D01*
Y951230D01*
X975278Y902781D02*
X976278Y903781D01*
Y905780D01*
X975278Y906780D01*
X971280D01*
X970280Y905780D01*
Y903781D01*
X971280Y902781D01*
X975278Y900782D02*
X976278Y899782D01*
Y897783D01*
X975278Y896783D01*
X974279D01*
X973279Y897783D01*
X972279Y896783D01*
X971280D01*
X970280Y897783D01*
Y899782D01*
X971280Y900782D01*
X972279D01*
X973279Y899782D01*
X974279Y900782D01*
X975278D01*
X973279Y899782D02*
Y897783D01*
X930261Y921442D02*
Y916444D01*
X931261Y915444D01*
X933260D01*
X934260Y916444D01*
Y921442D01*
X936259Y915444D02*
X938258D01*
X937259D01*
Y921442D01*
X936259Y920443D01*
D11*
X849535Y906344D02*
G03*
X849535Y906344I-353J0D01*
G01*
X730871Y879884D02*
Y959894D01*
Y879884D02*
X1041400D01*
X730871Y959894D02*
X1041400D01*
Y879884D02*
Y959894D01*
D12*
X941818Y919254D02*
X961884D01*
X941818Y932432D02*
Y939097D01*
Y952274D02*
X961884D01*
D13*
X968742Y911274D02*
X960278Y919738D01*
X968742D02*
X960278Y911274D01*
X968742Y915506D02*
X960278D01*
X964510Y919738D02*
Y911274D01*
D14*
X1017981Y896305D02*
X1019647Y897972D01*
Y901304D01*
X1017981Y902970D01*
X1011316D01*
X1009650Y901304D01*
Y897972D01*
X1011316Y896305D01*
X1019647Y886309D02*
Y892973D01*
X1009650D01*
Y886309D01*
X1014648Y892973D02*
Y889641D01*
X1036157Y957580D02*
Y950916D01*
Y954248D01*
X1026160D01*
X1034491Y940919D02*
X1036157Y942585D01*
Y945917D01*
X1034491Y947583D01*
X1032824D01*
X1031158Y945917D01*
Y942585D01*
X1029492Y940919D01*
X1027826D01*
X1026160Y942585D01*
Y945917D01*
X1027826Y947583D01*
X1036157Y930922D02*
Y937586D01*
X1031158D01*
Y934254D01*
Y937586D01*
X1026160D01*
Y927590D02*
X1036157D01*
Y922591D01*
X1034491Y920925D01*
X1031158D01*
X1029492Y922591D01*
Y927590D01*
X1031158Y917593D02*
Y910928D01*
X1026160Y902598D02*
X1036157D01*
X1031158Y907596D01*
Y900932D01*
Y897599D02*
Y890935D01*
X1026160Y887602D02*
Y884270D01*
Y885936D01*
X1036157D01*
X1034491Y887602D01*
M02*
