G04*
G04 #@! TF.GenerationSoftware,Altium Limited,Altium Designer,19.1.8 (144)*
G04*
G04 Layer_Physical_Order=1*
G04 Layer_Color=255*
%FSLAX44Y44*%
%MOMM*%
G71*
G01*
G75*
%ADD11C,0.2540*%
%ADD15R,1.5000X3.0000*%
%ADD16R,0.4302X0.5032*%
%ADD17R,0.6000X0.8000*%
%ADD18R,0.5532X0.3302*%
%ADD19R,0.4500X0.3500*%
%ADD20R,0.8000X0.6000*%
%ADD21R,0.3302X0.5532*%
%ADD22R,0.5032X0.4302*%
%ADD23R,0.5588X0.5080*%
%ADD24R,0.5080X0.5588*%
%ADD25R,1.4620X0.5680*%
%ADD31C,1.2700*%
G36*
X1041400Y958850D02*
X1041400Y881380D01*
X1040130Y880110D01*
X731520Y880110D01*
X730250Y881380D01*
Y881701D01*
X730991Y882664D01*
X731520Y882664D01*
X739761D01*
Y900204D01*
Y917744D01*
X731520D01*
X730250Y918707D01*
X730250Y921071D01*
X730991Y922034D01*
X731520Y922034D01*
X746886D01*
X747261Y921960D01*
X752542D01*
X754884Y919618D01*
X754398Y918444D01*
X753741D01*
Y907364D01*
X756396D01*
Y896854D01*
X753741D01*
Y885774D01*
X766821D01*
Y896854D01*
X764166D01*
Y907364D01*
X766821D01*
Y918444D01*
X764166D01*
Y919714D01*
X763870Y921201D01*
X763028Y922461D01*
X757670Y927819D01*
X758196Y929089D01*
X760462D01*
Y938204D01*
X767407D01*
Y929589D01*
X776789D01*
Y930761D01*
X783624D01*
Y929589D01*
X793006D01*
Y930761D01*
X799840D01*
Y929589D01*
X803728D01*
X807920Y925397D01*
X809180Y924555D01*
X810667Y924260D01*
X815080D01*
Y915619D01*
X824462D01*
X824462Y915619D01*
Y915619D01*
X825572Y915184D01*
X831437Y909319D01*
X832698Y908477D01*
X834184Y908181D01*
X835480D01*
X844391Y899271D01*
Y895684D01*
X862971D01*
Y904264D01*
X850385D01*
X840149Y914500D01*
X840577Y915733D01*
X840608Y915770D01*
X840972D01*
Y916866D01*
X848100D01*
Y915619D01*
X857482D01*
Y916791D01*
X870881D01*
X871381Y916291D01*
Y908704D01*
X882461D01*
Y921784D01*
X876875D01*
X875237Y923422D01*
X873977Y924264D01*
X872490Y924560D01*
X857482D01*
Y926723D01*
X852791D01*
X848100D01*
Y924635D01*
X840972D01*
Y926874D01*
X836281D01*
X831590D01*
Y924635D01*
X824462D01*
Y927556D01*
X828868Y931962D01*
X829710Y933222D01*
X830006Y934708D01*
Y938933D01*
X836116Y945043D01*
X847687D01*
Y945899D01*
X861300D01*
Y943285D01*
X865491D01*
X869682D01*
Y945824D01*
X881120D01*
Y937209D01*
X881926D01*
Y933010D01*
X882222Y931524D01*
X883064Y930264D01*
X888526Y924802D01*
Y920913D01*
X889697D01*
Y913785D01*
X888526D01*
Y904403D01*
X889697D01*
Y897275D01*
X888526D01*
Y893387D01*
X887798Y892659D01*
X882461D01*
Y896784D01*
X871381D01*
Y893379D01*
X862971D01*
Y894264D01*
X849076D01*
X848701Y894339D01*
X848326Y894264D01*
X844391D01*
Y892885D01*
X836662D01*
Y897363D01*
X832471D01*
X828280D01*
Y894825D01*
X820902D01*
Y897113D01*
X816211D01*
X811520D01*
Y894950D01*
X804142D01*
Y897113D01*
X799451D01*
X794760D01*
Y893327D01*
Y886009D01*
X804142D01*
Y887181D01*
X811520D01*
Y886009D01*
X820902D01*
Y887056D01*
X828280D01*
Y885509D01*
X832653D01*
X832800Y885411D01*
X834286Y885115D01*
X847247D01*
X848733Y885411D01*
X849142Y885684D01*
X858286D01*
X858661Y885610D01*
X871381D01*
Y883704D01*
X882461D01*
Y884890D01*
X889407D01*
X890894Y885185D01*
X892154Y886028D01*
X894020Y887893D01*
X905956D01*
Y888140D01*
X917950D01*
Y886409D01*
X927332D01*
Y887581D01*
X934460D01*
Y886409D01*
X938713D01*
X939095Y886028D01*
X940355Y885185D01*
X941842Y884890D01*
X948986D01*
Y884583D01*
X967416D01*
Y884890D01*
X978640D01*
X980388Y883549D01*
X982550Y882653D01*
X984871Y882348D01*
X987192Y882653D01*
X989354Y883549D01*
X991211Y884974D01*
X992636Y886831D01*
X993532Y888994D01*
X993838Y891314D01*
X993532Y893635D01*
X992636Y895798D01*
X991211Y897655D01*
X989354Y899080D01*
X987192Y899976D01*
X984871Y900281D01*
X982550Y899976D01*
X980388Y899080D01*
X978531Y897655D01*
X977106Y895798D01*
X976210Y893635D01*
X976081Y892659D01*
X967416D01*
Y892965D01*
X948986D01*
Y892659D01*
X943842D01*
Y897513D01*
X939151D01*
Y898783D01*
D01*
Y897513D01*
X934460D01*
Y895350D01*
X927332D01*
Y897513D01*
X922641D01*
X917950D01*
Y895910D01*
X905956D01*
Y897275D01*
X897467D01*
Y904403D01*
X899630D01*
Y909094D01*
Y913785D01*
X897467D01*
Y920913D01*
X899630D01*
Y925604D01*
Y930295D01*
X894020D01*
X889696Y934619D01*
Y937209D01*
X890502D01*
Y945949D01*
X901940D01*
Y943285D01*
X906131D01*
X910322D01*
Y946062D01*
X914767D01*
Y941931D01*
X920101D01*
Y940661D01*
X921371D01*
Y935581D01*
X925435D01*
Y937868D01*
X926705Y938254D01*
X926808Y938099D01*
X930750Y934157D01*
Y927834D01*
X930825Y927459D01*
Y920884D01*
X950525D01*
Y931644D01*
X938520D01*
Y935766D01*
X938224Y937253D01*
X937382Y938513D01*
X937184Y938711D01*
X937670Y939884D01*
X950525D01*
Y950644D01*
X931035D01*
X929198Y952481D01*
X927938Y953323D01*
X926451Y953619D01*
X925435D01*
Y955139D01*
X914767D01*
Y953831D01*
X910322D01*
Y955139D01*
X901940D01*
Y953718D01*
X890502D01*
Y954639D01*
X881120D01*
Y953593D01*
X869682D01*
Y955139D01*
X861300D01*
Y953669D01*
X847687D01*
Y954425D01*
X830257D01*
Y950172D01*
X823374Y943289D01*
X822532Y942029D01*
X822236Y940542D01*
Y936317D01*
X818968Y933049D01*
X815080D01*
Y932029D01*
X812276D01*
X809222Y935083D01*
Y940693D01*
X804531D01*
X799840D01*
Y938530D01*
X793006D01*
Y940693D01*
X788315D01*
X783624D01*
Y938530D01*
X776789D01*
Y947019D01*
X767407D01*
Y945973D01*
X760462D01*
Y947519D01*
X752080D01*
X751071Y948149D01*
Y957114D01*
X731520D01*
X730313Y958029D01*
X730267Y959194D01*
X731171Y960120D01*
X1040130D01*
X1041400Y958850D01*
D02*
G37*
%LPC*%
G36*
X1003921Y957431D02*
X1001600Y957125D01*
X999438Y956230D01*
X997581Y954805D01*
X996156Y952948D01*
X995260Y950785D01*
X994954Y948464D01*
X994686Y948158D01*
X988935D01*
Y949353D01*
X984015D01*
X982157Y951211D01*
X980897Y952053D01*
X979410Y952349D01*
X969631D01*
X968144Y952053D01*
X966884Y951211D01*
X966317Y950644D01*
X953177D01*
Y939884D01*
Y937034D01*
X963027D01*
Y934494D01*
X953177D01*
Y930384D01*
Y920884D01*
X958451D01*
Y908078D01*
X955478D01*
Y902744D01*
Y897410D01*
X968686D01*
Y908078D01*
X966221D01*
Y920884D01*
X972877D01*
Y924583D01*
X977317Y929023D01*
X978267Y929795D01*
X982331D01*
Y934875D01*
X983601D01*
Y936145D01*
X988935D01*
Y940389D01*
X996981D01*
X998467Y940684D01*
X998996Y941038D01*
X999438Y940699D01*
X1001600Y939803D01*
X1003921Y939498D01*
X1006242Y939803D01*
X1008404Y940699D01*
X1010261Y942124D01*
X1011686Y943981D01*
X1012582Y946144D01*
X1012888Y948464D01*
X1012582Y950785D01*
X1011686Y952948D01*
X1010261Y954805D01*
X1008404Y956230D01*
X1006242Y957125D01*
X1003921Y957431D01*
D02*
G37*
G36*
X809222Y947019D02*
X805801D01*
Y943233D01*
X809222D01*
Y947019D01*
D02*
G37*
G36*
X793006D02*
X789585D01*
Y943233D01*
X793006D01*
Y947019D01*
D02*
G37*
G36*
X803261D02*
X799840D01*
Y943233D01*
X803261D01*
Y947019D01*
D02*
G37*
G36*
X787045D02*
X783624D01*
Y943233D01*
X787045D01*
Y947019D01*
D02*
G37*
G36*
X910322Y940745D02*
X907401D01*
Y936709D01*
X910322D01*
Y940745D01*
D02*
G37*
G36*
X904861D02*
X901940D01*
Y936709D01*
X904861D01*
Y940745D01*
D02*
G37*
G36*
X869682D02*
X866761D01*
Y936709D01*
X869682D01*
Y940745D01*
D02*
G37*
G36*
X864221D02*
X861300D01*
Y936709D01*
X864221D01*
Y940745D01*
D02*
G37*
G36*
X918831Y939391D02*
X914767D01*
Y935581D01*
X918831D01*
Y939391D01*
D02*
G37*
G36*
X988935Y933605D02*
X984871D01*
Y929795D01*
X988935D01*
Y933605D01*
D02*
G37*
G36*
X1005840Y937169D02*
Y929640D01*
X1013370D01*
X1013231Y930691D01*
X1012335Y932853D01*
X1010910Y934710D01*
X1009053Y936135D01*
X1006891Y937031D01*
X1005840Y937169D01*
D02*
G37*
G36*
X1003300D02*
X1002249Y937031D01*
X1000087Y936135D01*
X998230Y934710D01*
X996805Y932853D01*
X995909Y930691D01*
X995770Y929640D01*
X1003300D01*
Y937169D01*
D02*
G37*
G36*
X840972Y933200D02*
X837551D01*
Y929414D01*
X840972D01*
Y933200D01*
D02*
G37*
G36*
X835011D02*
X831590D01*
Y929414D01*
X835011D01*
Y933200D01*
D02*
G37*
G36*
X857482Y933049D02*
X854061D01*
Y929263D01*
X857482D01*
Y933049D01*
D02*
G37*
G36*
X851521D02*
X848100D01*
Y929263D01*
X851521D01*
Y933049D01*
D02*
G37*
G36*
X905956Y930295D02*
X902170D01*
Y926874D01*
X905956D01*
Y930295D01*
D02*
G37*
G36*
Y924334D02*
X902170D01*
Y920913D01*
X905956D01*
Y924334D01*
D02*
G37*
G36*
X1013370Y927100D02*
X1005840D01*
Y919570D01*
X1006891Y919709D01*
X1009053Y920605D01*
X1010910Y922030D01*
X1012335Y923887D01*
X1013231Y926049D01*
X1013370Y927100D01*
D02*
G37*
G36*
X1003300D02*
X995770D01*
X995909Y926049D01*
X996805Y923887D01*
X998230Y922030D01*
X1000087Y920605D01*
X1002249Y919709D01*
X1003300Y919570D01*
Y927100D01*
D02*
G37*
G36*
X791821Y918444D02*
X786551D01*
Y914174D01*
X791821D01*
Y918444D01*
D02*
G37*
G36*
X784011D02*
X778741D01*
Y914174D01*
X784011D01*
Y918444D01*
D02*
G37*
G36*
X986790Y920659D02*
Y913130D01*
X994320D01*
X994181Y914181D01*
X993285Y916343D01*
X991860Y918200D01*
X990003Y919625D01*
X987841Y920521D01*
X986790Y920659D01*
D02*
G37*
G36*
X984250D02*
X983199Y920521D01*
X981037Y919625D01*
X979180Y918200D01*
X977755Y916343D01*
X976859Y914181D01*
X976721Y913130D01*
X984250D01*
Y920659D01*
D02*
G37*
G36*
X905956Y913785D02*
X902170D01*
Y910364D01*
X905956D01*
Y913785D01*
D02*
G37*
G36*
X791821Y911634D02*
X786551D01*
Y907364D01*
X791821D01*
Y911634D01*
D02*
G37*
G36*
X784011D02*
X778741D01*
Y907364D01*
X784011D01*
Y911634D01*
D02*
G37*
G36*
X905956Y907824D02*
X902170D01*
Y904403D01*
X905956D01*
Y907824D01*
D02*
G37*
G36*
X952938Y908078D02*
X949128D01*
Y904014D01*
X952938D01*
Y908078D01*
D02*
G37*
G36*
X994320Y910590D02*
X986790D01*
Y903061D01*
X987841Y903199D01*
X990003Y904095D01*
X991860Y905520D01*
X993285Y907377D01*
X994181Y909539D01*
X994320Y910590D01*
D02*
G37*
G36*
X984250D02*
X976721D01*
X976859Y909539D01*
X977755Y907377D01*
X979180Y905520D01*
X981037Y904095D01*
X983199Y903199D01*
X984250Y903061D01*
Y910590D01*
D02*
G37*
G36*
X751071Y917744D02*
X742301D01*
Y901474D01*
X751071D01*
Y917744D01*
D02*
G37*
G36*
X943842Y903839D02*
X940421D01*
Y900053D01*
X943842D01*
Y903839D01*
D02*
G37*
G36*
X927332D02*
X923911D01*
Y900053D01*
X927332D01*
Y903839D01*
D02*
G37*
G36*
X937881D02*
X934460D01*
Y900053D01*
X937881D01*
Y903839D01*
D02*
G37*
G36*
X921371D02*
X917950D01*
Y900053D01*
X921371D01*
Y903839D01*
D02*
G37*
G36*
X836662Y903939D02*
X833741D01*
Y899903D01*
X836662D01*
Y903939D01*
D02*
G37*
G36*
X831201D02*
X828280D01*
Y899903D01*
X831201D01*
Y903939D01*
D02*
G37*
G36*
X820902Y903439D02*
X817481D01*
Y899653D01*
X820902D01*
Y903439D01*
D02*
G37*
G36*
X814941D02*
X811520D01*
Y899653D01*
X814941D01*
Y903439D01*
D02*
G37*
G36*
X804142D02*
X800721D01*
Y899653D01*
X804142D01*
Y903439D01*
D02*
G37*
G36*
X798181D02*
X794760D01*
Y899653D01*
X798181D01*
Y903439D01*
D02*
G37*
G36*
X952938Y901474D02*
X949128D01*
Y897410D01*
X952938D01*
Y901474D01*
D02*
G37*
G36*
X791821Y896854D02*
X786551D01*
Y892584D01*
X791821D01*
Y896854D01*
D02*
G37*
G36*
X784011D02*
X778741D01*
Y892584D01*
X784011D01*
Y896854D01*
D02*
G37*
G36*
X791821Y890044D02*
X786551D01*
Y885774D01*
X791821D01*
Y890044D01*
D02*
G37*
G36*
X784011D02*
X778741D01*
Y885774D01*
X784011D01*
Y890044D01*
D02*
G37*
G36*
X751071Y898934D02*
X742301D01*
Y882664D01*
X751071D01*
Y898934D01*
D02*
G37*
%LPD*%
D11*
X1001172Y948464D02*
X1003921D01*
X996981Y944273D02*
X1001172Y948464D01*
X983601Y944273D02*
X996981D01*
X847247Y889000D02*
X848701Y890454D01*
X834286Y889000D02*
X847247D01*
X832471Y890815D02*
X834286Y889000D01*
X834184Y912066D02*
X837089D01*
X825575Y920675D02*
X834184Y912066D01*
X819771Y920675D02*
X825575D01*
X837089Y912066D02*
X849181Y899974D01*
X875491Y888774D02*
X889407D01*
X874771Y889494D02*
X875491Y888774D01*
X858661Y889494D02*
X874771D01*
X858181Y889974D02*
X858661Y889494D01*
X848701Y890454D02*
X849181Y889974D01*
X756271Y942213D02*
X756396Y942088D01*
X771973D01*
X772098Y941963D01*
Y934645D02*
X788315D01*
X804531D01*
Y934280D02*
Y934645D01*
Y934280D02*
X810667Y928144D01*
X819620D02*
X819771Y927993D01*
X810667Y928144D02*
X819620D01*
X834948Y949734D02*
X835313D01*
X834067Y948853D02*
X834948Y949734D01*
X834067Y948488D02*
Y948853D01*
X826121Y940542D02*
X834067Y948488D01*
X826121Y934708D02*
Y940542D01*
X819771Y927993D02*
Y928358D01*
X826121Y934708D01*
X799451Y891065D02*
X816211D01*
X816336Y890940D01*
X832346D01*
X832471Y890815D01*
X842631Y949734D02*
X842681Y949784D01*
X865442D01*
X865491Y949833D01*
X865616Y949708D01*
X885686D01*
X885811Y949583D01*
X886061Y949833D02*
X906131D01*
X885811Y949583D02*
X886061Y949833D01*
X906131D02*
X906244Y949946D01*
X919988D01*
X920101Y950059D01*
X920426Y949734D01*
X926451D01*
X936205Y926264D02*
X940675D01*
X934635Y927834D02*
X936205Y926264D01*
X934635Y927834D02*
Y935766D01*
X929555Y940846D02*
X934635Y935766D01*
X929555Y940846D02*
Y946630D01*
X926451Y949734D02*
X929555Y946630D01*
X819771Y920675D02*
X819846Y920751D01*
X836206D01*
X836281Y920826D01*
X836357Y920751D01*
X852716D01*
X852791Y920675D01*
X872490D01*
X876921Y916244D01*
Y915244D02*
Y916244D01*
X893217Y892584D02*
X893582D01*
X889407Y888774D02*
X893217Y892584D01*
X900900D02*
X901460Y892025D01*
X922082D01*
X922641Y891465D01*
X939151D01*
X941842Y888774D02*
X954292D01*
X939151Y891100D02*
Y891465D01*
Y891100D02*
X940032Y890219D01*
X940397D01*
X941842Y888774D01*
X962110D02*
X979582D01*
X982122Y891314D01*
X984871D01*
X893582Y892584D02*
Y909094D01*
Y925604D01*
X893217D02*
X893582D01*
X885811Y933010D02*
X893217Y925604D01*
X885811Y933010D02*
Y942265D01*
X760281Y912904D02*
Y919714D01*
X741031Y932074D02*
Y939574D01*
Y932074D02*
X747261Y925844D01*
X754151D01*
X760281Y919714D01*
X741031Y939574D02*
X746210Y934395D01*
X756271D01*
X760281Y891314D02*
Y912904D01*
X962336Y925573D02*
X963027Y926264D01*
X962336Y904014D02*
Y925573D01*
X963027Y926264D02*
X969065D01*
X962336Y904014D02*
X963606Y902744D01*
X963027Y945264D02*
X963522Y944769D01*
X969065Y926264D02*
X974711Y931910D01*
Y939619D01*
X969561Y944769D02*
X974711Y939619D01*
X963522Y944769D02*
X965936D01*
X969631Y948464D01*
X979410D01*
X983601Y944273D01*
D15*
X741031Y900204D02*
D03*
Y939574D02*
D03*
D16*
X852791Y927993D02*
D03*
Y920675D02*
D03*
X836281Y920826D02*
D03*
Y928144D02*
D03*
X804531Y941963D02*
D03*
Y934645D02*
D03*
X885811Y949583D02*
D03*
Y942265D02*
D03*
X799451Y898383D02*
D03*
Y891065D02*
D03*
X772098Y941963D02*
D03*
Y934645D02*
D03*
X788315Y941963D02*
D03*
Y934645D02*
D03*
X819771Y920675D02*
D03*
Y927993D02*
D03*
X816211Y898383D02*
D03*
Y891065D02*
D03*
X939151Y898783D02*
D03*
Y891465D02*
D03*
X922641D02*
D03*
Y898783D02*
D03*
D17*
X876921Y890244D02*
D03*
Y915244D02*
D03*
D18*
X962110Y888774D02*
D03*
X954292D02*
D03*
D19*
X858181Y899974D02*
D03*
Y889974D02*
D03*
X849181D02*
D03*
Y899974D02*
D03*
D20*
X785281Y912904D02*
D03*
X760281D02*
D03*
Y891314D02*
D03*
X785281D02*
D03*
D21*
X756271Y942213D02*
D03*
Y934395D02*
D03*
X832471Y890815D02*
D03*
Y898633D02*
D03*
X906131Y949833D02*
D03*
Y942015D02*
D03*
X865491Y949833D02*
D03*
Y942015D02*
D03*
D22*
X842631Y949734D02*
D03*
X835313D02*
D03*
X893582Y925604D02*
D03*
X900900D02*
D03*
Y909094D02*
D03*
X893582D02*
D03*
Y892584D02*
D03*
X900900D02*
D03*
D23*
X920101Y950059D02*
D03*
Y940661D02*
D03*
X983601Y944273D02*
D03*
Y934875D02*
D03*
D24*
X963606Y902744D02*
D03*
X954208D02*
D03*
D25*
X940675Y926264D02*
D03*
Y945264D02*
D03*
X963027D02*
D03*
Y935764D02*
D03*
Y926264D02*
D03*
D31*
X984871Y891314D02*
D03*
X985520Y911860D02*
D03*
X1004570Y928370D02*
D03*
X1003921Y948464D02*
D03*
M02*
