G04*
G04 #@! TF.GenerationSoftware,Altium Limited,Altium Designer,19.1.8 (144)*
G04*
G04 Layer_Color=65535*
%FSLAX44Y44*%
%MOMM*%
G71*
G01*
G75*
%ADD10C,0.2500*%
%ADD11C,0.1000*%
%ADD12C,0.2000*%
%ADD13C,0.1524*%
%ADD14C,0.2540*%
%ADD15C,0.0762*%
%ADD16C,0.1500*%
D10*
X905540Y873190D02*
G03*
X905540Y873190I-1250J0D01*
G01*
D11*
X871109Y887320D02*
G03*
X871109Y887320I-500J0D01*
G01*
X901827Y851560D02*
G03*
X901827Y851560I-500J0D01*
G01*
X957564Y866140D02*
G03*
X957564Y866140I-500J0D01*
G01*
X876632Y923868D02*
X875632Y924868D01*
X873633D01*
X872633Y923868D01*
Y919870D01*
X873633Y918870D01*
X875632D01*
X876632Y919870D01*
X878631Y918870D02*
X880630D01*
X879631D01*
Y924868D01*
X878631Y923868D01*
X960038Y858331D02*
X961038Y859331D01*
Y861330D01*
X960038Y862330D01*
X956040D01*
X955040Y861330D01*
Y859331D01*
X956040Y858331D01*
X955040Y852333D02*
Y856332D01*
X959039Y852333D01*
X960038D01*
X961038Y853333D01*
Y855332D01*
X960038Y856332D01*
X1012251Y858991D02*
X1013251Y859991D01*
Y861990D01*
X1012251Y862990D01*
X1008253D01*
X1007253Y861990D01*
Y859991D01*
X1008253Y858991D01*
X1012251Y856992D02*
X1013251Y855992D01*
Y853993D01*
X1012251Y852993D01*
X1011252D01*
X1010252Y853993D01*
Y854993D01*
Y853993D01*
X1009252Y852993D01*
X1008253D01*
X1007253Y853993D01*
Y855992D01*
X1008253Y856992D01*
X1012251Y872961D02*
X1013251Y873961D01*
Y875960D01*
X1012251Y876960D01*
X1008253D01*
X1007253Y875960D01*
Y873961D01*
X1008253Y872961D01*
X1007253Y867963D02*
X1013251D01*
X1010252Y870962D01*
Y866963D01*
X923515Y919059D02*
X922515Y918059D01*
Y916060D01*
X923515Y915060D01*
X927513D01*
X928513Y916060D01*
Y918059D01*
X927513Y919059D01*
X922515Y925057D02*
Y921058D01*
X925514D01*
X924514Y923057D01*
Y924057D01*
X925514Y925057D01*
X927513D01*
X928513Y924057D01*
Y922058D01*
X927513Y921058D01*
X873903Y894388D02*
Y888390D01*
X876902D01*
X877902Y889390D01*
Y893388D01*
X876902Y894388D01*
X873903D01*
X879901Y888390D02*
X881900D01*
X880901D01*
Y894388D01*
X879901Y893388D01*
X889143Y894188D02*
Y888190D01*
X892142D01*
X893142Y889190D01*
Y893188D01*
X892142Y894188D01*
X889143D01*
X899140Y888190D02*
X895141D01*
X899140Y892189D01*
Y893188D01*
X898140Y894188D01*
X896141D01*
X895141Y893188D01*
X964848Y883920D02*
X958850D01*
Y880921D01*
X959850Y879921D01*
X963848D01*
X964848Y880921D01*
Y883920D01*
X963848Y877922D02*
X964848Y876922D01*
Y874923D01*
X963848Y873923D01*
X962849D01*
X961849Y874923D01*
Y875923D01*
Y874923D01*
X960849Y873923D01*
X959850D01*
X958850Y874923D01*
Y876922D01*
X959850Y877922D01*
X934909Y896920D02*
Y900918D01*
X933909Y901918D01*
X931910D01*
X930910Y900918D01*
Y896920D01*
X931910Y895920D01*
X933909D01*
X932909Y897919D02*
X934909Y895920D01*
X933909D02*
X934909Y896920D01*
X936908Y895920D02*
X938907D01*
X937908D01*
Y901918D01*
X936908Y900918D01*
X905463Y918870D02*
Y924868D01*
X908462D01*
X909461Y923868D01*
Y921869D01*
X908462Y920869D01*
X905463D01*
X907462D02*
X909461Y918870D01*
X911461D02*
X913460D01*
X912460D01*
Y924868D01*
X911461Y923868D01*
X889103Y918870D02*
Y924868D01*
X892102D01*
X893102Y923868D01*
Y921869D01*
X892102Y920869D01*
X889103D01*
X891103D02*
X893102Y918870D01*
X899100D02*
X895101D01*
X899100Y922869D01*
Y923868D01*
X898100Y924868D01*
X896101D01*
X895101Y923868D01*
X971693Y875690D02*
Y881688D01*
X974692D01*
X975692Y880688D01*
Y878689D01*
X974692Y877689D01*
X971693D01*
X973692D02*
X975692Y875690D01*
X977691Y880688D02*
X978691Y881688D01*
X980690D01*
X981690Y880688D01*
Y879689D01*
X980690Y878689D01*
X979690D01*
X980690D01*
X981690Y877689D01*
Y876690D01*
X980690Y875690D01*
X978691D01*
X977691Y876690D01*
X925830Y863600D02*
X931828D01*
Y860601D01*
X930828Y859601D01*
X928829D01*
X927829Y860601D01*
Y863600D01*
Y861601D02*
X925830Y859601D01*
Y854603D02*
X931828D01*
X928829Y857602D01*
Y853603D01*
X942565Y919059D02*
X941565Y918059D01*
Y916060D01*
X942565Y915060D01*
X946563D01*
X947563Y916060D01*
Y918059D01*
X946563Y919059D01*
X941565Y925057D02*
X942565Y923057D01*
X944564Y921058D01*
X946563D01*
X947563Y922058D01*
Y924057D01*
X946563Y925057D01*
X945564D01*
X944564Y924057D01*
Y921058D01*
X1034112Y923868D02*
X1033112Y924868D01*
X1031113D01*
X1030113Y923868D01*
Y919870D01*
X1031113Y918870D01*
X1033112D01*
X1034112Y919870D01*
X1036111Y924868D02*
X1040110D01*
Y923868D01*
X1036111Y919870D01*
Y918870D01*
X1018872Y923868D02*
X1017872Y924868D01*
X1015873D01*
X1014873Y923868D01*
Y919870D01*
X1015873Y918870D01*
X1017872D01*
X1018872Y919870D01*
X1020871Y923868D02*
X1021871Y924868D01*
X1023870D01*
X1024870Y923868D01*
Y922869D01*
X1023870Y921869D01*
X1024870Y920869D01*
Y919870D01*
X1023870Y918870D01*
X1021871D01*
X1020871Y919870D01*
Y920869D01*
X1021871Y921869D01*
X1020871Y922869D01*
Y923868D01*
X1021871Y921869D02*
X1023870D01*
X1007110Y889918D02*
Y884920D01*
X1008110Y883920D01*
X1010109D01*
X1011109Y884920D01*
Y889918D01*
X1013108Y883920D02*
X1015107D01*
X1014108D01*
Y889918D01*
X1013108Y888918D01*
X1038651Y864178D02*
X1034652D01*
X1032653Y862179D01*
X1034652Y860180D01*
X1038651D01*
X1032653Y857181D02*
Y855181D01*
X1033653Y854182D01*
X1035652D01*
X1036652Y855181D01*
Y857181D01*
X1035652Y858180D01*
X1033653D01*
X1032653Y857181D01*
X1037651Y883499D02*
X1038651Y884498D01*
Y886498D01*
X1037651Y887497D01*
X1033653D01*
X1032653Y886498D01*
Y884498D01*
X1033653Y883499D01*
X1035652D01*
Y885498D01*
X1032653Y881499D02*
X1038651D01*
X1032653Y877501D01*
X1038651D01*
Y875501D02*
X1032653D01*
Y872502D01*
X1033653Y871503D01*
X1037651D01*
X1038651Y872502D01*
Y875501D01*
X1065591Y898739D02*
X1066591Y899738D01*
Y901738D01*
X1065591Y902737D01*
X1061593D01*
X1060593Y901738D01*
Y899738D01*
X1061593Y898739D01*
X1063592D01*
Y900738D01*
X1060593Y896739D02*
X1066591D01*
X1060593Y892741D01*
X1066591D01*
Y890741D02*
X1060593D01*
Y887742D01*
X1061593Y886743D01*
X1065591D01*
X1066591Y887742D01*
Y890741D01*
Y921328D02*
X1062592D01*
X1060593Y919329D01*
X1062592Y917330D01*
X1066591D01*
Y915330D02*
X1060593D01*
Y912331D01*
X1061593Y911332D01*
X1062592D01*
X1063592D01*
X1064592Y912331D01*
Y915330D01*
D12*
X937790Y882060D02*
Y892690D01*
X908790Y882060D02*
Y892690D01*
X931290D02*
X937790D01*
X908790D02*
X915290D01*
D13*
X976757Y887730D02*
X996823D01*
X976757Y900907D02*
Y907573D01*
Y920750D02*
X996823D01*
D14*
X849773Y847750D02*
Y927760D01*
X1085993D01*
Y847750D02*
Y927760D01*
X849773Y847750D02*
X1085993D01*
D15*
X1003681Y879750D02*
X995217Y888214D01*
X1003681D02*
X995217Y879750D01*
X1003681Y883982D02*
X995217D01*
X999449Y888214D02*
Y879750D01*
D16*
X1080211Y891226D02*
X1081877Y892892D01*
Y896224D01*
X1080211Y897890D01*
X1078544D01*
X1076878Y896224D01*
Y892892D01*
X1075212Y891226D01*
X1073546D01*
X1071880Y892892D01*
Y896224D01*
X1073546Y897890D01*
X1081877Y882895D02*
Y886227D01*
X1080211Y887893D01*
X1073546D01*
X1071880Y886227D01*
Y882895D01*
X1073546Y881229D01*
X1080211D01*
X1081877Y882895D01*
Y877896D02*
Y871232D01*
Y874564D01*
X1071880D01*
Y861235D02*
Y867900D01*
X1078544Y861235D01*
X1080211D01*
X1081877Y862901D01*
Y866234D01*
X1080211Y867900D01*
Y857903D02*
X1081877Y856237D01*
Y852905D01*
X1080211Y851238D01*
X1078544D01*
X1076878Y852905D01*
Y854571D01*
Y852905D01*
X1075212Y851238D01*
X1073546D01*
X1071880Y852905D01*
Y856237D01*
X1073546Y857903D01*
X1066241Y862016D02*
X1067907Y863682D01*
Y867014D01*
X1066241Y868680D01*
X1059576D01*
X1057910Y867014D01*
Y863682D01*
X1059576Y862016D01*
X1066241Y852019D02*
X1067907Y853685D01*
Y857017D01*
X1066241Y858683D01*
X1064575D01*
X1062908Y857017D01*
Y853685D01*
X1061242Y852019D01*
X1059576D01*
X1057910Y853685D01*
Y857017D01*
X1059576Y858683D01*
M02*
