G04*
G04 #@! TF.GenerationSoftware,Altium Limited,Altium Designer,19.1.8 (144)*
G04*
G04 Layer_Color=255*
%FSLAX44Y44*%
%MOMM*%
G71*
G01*
G75*
%ADD14R,0.5588X0.5080*%
%ADD15R,1.5000X3.0000*%
%ADD16R,0.8000X0.6000*%
%ADD17R,1.4620X0.5680*%
%ADD18R,0.3302X0.5532*%
%ADD19R,0.4302X0.5032*%
%ADD20R,0.5032X0.4302*%
%ADD21R,0.3000X0.2600*%
%ADD22R,1.3000X1.1000*%
D14*
X1309370Y667639D02*
D03*
Y658241D02*
D03*
X1375410Y667639D02*
D03*
Y658241D02*
D03*
X1389380Y667639D02*
D03*
Y658241D02*
D03*
D15*
X1116330Y623570D02*
D03*
Y665480D02*
D03*
D16*
X1156770Y651510D02*
D03*
X1131770D02*
D03*
Y668020D02*
D03*
X1156770D02*
D03*
D17*
X1331214Y642010D02*
D03*
Y661010D02*
D03*
X1353566D02*
D03*
Y651510D02*
D03*
Y642010D02*
D03*
D18*
X1295400Y666849D02*
D03*
Y659031D02*
D03*
X1281430Y666849D02*
D03*
Y659031D02*
D03*
X1257300Y665579D02*
D03*
Y657761D02*
D03*
X1145540Y619661D02*
D03*
Y627479D02*
D03*
X1131570Y619661D02*
D03*
Y627479D02*
D03*
X1224280Y666849D02*
D03*
Y659031D02*
D03*
D19*
X1240790Y658011D02*
D03*
Y665329D02*
D03*
X1282700Y621181D02*
D03*
Y628499D02*
D03*
X1264920D02*
D03*
Y621181D02*
D03*
X1247140D02*
D03*
Y628499D02*
D03*
X1229360D02*
D03*
Y621181D02*
D03*
X1160780D02*
D03*
Y628499D02*
D03*
D20*
X1207770Y657860D02*
D03*
X1200452D02*
D03*
X1211429Y621030D02*
D03*
X1204111D02*
D03*
X1178711D02*
D03*
X1186029D02*
D03*
D21*
X1184830Y646520D02*
D03*
X1179830D02*
D03*
X1174830D02*
D03*
Y664120D02*
D03*
X1179830D02*
D03*
X1184830D02*
D03*
D22*
X1179830Y655320D02*
D03*
M02*
