G04*
G04 #@! TF.GenerationSoftware,Altium Limited,Altium Designer,19.1.8 (144)*
G04*
G04 Layer_Physical_Order=1*
G04 Layer_Color=255*
%FSLAX44Y44*%
%MOMM*%
G71*
G01*
G75*
%ADD14R,0.5588X0.5080*%
%ADD15R,1.5000X3.0000*%
%ADD16R,0.8000X0.6000*%
%ADD17R,1.4620X0.5680*%
%ADD18R,0.3302X0.5532*%
%ADD19R,0.4302X0.5032*%
%ADD20R,0.5032X0.4302*%
%ADD21R,0.3000X0.2600*%
%ADD22R,1.3000X1.1000*%
%ADD28C,0.2540*%
%ADD29C,1.2700*%
G36*
X1277220Y671816D02*
Y667174D01*
X1277239Y667080D01*
Y661543D01*
Y660301D01*
X1281430D01*
X1285621D01*
Y662964D01*
X1291209D01*
Y660301D01*
X1295400D01*
X1299591D01*
Y662964D01*
X1304036D01*
Y659511D01*
X1309370D01*
Y658241D01*
X1310640D01*
Y653161D01*
X1313105D01*
Y651764D01*
X1313401Y650277D01*
X1314243Y649017D01*
X1321364Y641896D01*
Y636630D01*
X1341064D01*
Y640603D01*
X1342237Y641089D01*
X1343453Y639873D01*
X1343716Y639697D01*
Y636630D01*
X1363416D01*
Y646130D01*
Y650240D01*
X1353566D01*
Y652780D01*
X1363416D01*
Y655630D01*
Y660896D01*
X1365484Y662964D01*
X1370076D01*
Y659511D01*
X1375410D01*
X1380744D01*
Y662964D01*
X1384046D01*
Y659511D01*
X1389380D01*
X1394714D01*
Y664580D01*
X1402109D01*
X1403360Y662950D01*
X1404200Y662305D01*
Y661035D01*
X1403360Y660390D01*
X1401935Y658533D01*
X1401039Y656371D01*
X1400901Y655320D01*
X1409700D01*
Y652780D01*
X1400901D01*
X1401039Y651729D01*
X1401935Y649567D01*
X1403360Y647710D01*
X1405217Y646285D01*
X1407379Y645389D01*
X1408195Y645281D01*
X1408604Y644079D01*
X1398329Y633805D01*
X1312249D01*
X1295607Y650447D01*
X1294347Y651289D01*
X1292860Y651585D01*
X1274149D01*
X1272615Y653119D01*
Y666651D01*
X1272319Y668138D01*
X1271477Y669398D01*
X1268937Y671938D01*
X1267677Y672780D01*
X1266190Y673076D01*
X1246021D01*
X1244534Y672780D01*
X1243274Y671938D01*
X1240352Y669016D01*
X1236099D01*
Y667365D01*
X1234829D01*
X1233342Y667069D01*
X1232082Y666227D01*
X1229644Y663789D01*
X1228628Y664210D01*
X1224280D01*
X1220089D01*
Y661745D01*
X1212826D01*
Y662551D01*
X1195396D01*
Y658663D01*
X1190043Y653310D01*
X1188870Y653796D01*
Y654050D01*
X1179830D01*
X1170790D01*
Y646787D01*
X1170635Y646010D01*
Y644213D01*
X1159977Y633555D01*
X1156089D01*
Y628302D01*
X1154916Y627816D01*
X1153748Y628984D01*
X1152488Y629826D01*
X1151001Y630122D01*
X1149731D01*
Y632785D01*
X1141349D01*
Y631364D01*
X1138301D01*
Y632785D01*
X1129919D01*
Y622173D01*
Y620931D01*
X1134110D01*
X1138301D01*
Y623594D01*
X1141349D01*
Y620931D01*
X1145540D01*
Y619661D01*
X1146810D01*
Y614355D01*
X1149731D01*
Y620354D01*
X1150904Y620840D01*
X1152318Y619426D01*
X1153578Y618584D01*
X1155065Y618288D01*
X1156089D01*
Y616125D01*
X1156895D01*
Y611088D01*
X1157177Y609675D01*
X1157179Y609453D01*
X1156529Y608405D01*
X1126370D01*
Y622300D01*
X1116330D01*
Y623570D01*
X1115060D01*
Y641110D01*
X1108785D01*
Y647940D01*
X1125230D01*
Y645970D01*
X1138310D01*
Y657050D01*
X1134385D01*
Y662480D01*
X1138310D01*
Y673560D01*
X1135455D01*
Y675565D01*
X1170601D01*
X1170635Y675531D01*
Y664630D01*
X1170790Y663852D01*
Y660280D01*
Y656590D01*
X1179830D01*
X1188870D01*
Y663852D01*
X1189025Y664630D01*
Y675531D01*
X1189059Y675565D01*
X1273471D01*
X1277220Y671816D01*
D02*
G37*
G36*
X1264845Y665042D02*
Y651510D01*
X1265141Y650023D01*
X1265983Y648763D01*
X1269793Y644953D01*
X1271053Y644111D01*
X1272540Y643815D01*
X1291251D01*
X1307893Y627173D01*
X1309153Y626331D01*
X1310640Y626035D01*
X1399938D01*
X1401425Y626331D01*
X1402685Y627173D01*
X1418751Y643239D01*
X1419954Y642646D01*
X1419951Y642620D01*
X1437549D01*
X1437411Y643671D01*
X1436515Y645833D01*
X1435140Y647625D01*
X1435212Y648060D01*
X1435496Y648895D01*
X1440105D01*
Y613749D01*
X1439841Y613485D01*
X1164665D01*
Y616125D01*
X1165471D01*
Y628061D01*
X1173947Y636537D01*
X1179780Y630704D01*
X1179294Y629531D01*
X1173655D01*
Y626110D01*
X1178711D01*
Y624840D01*
X1179981D01*
Y620149D01*
X1183181D01*
X1183433Y619771D01*
X1184921Y618283D01*
X1186181Y617441D01*
X1187668Y617145D01*
X1202690D01*
X1204177Y617441D01*
X1205437Y618283D01*
X1206707Y619553D01*
X1207105Y620149D01*
X1216485D01*
Y621812D01*
X1217755D01*
X1219242Y622108D01*
X1220502Y622950D01*
X1223496Y625944D01*
X1224669Y625458D01*
Y619935D01*
X1228090D01*
Y624991D01*
X1229360D01*
Y626261D01*
X1234051D01*
Y628424D01*
X1242449D01*
Y619935D01*
X1251831D01*
Y621836D01*
X1253101D01*
X1254588Y622132D01*
X1255848Y622974D01*
X1258959Y626085D01*
X1260229Y625559D01*
Y619935D01*
X1263650D01*
Y624991D01*
X1266190D01*
Y619935D01*
X1269611D01*
Y625559D01*
X1270881Y626085D01*
X1273992Y622974D01*
X1275252Y622132D01*
X1276739Y621836D01*
X1278009D01*
Y619935D01*
X1287391D01*
Y625559D01*
X1288661Y626085D01*
X1297733Y617013D01*
X1298993Y616171D01*
X1300480Y615875D01*
X1420732D01*
X1422218Y616171D01*
X1423479Y617013D01*
X1424651Y618186D01*
X1426429Y617449D01*
X1428750Y617143D01*
X1431071Y617449D01*
X1433233Y618345D01*
X1435090Y619770D01*
X1436515Y621627D01*
X1437411Y623789D01*
X1437717Y626110D01*
X1437411Y628431D01*
X1436515Y630593D01*
X1435090Y632450D01*
X1434250Y633095D01*
Y634365D01*
X1435090Y635010D01*
X1436515Y636867D01*
X1437411Y639029D01*
X1437549Y640080D01*
X1419951D01*
X1420089Y639029D01*
X1420985Y636867D01*
X1422410Y635010D01*
X1423250Y634365D01*
Y633095D01*
X1422410Y632450D01*
X1420985Y630593D01*
X1420089Y628431D01*
X1419783Y626110D01*
X1419993Y624515D01*
X1419122Y623645D01*
X1302089D01*
X1291670Y634064D01*
X1290410Y634906D01*
X1288923Y635202D01*
X1287391D01*
Y637365D01*
X1278209D01*
X1274192Y641382D01*
X1272932Y642224D01*
X1271445Y642520D01*
X1228180D01*
X1227795Y643790D01*
X1227860Y643833D01*
X1235057Y651030D01*
X1236099Y651586D01*
Y651586D01*
X1236099Y651586D01*
X1239987D01*
X1241775Y649799D01*
X1243035Y648957D01*
X1244521Y648661D01*
X1253046D01*
Y647240D01*
X1261429D01*
Y655058D01*
Y659093D01*
X1257237D01*
Y661634D01*
X1261429D01*
Y665306D01*
X1264581D01*
X1264845Y665042D01*
D02*
G37*
%LPC*%
G36*
X1163310Y673560D02*
X1158040D01*
Y669290D01*
X1163310D01*
Y673560D01*
D02*
G37*
G36*
X1155500D02*
X1150230D01*
Y669290D01*
X1155500D01*
Y673560D01*
D02*
G37*
G36*
X1228471Y670786D02*
X1225550D01*
Y666750D01*
X1228471D01*
Y670786D01*
D02*
G37*
G36*
X1223010D02*
X1220089D01*
Y666750D01*
X1223010D01*
Y670786D01*
D02*
G37*
G36*
X1163310Y666750D02*
X1158040D01*
Y662480D01*
X1163310D01*
Y666750D01*
D02*
G37*
G36*
X1155500D02*
X1150230D01*
Y662480D01*
X1155500D01*
Y666750D01*
D02*
G37*
G36*
X1299591Y657761D02*
X1296670D01*
Y653725D01*
X1299591D01*
Y657761D01*
D02*
G37*
G36*
X1294130D02*
X1291209D01*
Y653725D01*
X1294130D01*
Y657761D01*
D02*
G37*
G36*
X1285621D02*
X1282700D01*
Y653725D01*
X1285621D01*
Y657761D01*
D02*
G37*
G36*
X1280160D02*
X1277239D01*
Y653725D01*
X1280160D01*
Y657761D01*
D02*
G37*
G36*
X1394714Y656971D02*
X1390650D01*
Y653161D01*
X1394714D01*
Y656971D01*
D02*
G37*
G36*
X1388110D02*
X1384046D01*
Y653161D01*
X1388110D01*
Y656971D01*
D02*
G37*
G36*
X1380744D02*
X1376680D01*
Y653161D01*
X1380744D01*
Y656971D01*
D02*
G37*
G36*
X1374140D02*
X1370076D01*
Y653161D01*
X1374140D01*
Y656971D01*
D02*
G37*
G36*
X1308100D02*
X1304036D01*
Y653161D01*
X1308100D01*
Y656971D01*
D02*
G37*
G36*
X1163310Y657050D02*
X1158040D01*
Y652780D01*
X1163310D01*
Y657050D01*
D02*
G37*
G36*
X1155500D02*
X1150230D01*
Y652780D01*
X1155500D01*
Y657050D01*
D02*
G37*
G36*
X1163310Y650240D02*
X1158040D01*
Y645970D01*
X1163310D01*
Y650240D01*
D02*
G37*
G36*
X1155500D02*
X1150230D01*
Y645970D01*
X1155500D01*
Y650240D01*
D02*
G37*
G36*
X1126370Y641110D02*
X1117600D01*
Y624840D01*
X1126370D01*
Y641110D01*
D02*
G37*
G36*
X1144270Y618391D02*
X1141349D01*
Y614355D01*
X1144270D01*
Y618391D01*
D02*
G37*
G36*
X1138301D02*
X1135380D01*
Y614355D01*
X1138301D01*
Y618391D01*
D02*
G37*
G36*
X1132840D02*
X1129919D01*
Y614355D01*
X1132840D01*
Y618391D01*
D02*
G37*
G36*
X1177441Y623570D02*
X1173655D01*
Y620149D01*
X1177441D01*
Y623570D01*
D02*
G37*
G36*
X1234051Y623721D02*
X1230630D01*
Y619935D01*
X1234051D01*
Y623721D01*
D02*
G37*
%LPD*%
D14*
X1309370Y667639D02*
D03*
Y658241D02*
D03*
X1375410Y667639D02*
D03*
Y658241D02*
D03*
X1389380Y667639D02*
D03*
Y658241D02*
D03*
D15*
X1116330Y623570D02*
D03*
Y665480D02*
D03*
D16*
X1156770Y651510D02*
D03*
X1131770D02*
D03*
Y668020D02*
D03*
X1156770D02*
D03*
D17*
X1331214Y642010D02*
D03*
Y661010D02*
D03*
X1353566D02*
D03*
Y651510D02*
D03*
Y642010D02*
D03*
D18*
X1295400Y666849D02*
D03*
Y659031D02*
D03*
X1281430Y666849D02*
D03*
Y659031D02*
D03*
X1257237Y660363D02*
D03*
Y652545D02*
D03*
X1145540Y619661D02*
D03*
Y627479D02*
D03*
X1134110Y619661D02*
D03*
Y627479D02*
D03*
X1224280Y665480D02*
D03*
Y657662D02*
D03*
D19*
X1240790Y656642D02*
D03*
Y663960D02*
D03*
X1282700Y624991D02*
D03*
Y632309D02*
D03*
X1264920D02*
D03*
Y624991D02*
D03*
X1247140D02*
D03*
Y632309D02*
D03*
X1229360D02*
D03*
Y624991D02*
D03*
X1160780Y621181D02*
D03*
Y628499D02*
D03*
D20*
X1207770Y657860D02*
D03*
X1200452D02*
D03*
X1211429Y624840D02*
D03*
X1204111D02*
D03*
X1178711D02*
D03*
X1186029D02*
D03*
D21*
X1184830Y646520D02*
D03*
X1179830D02*
D03*
X1174830D02*
D03*
Y664120D02*
D03*
X1179830D02*
D03*
X1184830D02*
D03*
D22*
X1179830Y655320D02*
D03*
D28*
X1145159Y627479D02*
X1145921Y626717D01*
Y626237D02*
Y626717D01*
X1134110Y627479D02*
X1145159D01*
X1240790Y656277D02*
Y656642D01*
Y656277D02*
X1244521Y652545D01*
X1257237D01*
X1295400Y666849D02*
X1309370D01*
X1288923Y631317D02*
X1300480Y619760D01*
X1185918Y626110D02*
X1186029D01*
X1185037Y625721D02*
Y630941D01*
Y625721D02*
X1185918Y624840D01*
X1186029D01*
Y626110D02*
X1186180Y625959D01*
X1268730Y651510D02*
X1272540Y647700D01*
X1292860D01*
X1190341Y640930D02*
X1195992Y646580D01*
X1225114D01*
X1207770Y657860D02*
X1224082D01*
X1224280Y657662D01*
X1224661Y658392D02*
X1229741D01*
X1224280Y658011D02*
X1224661Y658392D01*
X1224280Y657662D02*
Y658011D01*
X1266190Y669191D02*
X1268730Y666651D01*
Y651510D02*
Y666651D01*
X1246021Y669191D02*
X1266190D01*
X1242036Y665206D02*
X1246021Y669191D01*
X1222835Y638635D02*
X1271445D01*
X1217930Y633730D02*
X1222835Y638635D01*
X1427082Y626110D02*
X1428750D01*
X1300480Y619760D02*
X1420732D01*
X1427082Y626110D01*
X1283581Y631317D02*
X1288923D01*
X1282700Y632198D02*
X1283581Y631317D01*
X1282700Y632198D02*
Y632309D01*
X1443990Y652780D02*
Y674370D01*
Y612140D02*
Y652780D01*
X1422798D02*
X1443990D01*
X1399938Y629920D02*
X1422798Y652780D01*
X1310640Y629920D02*
X1399938D01*
X1441450Y609600D02*
X1443990Y612140D01*
X1438910Y679450D02*
X1443990Y674370D01*
X1314450Y679450D02*
X1438910D01*
X1363875Y666849D02*
X1389380D01*
Y667639D01*
X1408875Y668465D02*
X1409700Y669290D01*
X1390206Y668465D02*
X1408875D01*
X1389380Y667639D02*
X1390206Y668465D01*
X1162268Y609600D02*
X1441450D01*
X1160780Y611088D02*
X1162268Y609600D01*
X1160780Y611088D02*
Y621181D01*
X1292860Y647700D02*
X1310640Y629920D01*
X1174520Y641458D02*
Y642604D01*
Y641458D02*
X1185037Y630941D01*
X1204111Y624840D02*
X1204222D01*
X1205103Y625721D01*
X1186180Y622518D02*
X1187668Y621030D01*
X1202690D02*
X1203960Y622300D01*
X1253101Y625721D02*
X1258959Y631579D01*
X1265650Y631579D02*
X1270881D01*
X1277620Y632460D02*
X1282549D01*
X1270881Y631579D02*
X1276739Y625721D01*
X1247870Y625721D02*
X1253101D01*
X1309370Y667639D02*
Y674370D01*
X1314450Y679450D01*
X1185140Y664630D02*
Y677140D01*
X1187450Y679450D01*
X1275080D01*
X1309370Y666849D02*
Y667639D01*
X1275080Y679450D02*
X1281105Y673425D01*
X1130500Y668020D02*
X1131570Y669090D01*
X1130500Y651510D02*
Y668020D01*
X1131570Y669090D02*
Y678180D01*
X1132840Y679450D01*
X1172210D01*
X1118870Y668020D02*
X1130500D01*
X1116330Y665480D02*
X1118870Y668020D01*
X1203960Y622300D02*
Y624689D01*
X1204111Y624840D01*
X1187668Y621030D02*
X1202690D01*
X1186180Y622518D02*
Y624689D01*
X1271445Y638635D02*
X1277620Y632460D01*
X1282549D02*
X1282700Y632309D01*
X1281970Y625721D02*
X1282700Y624991D01*
X1276739Y625721D02*
X1281970D01*
X1264920Y632309D02*
X1265650Y631579D01*
X1241671Y665206D02*
X1242036D01*
X1240790Y664325D02*
X1241671Y665206D01*
X1240790Y663960D02*
Y664325D01*
X1281430Y666849D02*
X1295400D01*
X1281105Y667174D02*
Y673425D01*
Y667174D02*
X1281430Y666849D01*
X1314450Y666750D02*
X1316990Y664210D01*
X1309469Y666750D02*
X1314450D01*
X1309370Y666849D02*
X1309469Y666750D01*
X1316990Y651764D02*
Y664210D01*
Y651764D02*
X1326744Y642010D01*
X1331214D01*
X1346200Y642620D02*
X1352956D01*
X1353566Y642010D01*
X1342446Y646374D02*
X1346200Y642620D01*
X1342446Y646374D02*
Y655928D01*
X1344678Y658160D01*
X1346246D01*
X1349096Y661010D01*
X1353566D01*
X1358036D01*
X1363875Y666849D01*
X1172210Y679450D02*
X1174520Y677140D01*
Y664630D02*
Y677140D01*
X1179830Y643332D02*
Y646520D01*
Y643332D02*
X1182232Y640930D01*
X1190341D01*
X1225114Y646580D02*
X1234829Y656296D01*
X1240444D01*
X1240790Y656642D01*
X1160780Y628864D02*
X1174520Y642604D01*
Y646010D01*
X1160780Y628499D02*
Y628864D01*
X1240310Y663480D02*
X1240790Y663960D01*
X1234829Y663480D02*
X1240310D01*
X1229741Y658392D02*
X1234829Y663480D01*
X1207770Y657860D02*
X1208355Y658446D01*
X1185140Y646010D02*
X1188237D01*
X1200087Y657860D01*
X1200452D01*
X1210264Y633730D02*
X1217930D01*
X1205103Y628569D02*
X1210264Y633730D01*
X1205103Y625721D02*
Y628569D01*
X1264190Y631579D02*
X1264920Y632309D01*
X1258959Y631579D02*
X1264190D01*
X1247140Y624991D02*
X1247870Y625721D01*
X1229360Y632309D02*
X1247140D01*
X1229360Y632222D02*
Y632309D01*
X1228479Y631341D02*
X1229360Y632222D01*
X1223399Y631341D02*
X1228479D01*
X1217755Y625697D02*
X1223399Y631341D01*
X1212286Y625697D02*
X1217755D01*
X1211429Y624840D02*
X1212286Y625697D01*
X1160780Y621181D02*
Y621292D01*
X1159899Y622173D02*
X1160780Y621292D01*
X1155065Y622173D02*
X1159899D01*
X1151001Y626237D02*
X1155065Y622173D01*
X1145921Y626237D02*
X1151001D01*
X1115060Y669290D02*
X1116330Y665480D01*
D29*
X1428750Y626110D02*
D03*
X1409700Y669290D02*
D03*
Y654050D02*
D03*
X1428750Y641350D02*
D03*
M02*
