G04*
G04 #@! TF.GenerationSoftware,Altium Limited,Altium Designer,19.1.8 (144)*
G04*
G04 Layer_Color=65535*
%FSLAX44Y44*%
%MOMM*%
G71*
G01*
G75*
%ADD10C,0.1000*%
%ADD11C,0.2000*%
%ADD12C,0.1524*%
%ADD13C,0.1270*%
D10*
X1162550Y658614D02*
G03*
X1162550Y658614I-500J0D01*
G01*
X1126990Y660916D02*
G03*
X1126990Y660916I-500J0D01*
G01*
X1414780Y624840D02*
X1420778D01*
Y621841D01*
X1419778Y620841D01*
X1417779D01*
X1416779Y621841D01*
Y624840D01*
Y622841D02*
X1414780Y620841D01*
X1420778Y614843D02*
Y618842D01*
X1417779D01*
Y616843D01*
Y618842D01*
X1414780D01*
X1419778Y639891D02*
X1420778Y640891D01*
Y642890D01*
X1419778Y643890D01*
X1415780D01*
X1414780Y642890D01*
Y640891D01*
X1415780Y639891D01*
X1417779D01*
Y641891D01*
X1414780Y637892D02*
X1420778D01*
X1414780Y633893D01*
X1420778D01*
Y631894D02*
X1414780D01*
Y628895D01*
X1415780Y627895D01*
X1419778D01*
X1420778Y628895D01*
Y631894D01*
X1419778Y660211D02*
X1420778Y661211D01*
Y663210D01*
X1419778Y664210D01*
X1415780D01*
X1414780Y663210D01*
Y661211D01*
X1415780Y660211D01*
X1417779D01*
Y662211D01*
X1414780Y658212D02*
X1420778D01*
X1414780Y654213D01*
X1420778D01*
Y652214D02*
X1414780D01*
Y649215D01*
X1415780Y648215D01*
X1419778D01*
X1420778Y649215D01*
Y652214D01*
Y676910D02*
X1416779D01*
X1414780Y674911D01*
X1416779Y672911D01*
X1420778D01*
Y670912D02*
X1414780D01*
Y667913D01*
X1415780Y666913D01*
X1416779D01*
X1417779D01*
X1418779Y667913D01*
Y670912D01*
X1112709Y646348D02*
X1111709Y647348D01*
X1109710D01*
X1108710Y646348D01*
Y642350D01*
X1109710Y641350D01*
X1111709D01*
X1112709Y642350D01*
Y644349D01*
X1110709D01*
X1114708Y641350D02*
Y647348D01*
X1118707Y641350D01*
Y647348D01*
X1120706D02*
Y641350D01*
X1123705D01*
X1124705Y642350D01*
Y646348D01*
X1123705Y647348D01*
X1120706D01*
X1126490Y682908D02*
X1128489D01*
X1127490D01*
Y676910D01*
X1126490D01*
X1128489D01*
X1131488D02*
Y682908D01*
X1135487Y676910D01*
Y682908D01*
X1359281Y632602D02*
X1355282Y636600D01*
X1359281D02*
X1355282Y632602D01*
X1359281Y634601D02*
X1355282D01*
X1357282Y636600D02*
Y632602D01*
X1393108Y644971D02*
X1394108Y645971D01*
Y647970D01*
X1393108Y648970D01*
X1392109D01*
X1391109Y647970D01*
Y645971D01*
X1390109Y644971D01*
X1389110D01*
X1388110Y645971D01*
Y647970D01*
X1389110Y648970D01*
X1394108Y639973D02*
Y641972D01*
X1393108Y642972D01*
X1389110D01*
X1388110Y641972D01*
Y639973D01*
X1389110Y638973D01*
X1393108D01*
X1394108Y639973D01*
Y636974D02*
Y632975D01*
Y634975D01*
X1388110D01*
Y630976D02*
Y628977D01*
Y629976D01*
X1394108D01*
X1393108Y630976D01*
X1388110Y621979D02*
Y625978D01*
X1392109Y621979D01*
X1393108D01*
X1394108Y622978D01*
Y624978D01*
X1393108Y625978D01*
Y619979D02*
X1394108Y618980D01*
Y616980D01*
X1393108Y615981D01*
X1389110D01*
X1388110Y616980D01*
Y618980D01*
X1389110Y619979D01*
X1393108D01*
X1389110Y613981D02*
X1388110Y612982D01*
Y610982D01*
X1389110Y609983D01*
X1393108D01*
X1394108Y610982D01*
Y612982D01*
X1393108Y613981D01*
X1392109D01*
X1391109Y612982D01*
Y609983D01*
X1169318Y656590D02*
X1163320D01*
Y653591D01*
X1164320Y652591D01*
X1168318D01*
X1169318Y653591D01*
Y656590D01*
X1163320Y646593D02*
Y650592D01*
X1167319Y646593D01*
X1168318D01*
X1169318Y647593D01*
Y649592D01*
X1168318Y650592D01*
X1169318Y671830D02*
X1163320D01*
Y668831D01*
X1164320Y667831D01*
X1168318D01*
X1169318Y668831D01*
Y671830D01*
X1163320Y665832D02*
Y663833D01*
Y664832D01*
X1169318D01*
X1168318Y665832D01*
X1338580Y628298D02*
Y623300D01*
X1339580Y622300D01*
X1341579D01*
X1342579Y623300D01*
Y628298D01*
X1344578Y622300D02*
X1346577D01*
X1345578D01*
Y628298D01*
X1344578Y627298D01*
X1280349Y679368D02*
X1279349Y680368D01*
X1277350D01*
X1276350Y679368D01*
Y675370D01*
X1277350Y674370D01*
X1279349D01*
X1280349Y675370D01*
X1282348D02*
X1283348Y674370D01*
X1285347D01*
X1286347Y675370D01*
Y679368D01*
X1285347Y680368D01*
X1283348D01*
X1282348Y679368D01*
Y678369D01*
X1283348Y677369D01*
X1286347D01*
X1294319Y679368D02*
X1293319Y680368D01*
X1291320D01*
X1290320Y679368D01*
Y675370D01*
X1291320Y674370D01*
X1293319D01*
X1294319Y675370D01*
X1296318Y679368D02*
X1297318Y680368D01*
X1299317D01*
X1300317Y679368D01*
Y678369D01*
X1299317Y677369D01*
X1300317Y676369D01*
Y675370D01*
X1299317Y674370D01*
X1297318D01*
X1296318Y675370D01*
Y676369D01*
X1297318Y677369D01*
X1296318Y678369D01*
Y679368D01*
X1297318Y677369D02*
X1299317D01*
X1308289Y679368D02*
X1307289Y680368D01*
X1305290D01*
X1304290Y679368D01*
Y675370D01*
X1305290Y674370D01*
X1307289D01*
X1308289Y675370D01*
X1310288Y680368D02*
X1314287D01*
Y679368D01*
X1310288Y675370D01*
Y674370D01*
X1374329Y679368D02*
X1373329Y680368D01*
X1371330D01*
X1370330Y679368D01*
Y675370D01*
X1371330Y674370D01*
X1373329D01*
X1374329Y675370D01*
X1380327Y680368D02*
X1378327Y679368D01*
X1376328Y677369D01*
Y675370D01*
X1377328Y674370D01*
X1379327D01*
X1380327Y675370D01*
Y676369D01*
X1379327Y677369D01*
X1376328D01*
X1388299Y679368D02*
X1387299Y680368D01*
X1385300D01*
X1384300Y679368D01*
Y675370D01*
X1385300Y674370D01*
X1387299D01*
X1388299Y675370D01*
X1394297Y680368D02*
X1390298D01*
Y677369D01*
X1392297Y678369D01*
X1393297D01*
X1394297Y677369D01*
Y675370D01*
X1393297Y674370D01*
X1391298D01*
X1390298Y675370D01*
X1242060Y611788D02*
X1246059D01*
Y610788D01*
X1242060Y606790D01*
Y605790D01*
X1246059D01*
X1248058Y606790D02*
X1249058Y605790D01*
X1251057D01*
X1252057Y606790D01*
Y610788D01*
X1251057Y611788D01*
X1249058D01*
X1248058Y610788D01*
Y609789D01*
X1249058Y608789D01*
X1252057D01*
X1224280Y611788D02*
X1228279D01*
Y610788D01*
X1224280Y606790D01*
Y605790D01*
X1228279D01*
X1230278Y610788D02*
X1231278Y611788D01*
X1233277D01*
X1234277Y610788D01*
Y609789D01*
X1233277Y608789D01*
X1234277Y607789D01*
Y606790D01*
X1233277Y605790D01*
X1231278D01*
X1230278Y606790D01*
Y607789D01*
X1231278Y608789D01*
X1230278Y609789D01*
Y610788D01*
X1231278Y608789D02*
X1233277D01*
X1177290Y611788D02*
X1181289D01*
Y610788D01*
X1177290Y606790D01*
Y605790D01*
X1181289D01*
X1187287Y611788D02*
X1185287Y610788D01*
X1183288Y608789D01*
Y606790D01*
X1184288Y605790D01*
X1186287D01*
X1187287Y606790D01*
Y607789D01*
X1186287Y608789D01*
X1183288D01*
X1235710Y674370D02*
Y680368D01*
X1238709D01*
X1239709Y679368D01*
Y677369D01*
X1238709Y676369D01*
X1235710D01*
X1237709D02*
X1239709Y674370D01*
X1245707D02*
X1241708D01*
X1245707Y678369D01*
Y679368D01*
X1244707Y680368D01*
X1242708D01*
X1241708Y679368D01*
X1276350Y611788D02*
X1280349D01*
Y610788D01*
X1276350Y606790D01*
Y605790D01*
X1280349D01*
X1282348D02*
X1284347D01*
X1283348D01*
Y611788D01*
X1282348Y610788D01*
X1287346Y605790D02*
X1289346D01*
X1288346D01*
Y611788D01*
X1287346Y610788D01*
X1257300Y611788D02*
X1261299D01*
Y610788D01*
X1257300Y606790D01*
Y605790D01*
X1261299D01*
X1263298D02*
X1265297D01*
X1264298D01*
Y611788D01*
X1263298Y610788D01*
X1268296D02*
X1269296Y611788D01*
X1271295D01*
X1272295Y610788D01*
Y606790D01*
X1271295Y605790D01*
X1269296D01*
X1268296Y606790D01*
Y610788D01*
X1202690Y611788D02*
X1206689D01*
Y610788D01*
X1202690Y606790D01*
Y605790D01*
X1206689D01*
X1208688Y611788D02*
X1212687D01*
Y610788D01*
X1208688Y606790D01*
Y605790D01*
X1155700Y611788D02*
X1159699D01*
Y610788D01*
X1155700Y606790D01*
Y605790D01*
X1159699D01*
X1165697Y611788D02*
X1161698D01*
Y608789D01*
X1163697Y609789D01*
X1164697D01*
X1165697Y608789D01*
Y606790D01*
X1164697Y605790D01*
X1162698D01*
X1161698Y606790D01*
X1200301Y666750D02*
Y672748D01*
X1203300D01*
X1204300Y671748D01*
Y669749D01*
X1203300Y668749D01*
X1200301D01*
X1202300D02*
X1204300Y666750D01*
X1206299D02*
X1208298D01*
X1207299D01*
Y672748D01*
X1206299Y671748D01*
X1180019Y636000D02*
Y639998D01*
X1179019Y640998D01*
X1177020D01*
X1176020Y639998D01*
Y636000D01*
X1177020Y635000D01*
X1179019D01*
X1178019Y636999D02*
X1180019Y635000D01*
X1179019D02*
X1180019Y636000D01*
X1182018Y635000D02*
X1184017D01*
X1183018D01*
Y640998D01*
X1182018Y639998D01*
X1130489Y610788D02*
X1129489Y611788D01*
X1127490D01*
X1126490Y610788D01*
Y606790D01*
X1127490Y605790D01*
X1129489D01*
X1130489Y606790D01*
X1132488Y605790D02*
X1134487D01*
X1133488D01*
Y611788D01*
X1132488Y610788D01*
X1144459D02*
X1143459Y611788D01*
X1141460D01*
X1140460Y610788D01*
Y606790D01*
X1141460Y605790D01*
X1143459D01*
X1144459Y606790D01*
X1150457Y605790D02*
X1146458D01*
X1150457Y609789D01*
Y610788D01*
X1149457Y611788D01*
X1147458D01*
X1146458Y610788D01*
X1256219Y679368D02*
X1255219Y680368D01*
X1253220D01*
X1252220Y679368D01*
Y675370D01*
X1253220Y674370D01*
X1255219D01*
X1256219Y675370D01*
X1258218Y679368D02*
X1259218Y680368D01*
X1261217D01*
X1262217Y679368D01*
Y678369D01*
X1261217Y677369D01*
X1260217D01*
X1261217D01*
X1262217Y676369D01*
Y675370D01*
X1261217Y674370D01*
X1259218D01*
X1258218Y675370D01*
X1223199Y679368D02*
X1222199Y680368D01*
X1220200D01*
X1219200Y679368D01*
Y675370D01*
X1220200Y674370D01*
X1222199D01*
X1223199Y675370D01*
X1228197Y674370D02*
Y680368D01*
X1225198Y677369D01*
X1229197D01*
D11*
X1185830Y671320D02*
G03*
X1185830Y671320I-1000J0D01*
G01*
D12*
X1332357Y635000D02*
X1352423D01*
X1332357Y648177D02*
Y654843D01*
Y668020D02*
X1352423D01*
D13*
X1171530Y644820D02*
Y665820D01*
X1188130Y644820D02*
Y665820D01*
M02*
