G04*
G04 #@! TF.GenerationSoftware,Altium Limited,Altium Designer,19.1.8 (144)*
G04*
G04 Layer_Color=255*
%FSLAX44Y44*%
%MOMM*%
G71*
G01*
G75*
%ADD17R,1.5000X3.0000*%
%ADD18R,0.8000X1.0000*%
%ADD19R,0.4302X0.5032*%
%ADD20R,0.5032X0.4302*%
%ADD21R,0.6000X0.8000*%
%ADD22R,1.4620X0.5680*%
%ADD23R,0.5080X0.5588*%
%ADD24R,0.5588X0.5080*%
%ADD25R,0.3302X0.5532*%
%ADD26R,0.5532X0.3302*%
%ADD27R,0.8000X0.6000*%
D17*
X808341Y953544D02*
D03*
Y992914D02*
D03*
D18*
X936600Y943040D02*
D03*
X927100Y967040D02*
D03*
X917600Y943040D02*
D03*
D19*
X903591Y974166D02*
D03*
Y981484D02*
D03*
X997571Y952123D02*
D03*
Y944805D02*
D03*
X1014081D02*
D03*
Y952123D02*
D03*
X883521Y944405D02*
D03*
Y951723D02*
D03*
X887081Y981333D02*
D03*
Y974015D02*
D03*
X855625Y987985D02*
D03*
Y995303D02*
D03*
X839408Y987985D02*
D03*
Y995303D02*
D03*
X866761Y944405D02*
D03*
Y951723D02*
D03*
X953121Y995605D02*
D03*
Y1002923D02*
D03*
X871841Y987985D02*
D03*
Y995303D02*
D03*
D20*
X928219Y981710D02*
D03*
X920901D02*
D03*
X975830Y945924D02*
D03*
X968512D02*
D03*
Y962434D02*
D03*
X975830D02*
D03*
Y978944D02*
D03*
X968512D02*
D03*
X902623Y1003074D02*
D03*
X909941D02*
D03*
D21*
X951851Y943584D02*
D03*
Y968584D02*
D03*
D22*
X1037957Y979604D02*
D03*
Y989104D02*
D03*
Y998604D02*
D03*
X1015605D02*
D03*
Y979604D02*
D03*
D23*
X1029138Y956084D02*
D03*
X1038536D02*
D03*
D24*
X1058531Y988215D02*
D03*
Y997613D02*
D03*
X995031Y994001D02*
D03*
Y1003399D02*
D03*
D25*
X932801Y995355D02*
D03*
Y1003173D02*
D03*
X973441Y995355D02*
D03*
Y1003173D02*
D03*
X897890Y951329D02*
D03*
Y943511D02*
D03*
X823581Y987735D02*
D03*
Y995553D02*
D03*
D26*
X1037040Y942114D02*
D03*
X1029222D02*
D03*
D27*
X852591Y944654D02*
D03*
X827591D02*
D03*
Y966244D02*
D03*
X852591D02*
D03*
M02*
