G04*
G04 #@! TF.GenerationSoftware,Altium Limited,Altium Designer,19.1.8 (144)*
G04*
G04 Layer_Color=65535*
%FSLAX44Y44*%
%MOMM*%
G71*
G01*
G75*
%ADD10C,0.1000*%
%ADD11C,0.1524*%
%ADD12C,0.2540*%
%ADD13C,0.0762*%
%ADD14C,0.1500*%
D10*
X562730Y924090D02*
G03*
X562730Y924090I-500J0D01*
G01*
X578350Y941824D02*
G03*
X578350Y941824I-500J0D01*
G01*
X524494Y897890D02*
G03*
X524494Y897890I-500J0D01*
G01*
X493776Y933650D02*
G03*
X493776Y933650I-500J0D01*
G01*
X685448Y967658D02*
X681449D01*
X679450Y965659D01*
X681449Y963660D01*
X685448D01*
Y961660D02*
X679450D01*
Y958661D01*
X680450Y957662D01*
X681449D01*
X682449D01*
X683449Y958661D01*
Y961660D01*
X684448Y945069D02*
X685448Y946068D01*
Y948068D01*
X684448Y949067D01*
X680450D01*
X679450Y948068D01*
Y946068D01*
X680450Y945069D01*
X682449D01*
Y947068D01*
X679450Y943069D02*
X685448D01*
X679450Y939071D01*
X685448D01*
Y937071D02*
X679450D01*
Y934072D01*
X680450Y933073D01*
X684448D01*
X685448Y934072D01*
Y937071D01*
X659048Y929829D02*
X660048Y930828D01*
Y932828D01*
X659048Y933827D01*
X655050D01*
X654050Y932828D01*
Y930828D01*
X655050Y929829D01*
X657049D01*
Y931828D01*
X654050Y927829D02*
X660048D01*
X654050Y923831D01*
X660048D01*
Y921831D02*
X654050D01*
Y918832D01*
X655050Y917833D01*
X659048D01*
X660048Y918832D01*
Y921831D01*
Y910508D02*
X656049D01*
X654050Y908509D01*
X656049Y906510D01*
X660048D01*
X654050Y903511D02*
Y901511D01*
X655050Y900512D01*
X657049D01*
X658049Y901511D01*
Y903511D01*
X657049Y904510D01*
X655050D01*
X654050Y903511D01*
X629920Y940718D02*
Y935720D01*
X630920Y934720D01*
X632919D01*
X633919Y935720D01*
Y940718D01*
X635918Y934720D02*
X637917D01*
X636918D01*
Y940718D01*
X635918Y939718D01*
X637729Y970198D02*
X636729Y971198D01*
X634730D01*
X633730Y970198D01*
Y966200D01*
X634730Y965200D01*
X636729D01*
X637729Y966200D01*
X639728Y970198D02*
X640728Y971198D01*
X642727D01*
X643727Y970198D01*
Y969199D01*
X642727Y968199D01*
X643727Y967199D01*
Y966200D01*
X642727Y965200D01*
X640728D01*
X639728Y966200D01*
Y967199D01*
X640728Y968199D01*
X639728Y969199D01*
Y970198D01*
X640728Y968199D02*
X642727D01*
X652969Y970198D02*
X651969Y971198D01*
X649970D01*
X648970Y970198D01*
Y966200D01*
X649970Y965200D01*
X651969D01*
X652969Y966200D01*
X654968Y971198D02*
X658967D01*
Y970198D01*
X654968Y966200D01*
Y965200D01*
X558882Y961579D02*
X557882Y960579D01*
Y958580D01*
X558882Y957580D01*
X562880D01*
X563880Y958580D01*
Y960579D01*
X562880Y961579D01*
X557882Y967577D02*
X558882Y965577D01*
X560881Y963578D01*
X562880D01*
X563880Y964578D01*
Y966577D01*
X562880Y967577D01*
X561881D01*
X560881Y966577D01*
Y963578D01*
X525780Y920750D02*
Y926748D01*
X528779D01*
X529779Y925748D01*
Y923749D01*
X528779Y922749D01*
X525780D01*
X527779D02*
X529779Y920750D01*
X534777D02*
Y926748D01*
X531778Y923749D01*
X535777D01*
X591820Y922020D02*
Y928018D01*
X594819D01*
X595819Y927018D01*
Y925019D01*
X594819Y924019D01*
X591820D01*
X593819D02*
X595819Y922020D01*
X597818Y927018D02*
X598818Y928018D01*
X600817D01*
X601817Y927018D01*
Y926019D01*
X600817Y925019D01*
X599817D01*
X600817D01*
X601817Y924019D01*
Y923020D01*
X600817Y922020D01*
X598818D01*
X597818Y923020D01*
X510500Y965200D02*
Y971198D01*
X513499D01*
X514499Y970198D01*
Y968199D01*
X513499Y967199D01*
X510500D01*
X512500D02*
X514499Y965200D01*
X520497D02*
X516498D01*
X520497Y969199D01*
Y970198D01*
X519497Y971198D01*
X517498D01*
X516498Y970198D01*
X526860Y965200D02*
Y971198D01*
X529859D01*
X530858Y970198D01*
Y968199D01*
X529859Y967199D01*
X526860D01*
X528859D02*
X530858Y965200D01*
X532858D02*
X534857D01*
X533857D01*
Y971198D01*
X532858Y970198D01*
X580579Y923020D02*
Y927018D01*
X579579Y928018D01*
X577580D01*
X576580Y927018D01*
Y923020D01*
X577580Y922020D01*
X579579D01*
X578579Y924019D02*
X580579Y922020D01*
X579579D02*
X580579Y923020D01*
X582578Y922020D02*
X584577D01*
X583578D01*
Y928018D01*
X582578Y927018D01*
X530860Y936908D02*
Y930910D01*
X533859D01*
X534859Y931910D01*
Y935908D01*
X533859Y936908D01*
X530860D01*
X536858Y935908D02*
X537858Y936908D01*
X539857D01*
X540857Y935908D01*
Y934909D01*
X539857Y933909D01*
X538857D01*
X539857D01*
X540857Y932909D01*
Y931910D01*
X539857Y930910D01*
X537858D01*
X536858Y931910D01*
X511810Y940518D02*
Y934520D01*
X514809D01*
X515809Y935520D01*
Y939518D01*
X514809Y940518D01*
X511810D01*
X521807Y934520D02*
X517808D01*
X521807Y938519D01*
Y939518D01*
X520807Y940518D01*
X518808D01*
X517808Y939518D01*
X496570Y940718D02*
Y934720D01*
X499569D01*
X500569Y935720D01*
Y939718D01*
X499569Y940718D01*
X496570D01*
X502568Y934720D02*
X504567D01*
X503568D01*
Y940718D01*
X502568Y939718D01*
X539832Y961579D02*
X538832Y960579D01*
Y958580D01*
X539832Y957580D01*
X543830D01*
X544830Y958580D01*
Y960579D01*
X543830Y961579D01*
X538832Y967577D02*
Y963578D01*
X541831D01*
X540831Y965577D01*
Y966577D01*
X541831Y967577D01*
X543830D01*
X544830Y966577D01*
Y964578D01*
X543830Y963578D01*
X632378Y919291D02*
X633378Y920291D01*
Y922290D01*
X632378Y923290D01*
X628380D01*
X627380Y922290D01*
Y920291D01*
X628380Y919291D01*
X627380Y914293D02*
X633378D01*
X630379Y917292D01*
Y913293D01*
X632378Y905321D02*
X633378Y906321D01*
Y908320D01*
X632378Y909320D01*
X628380D01*
X627380Y908320D01*
Y906321D01*
X628380Y905321D01*
X632378Y903322D02*
X633378Y902322D01*
Y900323D01*
X632378Y899323D01*
X631379D01*
X630379Y900323D01*
Y901323D01*
Y900323D01*
X629379Y899323D01*
X628380D01*
X627380Y900323D01*
Y902322D01*
X628380Y903322D01*
X546289Y925748D02*
X545289Y926748D01*
X543290D01*
X542290Y925748D01*
Y921750D01*
X543290Y920750D01*
X545289D01*
X546289Y921750D01*
X552287Y920750D02*
X548288D01*
X552287Y924749D01*
Y925748D01*
X551287Y926748D01*
X549288D01*
X548288Y925748D01*
X498029Y970198D02*
X497029Y971198D01*
X495030D01*
X494030Y970198D01*
Y966200D01*
X495030Y965200D01*
X497029D01*
X498029Y966200D01*
X500028Y965200D02*
X502027D01*
X501028D01*
Y971198D01*
X500028Y970198D01*
D11*
X595503Y967080D02*
X615569D01*
X595503Y947237D02*
Y953903D01*
Y934060D02*
X615569D01*
D12*
X471170Y894080D02*
X707390D01*
Y974090D01*
X471170D02*
X707390D01*
X471170Y894080D02*
Y974090D01*
D13*
X622427Y926080D02*
X613963Y934544D01*
X622427D02*
X613963Y926080D01*
X622427Y930312D02*
X613963D01*
X618195Y934544D02*
Y926080D01*
D14*
X685241Y915356D02*
X686907Y917022D01*
Y920354D01*
X685241Y922020D01*
X678576D01*
X676910Y920354D01*
Y917022D01*
X678576Y915356D01*
X686907Y905359D02*
Y912023D01*
X676910D01*
Y905359D01*
X681908Y912023D02*
Y908691D01*
X701751Y955995D02*
X703417Y957662D01*
Y960994D01*
X701751Y962660D01*
X700085D01*
X698418Y960994D01*
Y957662D01*
X696752Y955995D01*
X695086D01*
X693420Y957662D01*
Y960994D01*
X695086Y962660D01*
X703417Y947665D02*
Y950997D01*
X701751Y952663D01*
X695086D01*
X693420Y950997D01*
Y947665D01*
X695086Y945999D01*
X701751D01*
X703417Y947665D01*
Y942666D02*
Y936002D01*
Y939334D01*
X693420D01*
X701751Y932670D02*
X703417Y931003D01*
Y927671D01*
X701751Y926005D01*
X700085D01*
X698418Y927671D01*
Y929337D01*
Y927671D01*
X696752Y926005D01*
X695086D01*
X693420Y927671D01*
Y931003D01*
X695086Y932670D01*
X693420Y917674D02*
X703417D01*
X698418Y922673D01*
Y916008D01*
X701751Y912676D02*
X703417Y911010D01*
Y907678D01*
X701751Y906012D01*
X700085D01*
X698418Y907678D01*
Y909344D01*
Y907678D01*
X696752Y906012D01*
X695086D01*
X693420Y907678D01*
Y911010D01*
X695086Y912676D01*
M02*
