G04*
G04 #@! TF.GenerationSoftware,Altium Limited,Altium Designer,19.1.8 (144)*
G04*
G04 Layer_Physical_Order=1*
G04 Layer_Color=255*
%FSLAX44Y44*%
%MOMM*%
G71*
G01*
G75*
%ADD12C,0.2540*%
%ADD15R,1.5000X3.0000*%
%ADD16R,0.5588X0.5080*%
%ADD17R,1.4620X0.5680*%
%ADD18R,0.8000X0.6000*%
%ADD19R,0.8000X0.9000*%
%ADD20R,0.4302X0.5032*%
%ADD21R,0.3302X0.5532*%
%ADD22R,0.5532X0.3302*%
%ADD23R,0.6000X0.8000*%
%ADD29C,1.2700*%
G36*
X701040Y974090D02*
X702310Y972820D01*
Y895350D01*
X701040Y894080D01*
X472440Y894080D01*
X471170Y895350D01*
Y895640D01*
X471290Y896860D01*
X472440Y896860D01*
X480060D01*
Y914400D01*
Y931940D01*
X472440D01*
X471170Y933160D01*
X471170Y935010D01*
X471290Y936230D01*
X472440Y936230D01*
X487185D01*
X487560Y936155D01*
X490911D01*
X494840Y932226D01*
Y921830D01*
X505920D01*
Y924285D01*
X511350D01*
Y921630D01*
X522430D01*
Y934710D01*
X511350D01*
Y932055D01*
X505920D01*
Y934910D01*
X503138D01*
X503127Y934927D01*
X495267Y942787D01*
X494521Y943285D01*
X494907Y944555D01*
X502031D01*
Y946101D01*
X509619D01*
Y945055D01*
X519001D01*
Y946226D01*
X525979D01*
Y945055D01*
X529867D01*
X541030Y933892D01*
Y929180D01*
X544887D01*
X545091Y928153D01*
X545933Y926893D01*
X555690Y917136D01*
Y909296D01*
X551561D01*
Y911959D01*
X547370D01*
X543179D01*
Y909421D01*
X535551D01*
Y911709D01*
X530860D01*
X526169D01*
Y907923D01*
Y900605D01*
X535551D01*
Y901651D01*
X543179D01*
Y900105D01*
X551561D01*
Y901526D01*
X555690D01*
Y898550D01*
X568770D01*
Y911550D01*
Y922630D01*
X561184D01*
X554110Y929704D01*
Y940260D01*
X546215D01*
X545840Y940335D01*
X545575D01*
X535360Y950549D01*
Y956991D01*
X536538Y958168D01*
X546989D01*
Y955505D01*
X551180D01*
X555371D01*
Y958281D01*
X566166D01*
Y954151D01*
X571500D01*
X577240D01*
X578007Y954469D01*
X580152Y952324D01*
Y946923D01*
X580448Y945437D01*
X581290Y944177D01*
X584510Y940956D01*
Y935690D01*
X596190D01*
Y932815D01*
X596486Y931328D01*
X597328Y930068D01*
X606735Y920661D01*
Y919008D01*
X605861Y918134D01*
X600321D01*
Y919305D01*
X591895D01*
Y923290D01*
X591599Y924777D01*
X590757Y926037D01*
X579327Y937467D01*
X579110Y937612D01*
Y940260D01*
X566030D01*
Y929180D01*
X576626D01*
X582003Y923803D01*
X581517Y922630D01*
X571690D01*
Y911550D01*
X579145D01*
X579678Y910339D01*
X579110Y909630D01*
X571690D01*
Y898550D01*
X578476D01*
X579133Y898111D01*
X580620Y897815D01*
X590399D01*
X591886Y898111D01*
X593146Y898953D01*
X596068Y901875D01*
X600321D01*
Y903046D01*
X606626D01*
X606735Y902937D01*
Y900049D01*
X625165D01*
Y900736D01*
X635077D01*
X636280Y899170D01*
X638137Y897745D01*
X640299Y896849D01*
X642620Y896543D01*
X644941Y896849D01*
X647103Y897745D01*
X648960Y899170D01*
X650385Y901027D01*
X651281Y903189D01*
X651587Y905510D01*
X651281Y907831D01*
X650385Y909993D01*
X648960Y911850D01*
X647103Y913275D01*
X644941Y914171D01*
X642620Y914477D01*
X640299Y914171D01*
X638137Y913275D01*
X636280Y911850D01*
X634855Y909993D01*
X634238Y908506D01*
X620240D01*
X619865Y908431D01*
X612229D01*
X610982Y909678D01*
X610377Y910082D01*
X610244Y911261D01*
X610313Y911599D01*
X612734Y914019D01*
X618589D01*
Y918210D01*
Y922401D01*
X615586D01*
X614788Y923596D01*
X603964Y934420D01*
X603969Y935690D01*
X604210D01*
Y946450D01*
X590004D01*
X587921Y948532D01*
Y953933D01*
X588542Y954690D01*
X604210D01*
Y965450D01*
X584510D01*
Y960613D01*
X583337Y960127D01*
X578438Y965026D01*
X577178Y965868D01*
X576834Y965936D01*
Y967359D01*
X566166D01*
Y966051D01*
X555371D01*
Y967359D01*
X546989D01*
Y965938D01*
X534929D01*
X533442Y965642D01*
X532182Y964800D01*
X529867Y962485D01*
X525979D01*
Y953996D01*
X519001D01*
Y956159D01*
X514310D01*
X509619D01*
Y953871D01*
X502031D01*
Y962985D01*
X493649D01*
Y961564D01*
X491370D01*
Y971310D01*
X472440D01*
X471883Y971845D01*
X471872Y973055D01*
X472899Y974090D01*
X701040Y974090D01*
D02*
G37*
%LPC*%
G36*
X669290Y971627D02*
X666969Y971321D01*
X664807Y970425D01*
X662950Y969000D01*
X661525Y967143D01*
X660629Y964981D01*
X660501Y964012D01*
X659384Y963549D01*
X659384Y963549D01*
X659384Y963549D01*
X648716D01*
Y962354D01*
X644144D01*
Y963549D01*
X639224D01*
X636298Y966475D01*
X635038Y967317D01*
X633551Y967613D01*
X620370D01*
X618883Y967317D01*
X617623Y966475D01*
X616598Y965450D01*
X606862D01*
Y954690D01*
Y951840D01*
X616712D01*
Y949300D01*
X606862D01*
Y945190D01*
Y935690D01*
X626562D01*
Y939388D01*
X630579Y943405D01*
X631421Y944665D01*
X631717Y946152D01*
Y954988D01*
X631421Y956475D01*
X630579Y957735D01*
X629644Y958670D01*
X630130Y959843D01*
X631942D01*
X633476Y958309D01*
Y953389D01*
Y950341D01*
X638810D01*
X644144D01*
Y954584D01*
X648716D01*
Y950341D01*
X654050D01*
X659384D01*
Y954584D01*
X662350D01*
X663836Y954880D01*
X664365Y955233D01*
X664807Y954895D01*
X666969Y953999D01*
X669290Y953693D01*
X671611Y953999D01*
X673773Y954895D01*
X675630Y956320D01*
X677055Y958177D01*
X677951Y960339D01*
X678257Y962660D01*
X677951Y964981D01*
X677055Y967143D01*
X675630Y969000D01*
X673773Y970425D01*
X671611Y971321D01*
X669290Y971627D01*
D02*
G37*
G36*
X519001Y962485D02*
X515580D01*
Y958699D01*
X519001D01*
Y962485D01*
D02*
G37*
G36*
X513040D02*
X509619D01*
Y958699D01*
X513040D01*
Y962485D01*
D02*
G37*
G36*
X555371Y952965D02*
X552450D01*
Y948929D01*
X555371D01*
Y952965D01*
D02*
G37*
G36*
X549910D02*
X546989D01*
Y948929D01*
X549910D01*
Y952965D01*
D02*
G37*
G36*
X576834Y951611D02*
X572770D01*
Y947801D01*
X576834D01*
Y951611D01*
D02*
G37*
G36*
X570230D02*
X566166D01*
Y947801D01*
X570230D01*
Y951611D01*
D02*
G37*
G36*
X659384Y947801D02*
X655320D01*
Y943991D01*
X659384D01*
Y947801D01*
D02*
G37*
G36*
X652780D02*
X648716D01*
Y943991D01*
X652780D01*
Y947801D01*
D02*
G37*
G36*
X644144D02*
X640080D01*
Y943991D01*
X644144D01*
Y947801D01*
D02*
G37*
G36*
X637540D02*
X633476D01*
Y943991D01*
X637540D01*
Y947801D01*
D02*
G37*
G36*
X670560Y949870D02*
Y942340D01*
X678090D01*
X677951Y943391D01*
X677055Y945553D01*
X675630Y947410D01*
X673773Y948835D01*
X671611Y949731D01*
X670560Y949870D01*
D02*
G37*
G36*
X668020D02*
X666969Y949731D01*
X664807Y948835D01*
X662950Y947410D01*
X661525Y945553D01*
X660629Y943391D01*
X660490Y942340D01*
X668020D01*
Y949870D01*
D02*
G37*
G36*
X678090Y939800D02*
X670560D01*
Y932271D01*
X671611Y932409D01*
X673773Y933305D01*
X675630Y934730D01*
X677055Y936587D01*
X677951Y938749D01*
X678090Y939800D01*
D02*
G37*
G36*
X668020D02*
X660490D01*
X660629Y938749D01*
X661525Y936587D01*
X662950Y934730D01*
X664807Y933305D01*
X666969Y932409D01*
X668020Y932271D01*
Y939800D01*
D02*
G37*
G36*
X643890Y934630D02*
Y927100D01*
X651420D01*
X651281Y928151D01*
X650385Y930313D01*
X648960Y932170D01*
X647103Y933595D01*
X644941Y934491D01*
X643890Y934630D01*
D02*
G37*
G36*
X641350D02*
X640299Y934491D01*
X638137Y933595D01*
X636280Y932170D01*
X634855Y930313D01*
X633959Y928151D01*
X633820Y927100D01*
X641350D01*
Y934630D01*
D02*
G37*
G36*
X625165Y922401D02*
X621129D01*
Y919480D01*
X625165D01*
Y922401D01*
D02*
G37*
G36*
X651420Y924560D02*
X643890D01*
Y917030D01*
X644941Y917169D01*
X647103Y918065D01*
X648960Y919490D01*
X650385Y921347D01*
X651281Y923509D01*
X651420Y924560D01*
D02*
G37*
G36*
X641350D02*
X633820D01*
X633959Y923509D01*
X634855Y921347D01*
X636280Y919490D01*
X638137Y918065D01*
X640299Y917169D01*
X641350Y917030D01*
Y924560D01*
D02*
G37*
G36*
X491370Y931940D02*
X482600D01*
Y915670D01*
X491370D01*
Y931940D01*
D02*
G37*
G36*
X551561Y918535D02*
X548640D01*
Y914499D01*
X551561D01*
Y918535D01*
D02*
G37*
G36*
X546100D02*
X543179D01*
Y914499D01*
X546100D01*
Y918535D01*
D02*
G37*
G36*
X535551Y918035D02*
X532130D01*
Y914249D01*
X535551D01*
Y918035D01*
D02*
G37*
G36*
X529590D02*
X526169D01*
Y914249D01*
X529590D01*
Y918035D01*
D02*
G37*
G36*
X625165Y916940D02*
X621129D01*
Y914019D01*
X625165D01*
Y916940D01*
D02*
G37*
G36*
X505920Y909910D02*
X501650D01*
Y904640D01*
X505920D01*
Y909910D01*
D02*
G37*
G36*
X499110D02*
X494840D01*
Y904640D01*
X499110D01*
Y909910D01*
D02*
G37*
G36*
X522430Y909710D02*
X518160D01*
Y904440D01*
X522430D01*
Y909710D01*
D02*
G37*
G36*
X515620D02*
X511350D01*
Y904440D01*
X515620D01*
Y909710D01*
D02*
G37*
G36*
X491370Y913130D02*
X482600D01*
Y896860D01*
X491370D01*
Y913130D01*
D02*
G37*
G36*
X505920Y902100D02*
X501650D01*
Y896830D01*
X505920D01*
Y902100D01*
D02*
G37*
G36*
X499110D02*
X494840D01*
Y896830D01*
X499110D01*
Y902100D01*
D02*
G37*
G36*
X522430Y901900D02*
X518160D01*
Y896630D01*
X522430D01*
Y901900D01*
D02*
G37*
G36*
X515620D02*
X511350D01*
Y896630D01*
X515620D01*
Y901900D01*
D02*
G37*
%LPD*%
D12*
X666541Y962660D02*
X669290D01*
X662350Y958469D02*
X666541Y962660D01*
X654050Y958469D02*
X662350D01*
X669290Y958850D02*
Y962660D01*
X669100Y958660D02*
X669290Y958850D01*
X590399Y901700D02*
X595630Y906931D01*
X580620Y901700D02*
X590399D01*
X578230Y904090D02*
X580620Y901700D01*
X588010Y912870D02*
Y923290D01*
X579230Y904090D02*
X588010Y912870D01*
X576580Y934720D02*
X588010Y923290D01*
X572570Y934720D02*
X576580D01*
X500380Y928370D02*
Y932180D01*
X492520Y940040D02*
X500380Y932180D01*
X487560Y940040D02*
X492520D01*
X530860Y905661D02*
X530985Y905536D01*
X547245D01*
X547370Y905411D01*
X562051D01*
X562230Y905590D01*
X616712Y960070D02*
X620370Y963728D01*
X633551D01*
X530670Y957429D02*
Y957794D01*
X534929Y962053D01*
X551180D01*
X551293Y962166D01*
X571387D01*
X571500Y962279D01*
X584037Y946923D02*
Y953933D01*
X575691Y962279D02*
X584037Y953933D01*
X571500Y962279D02*
X575691D01*
X584037Y946923D02*
X589890Y941070D01*
X594360D01*
X600075Y932815D02*
Y939500D01*
X598505Y941070D02*
X600075Y939500D01*
X594360Y941070D02*
X598505D01*
X611431Y918210D02*
X612041D01*
X607470Y914249D02*
X611431Y918210D01*
X595630Y914249D02*
X607470D01*
X600075Y932815D02*
X612041Y920849D01*
Y918210D02*
Y920849D01*
X641731Y904621D02*
X642620Y905510D01*
X620240Y904621D02*
X641731D01*
X619859Y904240D02*
X620240Y904621D01*
X610926Y904240D02*
X612041D01*
X608235Y906931D02*
X610926Y904240D01*
X595630Y906931D02*
X608235D01*
X638810Y958469D02*
X654050D01*
X622750Y941070D02*
X627832Y946152D01*
X616712Y941070D02*
X622750D01*
X627832Y946152D02*
Y954988D01*
X616712Y960070D02*
X618282Y958500D01*
X624320D01*
X627832Y954988D01*
X633551Y963728D02*
X638810Y958469D01*
X578230Y904090D02*
X579230D01*
X481330Y946270D02*
Y953770D01*
Y946270D02*
X487560Y940040D01*
X500380Y928370D02*
X500580Y928170D01*
X516890D01*
X548680Y929640D02*
Y933610D01*
X547570Y934720D02*
X548680Y933610D01*
Y929640D02*
X561230Y917090D01*
X562230D01*
X545840Y936450D02*
X547570Y934720D01*
X543965Y936450D02*
X545840D01*
X530670Y949746D02*
X543965Y936450D01*
X530670Y949746D02*
Y950111D01*
X514310D02*
X530670D01*
X514185Y949986D02*
X514310Y950111D01*
X497965Y949986D02*
X514185D01*
X497840Y949861D02*
X497965Y949986D01*
X485239Y957679D02*
X497840D01*
X481330Y953770D02*
X485239Y957679D01*
D15*
X481330Y914400D02*
D03*
Y953770D02*
D03*
D16*
X571500Y952881D02*
D03*
Y962279D02*
D03*
X654050Y949071D02*
D03*
Y958469D02*
D03*
X638810Y949071D02*
D03*
Y958469D02*
D03*
D17*
X616712Y941070D02*
D03*
Y950570D02*
D03*
Y960070D02*
D03*
X594360D02*
D03*
Y941070D02*
D03*
D18*
X578230Y904090D02*
D03*
Y917090D02*
D03*
X562230D02*
D03*
X572570Y934720D02*
D03*
X547570D02*
D03*
D19*
X562230Y905590D02*
D03*
D20*
X530860Y912979D02*
D03*
Y905661D02*
D03*
X595630Y906931D02*
D03*
Y914249D02*
D03*
X514310Y957429D02*
D03*
Y950111D02*
D03*
X530670D02*
D03*
Y957429D02*
D03*
D21*
X551180Y962053D02*
D03*
Y954235D02*
D03*
X547370Y913229D02*
D03*
Y905411D02*
D03*
X497840Y957679D02*
D03*
Y949861D02*
D03*
D22*
X612041Y918210D02*
D03*
X619859D02*
D03*
X612041Y904240D02*
D03*
X619859D02*
D03*
D23*
X516890Y903170D02*
D03*
Y928170D02*
D03*
X500380Y928370D02*
D03*
Y903370D02*
D03*
D29*
X669290Y962660D02*
D03*
Y941070D02*
D03*
X642620Y925830D02*
D03*
Y905510D02*
D03*
M02*
