G04*
G04 #@! TF.GenerationSoftware,Altium Limited,Altium Designer,19.1.8 (144)*
G04*
G04 Layer_Color=8421504*
%FSLAX44Y44*%
%MOMM*%
G71*
G01*
G75*
%ADD15R,1.5000X3.0000*%
%ADD16R,0.5588X0.5080*%
%ADD17R,1.4620X0.5680*%
%ADD18R,0.8000X0.6000*%
%ADD19R,0.8000X0.9000*%
%ADD20R,0.4302X0.5032*%
%ADD21R,0.3302X0.5532*%
%ADD22R,0.5532X0.3302*%
%ADD23R,0.6000X0.8000*%
D15*
X481330Y914400D02*
D03*
Y953770D02*
D03*
D16*
X571500Y952881D02*
D03*
Y962279D02*
D03*
X654050Y949071D02*
D03*
Y958469D02*
D03*
X638810Y949071D02*
D03*
Y958469D02*
D03*
D17*
X616712Y941070D02*
D03*
Y950570D02*
D03*
Y960070D02*
D03*
X594360D02*
D03*
Y941070D02*
D03*
D18*
X578230Y904090D02*
D03*
Y917090D02*
D03*
X562230D02*
D03*
X572570Y934720D02*
D03*
X547570D02*
D03*
D19*
X562230Y905590D02*
D03*
D20*
X530860Y912979D02*
D03*
Y905661D02*
D03*
X595630Y906931D02*
D03*
Y914249D02*
D03*
X514310Y957429D02*
D03*
Y950111D02*
D03*
X530670D02*
D03*
Y957429D02*
D03*
D21*
X551180Y962053D02*
D03*
Y954235D02*
D03*
X547370Y913229D02*
D03*
Y905411D02*
D03*
X497840Y957679D02*
D03*
Y949861D02*
D03*
D22*
X612041Y918210D02*
D03*
X619859D02*
D03*
X612041Y904240D02*
D03*
X619859D02*
D03*
D23*
X516890Y903170D02*
D03*
Y928170D02*
D03*
X500380Y928370D02*
D03*
Y903370D02*
D03*
M02*
