G04*
G04 #@! TF.GenerationSoftware,Altium Limited,Altium Designer,19.1.8 (144)*
G04*
G04 Layer_Color=65535*
%FSLAX44Y44*%
%MOMM*%
G71*
G01*
G75*
%ADD10C,0.1000*%
%ADD11C,0.2540*%
%ADD12C,0.1524*%
%ADD13C,0.0762*%
%ADD14C,0.1500*%
D10*
X951611Y864435D02*
G03*
X951611Y864435I-500J0D01*
G01*
X982329Y828675D02*
G03*
X982329Y828675I-500J0D01*
G01*
X1035550Y875784D02*
G03*
X1035550Y875784I-500J0D01*
G01*
X1145188Y897173D02*
X1141189D01*
X1139190Y895174D01*
X1141189Y893175D01*
X1145188D01*
Y891175D02*
X1139190D01*
Y888176D01*
X1140190Y887177D01*
X1141189D01*
X1142189D01*
X1143189Y888176D01*
Y891175D01*
X1144188Y875219D02*
X1145188Y876218D01*
Y878218D01*
X1144188Y879217D01*
X1140190D01*
X1139190Y878218D01*
Y876218D01*
X1140190Y875219D01*
X1142189D01*
Y877218D01*
X1139190Y873219D02*
X1145188D01*
X1139190Y869221D01*
X1145188D01*
Y867221D02*
X1139190D01*
Y864222D01*
X1140190Y863223D01*
X1144188D01*
X1145188Y864222D01*
Y867221D01*
X1116248Y861249D02*
X1117248Y862248D01*
Y864248D01*
X1116248Y865247D01*
X1112250D01*
X1111250Y864248D01*
Y862248D01*
X1112250Y861249D01*
X1114249D01*
Y863248D01*
X1111250Y859249D02*
X1117248D01*
X1111250Y855251D01*
X1117248D01*
Y853251D02*
X1111250D01*
Y850252D01*
X1112250Y849253D01*
X1116248D01*
X1117248Y850252D01*
Y853251D01*
Y841293D02*
X1113249D01*
X1111250Y839294D01*
X1113249Y837295D01*
X1117248D01*
X1111250Y834296D02*
Y832296D01*
X1112250Y831297D01*
X1114249D01*
X1115249Y832296D01*
Y834296D01*
X1114249Y835295D01*
X1112250D01*
X1111250Y834296D01*
X955864Y900983D02*
X954864Y901983D01*
X952865D01*
X951865Y900983D01*
Y896985D01*
X952865Y895985D01*
X954864D01*
X955864Y896985D01*
X957863Y895985D02*
X959862D01*
X958863D01*
Y901983D01*
X957863Y900983D01*
X1004124Y856533D02*
X1003124Y857533D01*
X1001125D01*
X1000125Y856533D01*
Y852535D01*
X1001125Y851535D01*
X1003124D01*
X1004124Y852535D01*
X1010122Y851535D02*
X1006123D01*
X1010122Y855534D01*
Y856533D01*
X1009122Y857533D01*
X1007123D01*
X1006123Y856533D01*
X1090213Y836106D02*
X1091213Y837106D01*
Y839105D01*
X1090213Y840105D01*
X1086215D01*
X1085215Y839105D01*
Y837106D01*
X1086215Y836106D01*
X1090213Y834107D02*
X1091213Y833107D01*
Y831108D01*
X1090213Y830108D01*
X1089214D01*
X1088214Y831108D01*
Y832108D01*
Y831108D01*
X1087214Y830108D01*
X1086215D01*
X1085215Y831108D01*
Y833107D01*
X1086215Y834107D01*
X1090213Y850076D02*
X1091213Y851076D01*
Y853075D01*
X1090213Y854075D01*
X1086215D01*
X1085215Y853075D01*
Y851076D01*
X1086215Y850076D01*
X1085215Y845078D02*
X1091213D01*
X1088214Y848077D01*
Y844078D01*
X997667Y892364D02*
X996667Y891364D01*
Y889365D01*
X997667Y888365D01*
X1001665D01*
X1002665Y889365D01*
Y891364D01*
X1001665Y892364D01*
X996667Y898362D02*
Y894363D01*
X999666D01*
X998666Y896362D01*
Y897362D01*
X999666Y898362D01*
X1001665D01*
X1002665Y897362D01*
Y895363D01*
X1001665Y894363D01*
X954405Y871503D02*
Y865505D01*
X957404D01*
X958404Y866505D01*
Y870503D01*
X957404Y871503D01*
X954405D01*
X960403Y865505D02*
X962402D01*
X961403D01*
Y871503D01*
X960403Y870503D01*
X969645Y871303D02*
Y865305D01*
X972644D01*
X973644Y866305D01*
Y870303D01*
X972644Y871303D01*
X969645D01*
X979642Y865305D02*
X975643D01*
X979642Y869304D01*
Y870303D01*
X978642Y871303D01*
X976643D01*
X975643Y870303D01*
X988060Y870868D02*
Y864870D01*
X991059D01*
X992059Y865870D01*
Y869868D01*
X991059Y870868D01*
X988060D01*
X994058Y869868D02*
X995058Y870868D01*
X997057D01*
X998057Y869868D01*
Y868869D01*
X997057Y867869D01*
X996057D01*
X997057D01*
X998057Y866869D01*
Y865870D01*
X997057Y864870D01*
X995058D01*
X994058Y865870D01*
X1028889Y835390D02*
Y839388D01*
X1027889Y840388D01*
X1025890D01*
X1024890Y839388D01*
Y835390D01*
X1025890Y834390D01*
X1027889D01*
X1026889Y836389D02*
X1028889Y834390D01*
X1027889D02*
X1028889Y835390D01*
X1030888Y834390D02*
X1032887D01*
X1031888D01*
Y840388D01*
X1030888Y839388D01*
X984695Y895985D02*
Y901983D01*
X987693D01*
X988693Y900983D01*
Y898984D01*
X987693Y897984D01*
X984695D01*
X986694D02*
X988693Y895985D01*
X990693D02*
X992692D01*
X991692D01*
Y901983D01*
X990693Y900983D01*
X968335Y895985D02*
Y901983D01*
X971334D01*
X972334Y900983D01*
Y898984D01*
X971334Y897984D01*
X968335D01*
X970335D02*
X972334Y895985D01*
X978332D02*
X974333D01*
X978332Y899984D01*
Y900983D01*
X977332Y901983D01*
X975333D01*
X974333Y900983D01*
X1049655Y852805D02*
Y858803D01*
X1052654D01*
X1053654Y857803D01*
Y855804D01*
X1052654Y854804D01*
X1049655D01*
X1051654D02*
X1053654Y852805D01*
X1055653Y857803D02*
X1056653Y858803D01*
X1058652D01*
X1059652Y857803D01*
Y856804D01*
X1058652Y855804D01*
X1057652D01*
X1058652D01*
X1059652Y854804D01*
Y853805D01*
X1058652Y852805D01*
X1056653D01*
X1055653Y853805D01*
X983615Y851535D02*
Y857533D01*
X986614D01*
X987614Y856533D01*
Y854534D01*
X986614Y853534D01*
X983615D01*
X985614D02*
X987614Y851535D01*
X992612D02*
Y857533D01*
X989613Y854534D01*
X993612D01*
X1016717Y892364D02*
X1015717Y891364D01*
Y889365D01*
X1016717Y888365D01*
X1020715D01*
X1021715Y889365D01*
Y891364D01*
X1020715Y892364D01*
X1015717Y898362D02*
X1016717Y896362D01*
X1018716Y894363D01*
X1020715D01*
X1021715Y895363D01*
Y897362D01*
X1020715Y898362D01*
X1019716D01*
X1018716Y897362D01*
Y894363D01*
X1110804Y900983D02*
X1109804Y901983D01*
X1107805D01*
X1106805Y900983D01*
Y896985D01*
X1107805Y895985D01*
X1109804D01*
X1110804Y896985D01*
X1112803Y901983D02*
X1116802D01*
Y900983D01*
X1112803Y896985D01*
Y895985D01*
X1095564Y900983D02*
X1094564Y901983D01*
X1092565D01*
X1091565Y900983D01*
Y896985D01*
X1092565Y895985D01*
X1094564D01*
X1095564Y896985D01*
X1097563Y900983D02*
X1098563Y901983D01*
X1100562D01*
X1101562Y900983D01*
Y899984D01*
X1100562Y898984D01*
X1101562Y897984D01*
Y896985D01*
X1100562Y895985D01*
X1098563D01*
X1097563Y896985D01*
Y897984D01*
X1098563Y898984D01*
X1097563Y899984D01*
Y900983D01*
X1098563Y898984D02*
X1100562D01*
X1085850Y870868D02*
Y865870D01*
X1086850Y864870D01*
X1088849D01*
X1089849Y865870D01*
Y870868D01*
X1091848Y864870D02*
X1093847D01*
X1092848D01*
Y870868D01*
X1091848Y869868D01*
D11*
X1017683Y845130D02*
G03*
X1017683Y845130I-353J0D01*
G01*
X929005Y824865D02*
Y904875D01*
X1167130D01*
Y824865D02*
Y904875D01*
X929005Y824865D02*
X1167130D01*
D12*
X1053338Y864845D02*
X1073404D01*
X1053338Y878022D02*
Y884688D01*
Y897865D02*
X1073404D01*
D13*
X1080262Y856865D02*
X1071798Y865329D01*
X1080262D02*
X1071798Y856865D01*
X1080262Y861097D02*
X1071798D01*
X1076030Y865329D02*
Y856865D01*
D14*
X1161887Y901700D02*
Y895035D01*
Y898368D01*
X1151890D01*
X1160221Y885039D02*
X1161887Y886705D01*
Y890037D01*
X1160221Y891703D01*
X1158555D01*
X1156888Y890037D01*
Y886705D01*
X1155222Y885039D01*
X1153556D01*
X1151890Y886705D01*
Y890037D01*
X1153556Y891703D01*
X1161887Y875042D02*
Y881706D01*
X1156888D01*
Y878374D01*
Y881706D01*
X1151890D01*
Y871710D02*
X1161887D01*
Y866711D01*
X1160221Y865045D01*
X1156888D01*
X1155222Y866711D01*
Y871710D01*
X1156888Y861713D02*
Y855048D01*
X1151890Y846718D02*
X1161887D01*
X1156888Y851716D01*
Y845052D01*
Y841719D02*
Y835055D01*
X1151890Y831722D02*
Y828390D01*
Y830056D01*
X1161887D01*
X1160221Y831722D01*
X1143711Y839156D02*
X1145377Y840822D01*
Y844154D01*
X1143711Y845820D01*
X1137046D01*
X1135380Y844154D01*
Y840822D01*
X1137046Y839156D01*
X1145377Y829159D02*
Y835823D01*
X1135380D01*
Y829159D01*
X1140378Y835823D02*
Y832491D01*
M02*
