G04*
G04 #@! TF.GenerationSoftware,Altium Limited,Altium Designer,19.1.8 (144)*
G04*
G04 Layer_Color=255*
%FSLAX44Y44*%
%MOMM*%
G71*
G01*
G75*
%ADD15R,1.5000X3.0000*%
%ADD16R,0.6000X0.8000*%
%ADD17R,0.3500X0.4500*%
%ADD18R,0.3302X0.5532*%
%ADD19R,0.5532X0.3302*%
%ADD20R,0.8000X0.6000*%
%ADD21R,0.4302X0.5032*%
%ADD22R,0.5588X0.5080*%
%ADD23R,1.4620X0.5680*%
D15*
X939165Y845185D02*
D03*
Y884555D02*
D03*
D16*
X958215Y859155D02*
D03*
Y834155D02*
D03*
X974725Y833955D02*
D03*
Y858955D02*
D03*
D17*
X1023700Y854130D02*
D03*
X1033700D02*
D03*
Y845130D02*
D03*
X1023700D02*
D03*
D18*
X955675Y880646D02*
D03*
Y888464D02*
D03*
X1005205Y836196D02*
D03*
Y844014D02*
D03*
X1009015Y885020D02*
D03*
Y892838D02*
D03*
D19*
X1077694Y835025D02*
D03*
X1069876D02*
D03*
X1077694Y848995D02*
D03*
X1069876D02*
D03*
D20*
X1004770Y868680D02*
D03*
X1029770D02*
D03*
D21*
X988504Y888214D02*
D03*
Y880896D02*
D03*
X972145D02*
D03*
Y888214D02*
D03*
X1053465Y845034D02*
D03*
Y837716D02*
D03*
X988695Y836446D02*
D03*
Y843764D02*
D03*
D22*
X1029335Y893064D02*
D03*
Y883666D02*
D03*
X1111885Y889254D02*
D03*
Y879856D02*
D03*
X1096645Y889254D02*
D03*
Y879856D02*
D03*
D23*
X1052195Y871855D02*
D03*
Y890855D02*
D03*
X1074547D02*
D03*
Y881355D02*
D03*
Y871855D02*
D03*
M02*
