G04*
G04 #@! TF.GenerationSoftware,Altium Limited,Altium Designer,19.1.8 (144)*
G04*
G04 Layer_Color=15987699*
%FSLAX44Y44*%
%MOMM*%
G71*
G01*
G75*
%ADD10C,0.1000*%
%ADD35C,0.1500*%
D10*
X641350Y782238D02*
Y777240D01*
X638851D01*
X638018Y778073D01*
Y781405D01*
X638851Y782238D01*
X641350D01*
X633853Y777240D02*
X635519D01*
X636352Y778073D01*
Y779739D01*
X635519Y780572D01*
X633853D01*
X633019Y779739D01*
Y778906D01*
X636352D01*
X631353Y777240D02*
X628854D01*
X628021Y778073D01*
X628854Y778906D01*
X630520D01*
X631353Y779739D01*
X630520Y780572D01*
X628021D01*
X626355Y777240D02*
X624689D01*
X625522D01*
Y780572D01*
X626355D01*
X620523Y775574D02*
X619690D01*
X618857Y776407D01*
Y780572D01*
X621357D01*
X622190Y779739D01*
Y778073D01*
X621357Y777240D01*
X618857D01*
X617191D02*
Y780572D01*
X614692D01*
X613859Y779739D01*
Y777240D01*
X609694D02*
X611360D01*
X612193Y778073D01*
Y779739D01*
X611360Y780572D01*
X609694D01*
X608861Y779739D01*
Y778906D01*
X612193D01*
X603862Y782238D02*
Y777240D01*
X606361D01*
X607195Y778073D01*
Y779739D01*
X606361Y780572D01*
X603862D01*
X597198Y782238D02*
Y777240D01*
X594699D01*
X593866Y778073D01*
Y778906D01*
Y779739D01*
X594699Y780572D01*
X597198D01*
X592199D02*
Y778073D01*
X591366Y777240D01*
X588867D01*
Y776407D01*
X589700Y775574D01*
X590533D01*
X588867Y777240D02*
Y780572D01*
X582203Y782238D02*
Y777240D01*
X579703D01*
X578870Y778073D01*
Y778906D01*
X579703Y779739D01*
X582203D01*
X579703D01*
X578870Y780572D01*
Y781405D01*
X579703Y782238D01*
X582203D01*
X577204Y777240D02*
X575538D01*
X576371D01*
Y780572D01*
X577204D01*
X573039Y777240D02*
Y780572D01*
X572206D01*
X571373Y779739D01*
Y777240D01*
Y779739D01*
X570540Y780572D01*
X569707Y779739D01*
Y777240D01*
X568041Y782238D02*
Y777240D01*
X565541D01*
X564708Y778073D01*
Y778906D01*
Y779739D01*
X565541Y780572D01*
X568041D01*
X563042Y777240D02*
X561376D01*
X562209D01*
Y780572D01*
X563042D01*
X558877Y777240D02*
Y780572D01*
X558044D01*
X557211Y779739D01*
Y777240D01*
Y779739D01*
X556378Y780572D01*
X555545Y779739D01*
Y777240D01*
D35*
X635956Y846531D02*
X637622Y848197D01*
X640954D01*
X642620Y846531D01*
Y844865D01*
X640954Y843198D01*
X637622D01*
X635956Y841532D01*
Y839866D01*
X637622Y838200D01*
X640954D01*
X642620Y839866D01*
X627625Y848197D02*
X630957D01*
X632623Y846531D01*
Y839866D01*
X630957Y838200D01*
X627625D01*
X625959Y839866D01*
Y846531D01*
X627625Y848197D01*
X622626D02*
X615962D01*
X619294D01*
Y838200D01*
X612630Y843198D02*
X605965D01*
X602633Y846531D02*
X600967Y848197D01*
X597635D01*
X595968Y846531D01*
Y844865D01*
X597635Y843198D01*
X599301D01*
X597635D01*
X595968Y841532D01*
Y839866D01*
X597635Y838200D01*
X600967D01*
X602633Y839866D01*
X587638Y838200D02*
Y848197D01*
X592636Y843198D01*
X585972D01*
X582639Y846531D02*
X580973Y848197D01*
X577641D01*
X575975Y846531D01*
Y844865D01*
X577641Y843198D01*
X579307D01*
X577641D01*
X575975Y841532D01*
Y839866D01*
X577641Y838200D01*
X580973D01*
X582639Y839866D01*
X634686Y804621D02*
X636352Y806287D01*
X639684D01*
X641350Y804621D01*
Y797956D01*
X639684Y796290D01*
X636352D01*
X634686Y797956D01*
X629687Y802954D02*
X626355D01*
X624689Y801288D01*
Y796290D01*
X629687D01*
X631353Y797956D01*
X629687Y799622D01*
X624689D01*
X621356Y796290D02*
X616358D01*
X614692Y797956D01*
X616358Y799622D01*
X619690D01*
X621356Y801288D01*
X619690Y802954D01*
X614692D01*
X604695D02*
X609693D01*
X611360Y801288D01*
Y797956D01*
X609693Y796290D01*
X604695D01*
X599697Y802954D02*
X596365D01*
X594698Y801288D01*
Y796290D01*
X599697D01*
X601363Y797956D01*
X599697Y799622D01*
X594698D01*
X584702Y806287D02*
Y796290D01*
X589700D01*
X591366Y797956D01*
Y801288D01*
X589700Y802954D01*
X584702D01*
X576371Y796290D02*
X579703D01*
X581369Y797956D01*
Y801288D01*
X579703Y802954D01*
X576371D01*
X574705Y801288D01*
Y799622D01*
X581369D01*
X564708Y806287D02*
Y796290D01*
X569706D01*
X571372Y797956D01*
Y801288D01*
X569706Y802954D01*
X564708D01*
X634686Y816610D02*
X641350D01*
X634686Y823275D01*
Y824941D01*
X636352Y826607D01*
X639684D01*
X641350Y824941D01*
X614692D02*
X616358Y826607D01*
X619690D01*
X621356Y824941D01*
Y823275D01*
X619690Y821608D01*
X616358D01*
X614692Y819942D01*
Y818276D01*
X616358Y816610D01*
X619690D01*
X621356Y818276D01*
X609693Y824941D02*
Y823275D01*
X611360D01*
X608027D01*
X609693D01*
Y818276D01*
X608027Y816610D01*
X601363Y823275D02*
X598031D01*
X596365Y821608D01*
Y816610D01*
X601363D01*
X603029Y818276D01*
X601363Y819942D01*
X596365D01*
X589700Y813278D02*
X588034D01*
X586368Y814944D01*
Y823275D01*
X591366D01*
X593032Y821608D01*
Y818276D01*
X591366Y816610D01*
X586368D01*
X578037D02*
X581369D01*
X583036Y818276D01*
Y821608D01*
X581369Y823275D01*
X578037D01*
X576371Y821608D01*
Y819942D01*
X583036D01*
X556377Y824941D02*
X558044Y826607D01*
X561376D01*
X563042Y824941D01*
Y818276D01*
X561376Y816610D01*
X558044D01*
X556377Y818276D01*
X546381Y826607D02*
X553045D01*
Y816610D01*
X546381D01*
X553045Y821608D02*
X549713D01*
M02*
