G04*
G04 #@! TF.GenerationSoftware,Altium Limited,Altium Designer,19.1.8 (144)*
G04*
G04 Layer_Physical_Order=1*
G04 Layer_Color=255*
%FSLAX44Y44*%
%MOMM*%
G71*
G01*
G75*
%ADD11C,0.2540*%
%ADD13R,0.9144X0.9398*%
%ADD14R,0.5032X0.4302*%
%ADD15R,0.8000X0.6000*%
%ADD16R,0.8000X0.9000*%
%ADD17R,0.9398X0.9144*%
%ADD18R,0.4302X0.5032*%
G04:AMPARAMS|DCode=19|XSize=0.5032mm|YSize=0.4302mm|CornerRadius=0mm|HoleSize=0mm|Usage=FLASHONLY|Rotation=220.000|XOffset=0mm|YOffset=0mm|HoleType=Round|Shape=Rectangle|*
%AMROTATEDRECTD19*
4,1,4,0.0545,0.3265,0.3310,-0.0031,-0.0545,-0.3265,-0.3310,0.0031,0.0545,0.3265,0.0*
%
%ADD19ROTATEDRECTD19*%

%ADD20R,1.1120X1.8034*%
%ADD21R,4.5000X1.1000*%
%ADD22R,0.6000X0.8000*%
%ADD23R,0.9000X0.8000*%
%ADD32C,0.6400*%
%ADD33C,1.2700*%
%ADD34C,0.6500*%
G36*
X488470Y839343D02*
X496283D01*
X501362Y834265D01*
X502622Y833423D01*
X504109Y833127D01*
X514529D01*
Y822024D01*
X514529D01*
X515220Y821190D01*
Y819563D01*
X514315Y818672D01*
X508121Y818765D01*
X507696Y819962D01*
X509965Y821866D01*
X507766Y824486D01*
X503893Y821236D01*
X503077Y822209D01*
X502104Y821393D01*
X499088Y824986D01*
X498328Y824349D01*
X491963Y819008D01*
X487553Y819074D01*
Y823849D01*
X483783D01*
X483351Y825119D01*
X483860Y825510D01*
X485285Y827367D01*
X486181Y829529D01*
X486320Y830580D01*
X468721D01*
X468859Y829529D01*
X469755Y827367D01*
X471180Y825510D01*
X471850Y824995D01*
X471258Y823849D01*
X468039D01*
X466979Y824357D01*
Y830199D01*
X459740D01*
X452501D01*
Y827340D01*
X446144D01*
X443220Y830264D01*
Y833752D01*
X446573Y837105D01*
X450461D01*
Y845483D01*
X452501D01*
Y840359D01*
X466979D01*
Y846888D01*
X471455D01*
X473037Y845675D01*
X475199Y844779D01*
X477520Y844473D01*
X479841Y844779D01*
X482003Y845675D01*
X483860Y847100D01*
X485285Y848957D01*
X485533Y849555D01*
X488470D01*
Y839343D01*
D02*
G37*
G36*
X629920Y861060D02*
Y855130D01*
X607060D01*
Y847090D01*
Y839050D01*
X629920D01*
Y828930D01*
X580750D01*
Y818654D01*
X570705Y808609D01*
X560959D01*
Y794131D01*
X575183D01*
Y802099D01*
X585934Y812850D01*
X629920D01*
Y802730D01*
X607060D01*
Y794690D01*
Y786650D01*
X629920D01*
Y777240D01*
X624840Y772160D01*
X339090Y772160D01*
X334010Y777240D01*
Y784910D01*
X356870D01*
Y792950D01*
Y800990D01*
X334010D01*
Y811110D01*
X361995D01*
X362370Y811035D01*
X386961D01*
X389430Y808566D01*
Y800980D01*
X400510D01*
Y803635D01*
X404670D01*
Y800980D01*
X415750D01*
Y805050D01*
X417020Y805576D01*
X420543Y802053D01*
X421803Y801211D01*
X423290Y800915D01*
X428650D01*
Y798260D01*
X439547D01*
Y785241D01*
X446245D01*
X453183Y778303D01*
X453565Y778048D01*
Y776359D01*
X464669D01*
Y781050D01*
X465939D01*
Y782320D01*
X470995D01*
Y785741D01*
X469824D01*
Y789202D01*
X469773Y789457D01*
Y791210D01*
X462661D01*
X455549D01*
Y789390D01*
X454279Y788763D01*
X453771Y789153D01*
Y799719D01*
X452730D01*
Y811340D01*
X428650D01*
Y808685D01*
X424899D01*
X422985Y810599D01*
Y816610D01*
X422689Y818097D01*
X421847Y819357D01*
X413624Y827580D01*
X414150Y828850D01*
X418220D01*
Y839930D01*
X409364D01*
X408165Y841129D01*
X408691Y842399D01*
X412750D01*
Y847090D01*
X414020D01*
Y848360D01*
X419076D01*
Y852095D01*
X428585D01*
X429184Y850975D01*
X428933Y850600D01*
X428740Y849630D01*
X434340D01*
Y848360D01*
X435610D01*
Y842760D01*
X436580Y842953D01*
X438478Y844222D01*
X439747Y846120D01*
X439809Y846432D01*
X441079Y846307D01*
Y842599D01*
X438410Y839930D01*
X430140D01*
Y828850D01*
X433337D01*
X433471Y828610D01*
X432726Y827340D01*
X428650D01*
Y814260D01*
X439730D01*
Y820714D01*
X440942Y821248D01*
X441650Y820680D01*
Y814260D01*
X448595D01*
X448992Y813863D01*
X450252Y813021D01*
X451739Y812725D01*
X457327D01*
Y809371D01*
X471551D01*
Y823002D01*
X472769Y823750D01*
X473329Y823412D01*
Y809371D01*
X472626Y808392D01*
X472112Y808048D01*
X470843Y806150D01*
X470650Y805180D01*
X481850D01*
X481657Y806150D01*
X480388Y808048D01*
X480309Y808101D01*
X480695Y809371D01*
X487553D01*
Y810399D01*
X488458Y811290D01*
X496183Y811174D01*
X496613Y810662D01*
X497205Y811159D01*
X515220Y810888D01*
Y810110D01*
X521806D01*
X523165Y808751D01*
Y808059D01*
X517743Y802637D01*
X516901Y801377D01*
X516800Y800870D01*
X513950D01*
Y798417D01*
X513124Y797489D01*
X509491D01*
X508759Y798585D01*
X501647Y805697D01*
X501416Y805851D01*
Y807641D01*
X490312D01*
Y802950D01*
X489042D01*
Y801680D01*
X483986D01*
Y798759D01*
X483986Y798259D01*
X483035Y797489D01*
X482898D01*
Y791520D01*
X497122D01*
Y797126D01*
X498240Y797855D01*
X498900Y797323D01*
Y783011D01*
X507757D01*
X509297Y781471D01*
X510557Y780629D01*
X512044Y780333D01*
X513950D01*
Y776790D01*
X527030D01*
Y789790D01*
Y800870D01*
X527030Y800870D01*
X527030D01*
X527842Y801748D01*
X529797Y803703D01*
X530639Y804963D01*
X530935Y806450D01*
Y810360D01*
X530639Y811847D01*
X529797Y813107D01*
X528300Y814604D01*
Y821190D01*
X525645D01*
Y824175D01*
X525349Y825662D01*
X524507Y826922D01*
X523911Y827518D01*
Y831395D01*
X525181Y831921D01*
X527015Y830087D01*
Y826199D01*
X538951D01*
X542690Y822460D01*
X542429Y821190D01*
X540220D01*
Y810110D01*
X546704D01*
Y808609D01*
X544957D01*
Y794131D01*
X546704D01*
Y790958D01*
X544112Y788366D01*
X543030Y787870D01*
Y787870D01*
X543030Y787870D01*
X529950D01*
Y776790D01*
X543030D01*
Y778445D01*
X543570D01*
X545057Y778741D01*
X546317Y779583D01*
X553336Y786602D01*
X554178Y787862D01*
X554474Y789349D01*
Y794131D01*
X559181D01*
Y808609D01*
X554474D01*
Y811821D01*
X554178Y813308D01*
X553336Y814568D01*
X553300Y814604D01*
Y821190D01*
X550645D01*
Y823884D01*
X550349Y825371D01*
X549507Y826631D01*
X544445Y831693D01*
Y835581D01*
X542746D01*
X542361Y836851D01*
X543888Y837872D01*
X545157Y839770D01*
X545350Y840740D01*
X539750D01*
Y842010D01*
X538480D01*
Y847610D01*
X537510Y847417D01*
X535856Y846311D01*
X534976Y846598D01*
X534586Y846874D01*
Y849630D01*
X526486D01*
X518386D01*
Y841616D01*
X517404Y840810D01*
X516972Y840896D01*
X505718D01*
X504670Y841944D01*
Y862457D01*
X488470D01*
Y857325D01*
X485533D01*
X485285Y857923D01*
X483860Y859780D01*
X482003Y861205D01*
X479841Y862101D01*
X477520Y862407D01*
X475199Y862101D01*
X473037Y861205D01*
X471180Y859780D01*
X469755Y857923D01*
X468859Y855761D01*
X468714Y854658D01*
X463042D01*
X462667Y854583D01*
X452501D01*
Y853253D01*
X450461D01*
Y854535D01*
X446208D01*
X442016Y858727D01*
X440756Y859569D01*
X439269Y859865D01*
X419076D01*
Y860671D01*
X407505D01*
X406909Y861267D01*
X405649Y862109D01*
X404162Y862405D01*
X397510D01*
X396023Y862109D01*
X394763Y861267D01*
X390953Y857457D01*
X390111Y856197D01*
X389815Y854710D01*
Y853313D01*
X386461D01*
Y839089D01*
X399175D01*
X399210Y839064D01*
X399457Y838581D01*
X398680Y837311D01*
X386461D01*
Y828581D01*
X385145Y827265D01*
X362370D01*
X361995Y827190D01*
X334010D01*
Y837310D01*
X356870D01*
Y845350D01*
Y853390D01*
X334010D01*
Y861060D01*
X339090Y866140D01*
X624840Y866140D01*
X629920Y861060D01*
D02*
G37*
%LPC*%
G36*
X478790Y840649D02*
Y833120D01*
X486320D01*
X486181Y834171D01*
X485285Y836333D01*
X483860Y838190D01*
X482003Y839615D01*
X479841Y840511D01*
X478790Y840649D01*
D02*
G37*
G36*
X476250D02*
X475199Y840511D01*
X473037Y839615D01*
X471180Y838190D01*
X469755Y836333D01*
X468859Y834171D01*
X468721Y833120D01*
X476250D01*
Y840649D01*
D02*
G37*
G36*
X466979Y838581D02*
X461010D01*
Y832739D01*
X466979D01*
Y838581D01*
D02*
G37*
G36*
X458470D02*
X452501D01*
Y832739D01*
X458470D01*
Y838581D01*
D02*
G37*
G36*
X503934Y829053D02*
X501034Y826619D01*
X503233Y823998D01*
X506133Y826432D01*
X503934Y829053D01*
D02*
G37*
G36*
X534586Y862457D02*
X527756D01*
Y852170D01*
X534586D01*
Y862457D01*
D02*
G37*
G36*
X525216D02*
X518386D01*
Y852170D01*
X525216D01*
Y862457D01*
D02*
G37*
G36*
X604520Y855130D02*
X580750D01*
Y848360D01*
X604520D01*
Y855130D01*
D02*
G37*
G36*
X383180Y853390D02*
X359410D01*
Y846620D01*
X383180D01*
Y853390D01*
D02*
G37*
G36*
X541020Y847610D02*
Y843280D01*
X545350D01*
X545157Y844250D01*
X543888Y846148D01*
X541990Y847417D01*
X541020Y847610D01*
D02*
G37*
G36*
X433070Y847090D02*
X428740D01*
X428933Y846120D01*
X430202Y844222D01*
X432100Y842953D01*
X433070Y842760D01*
Y847090D01*
D02*
G37*
G36*
X419076Y845820D02*
X415290D01*
Y842399D01*
X419076D01*
Y845820D01*
D02*
G37*
G36*
X604520D02*
X580750D01*
Y839050D01*
X604520D01*
Y845820D01*
D02*
G37*
G36*
X383180Y844080D02*
X359410D01*
Y837310D01*
X383180D01*
Y844080D01*
D02*
G37*
G36*
X487772Y807641D02*
X483986D01*
Y804220D01*
X487772D01*
Y807641D01*
D02*
G37*
G36*
X481850Y802640D02*
X477520D01*
Y798310D01*
X478490Y798503D01*
X480388Y799772D01*
X481657Y801670D01*
X481850Y802640D01*
D02*
G37*
G36*
X474980D02*
X470650D01*
X470843Y801670D01*
X472112Y799772D01*
X474010Y798503D01*
X474980Y798310D01*
Y802640D01*
D02*
G37*
G36*
X604520Y802730D02*
X580750D01*
Y795960D01*
X604520D01*
Y802730D01*
D02*
G37*
G36*
X383180Y800990D02*
X359410D01*
Y794220D01*
X383180D01*
Y800990D01*
D02*
G37*
G36*
X469773Y799719D02*
X463931D01*
Y793750D01*
X469773D01*
Y799719D01*
D02*
G37*
G36*
X461391D02*
X455549D01*
Y793750D01*
X461391D01*
Y799719D01*
D02*
G37*
G36*
X543030Y800870D02*
X529950D01*
Y789790D01*
X543030D01*
Y800870D01*
D02*
G37*
G36*
X604520Y793420D02*
X580750D01*
Y786650D01*
X604520D01*
Y793420D01*
D02*
G37*
G36*
X383180Y791680D02*
X359410D01*
Y784910D01*
X383180D01*
Y791680D01*
D02*
G37*
G36*
X425450Y789241D02*
Y784860D01*
X429831D01*
X429634Y785849D01*
X428354Y787764D01*
X426439Y789044D01*
X425450Y789241D01*
D02*
G37*
G36*
X422910D02*
X421921Y789044D01*
X420006Y787764D01*
X418726Y785849D01*
X418529Y784860D01*
X422910D01*
Y789241D01*
D02*
G37*
G36*
X400510Y789060D02*
X396240D01*
Y783790D01*
X400510D01*
Y789060D01*
D02*
G37*
G36*
X415750D02*
X411480D01*
Y783790D01*
X415750D01*
Y789060D01*
D02*
G37*
G36*
X408940D02*
X404670D01*
Y783790D01*
X408940D01*
Y789060D01*
D02*
G37*
G36*
X393700D02*
X389430D01*
Y783790D01*
X393700D01*
Y789060D01*
D02*
G37*
G36*
X497122Y788980D02*
X491280D01*
Y783011D01*
X497122D01*
Y788980D01*
D02*
G37*
G36*
X488740D02*
X482898D01*
Y783011D01*
X488740D01*
Y788980D01*
D02*
G37*
G36*
X429831Y782320D02*
X425450D01*
Y777939D01*
X426439Y778136D01*
X428354Y779416D01*
X429634Y781331D01*
X429831Y782320D01*
D02*
G37*
G36*
X422910D02*
X418529D01*
X418726Y781331D01*
X420006Y779416D01*
X421921Y778136D01*
X422910Y777939D01*
Y782320D01*
D02*
G37*
G36*
X470995Y779780D02*
X467209D01*
Y776359D01*
X470995D01*
Y779780D01*
D02*
G37*
G36*
X415750Y781250D02*
X411480D01*
Y775980D01*
X415750D01*
Y781250D01*
D02*
G37*
G36*
X408940D02*
X404670D01*
Y775980D01*
X408940D01*
Y781250D01*
D02*
G37*
G36*
X400510D02*
X396240D01*
Y775980D01*
X400510D01*
Y781250D01*
D02*
G37*
G36*
X393700D02*
X389430D01*
Y775980D01*
X393700D01*
Y781250D01*
D02*
G37*
%LPD*%
D11*
X526486Y847443D02*
X531919Y842010D01*
X526486Y847443D02*
Y850900D01*
X531919Y842010D02*
X539750D01*
X550589Y789349D02*
Y811821D01*
X543570Y782330D02*
X550589Y789349D01*
X536490Y782330D02*
X543570D01*
X462661Y792480D02*
X465939Y789202D01*
Y781050D02*
Y789202D01*
X445770Y849368D02*
X457843D01*
X504109Y837011D02*
X516972D01*
X496570Y844550D02*
X504109Y837011D01*
X496570Y844550D02*
Y850900D01*
X516972Y837011D02*
X519220Y834763D01*
Y834398D02*
Y834763D01*
X494030Y853440D02*
X496570Y850900D01*
X477520Y853440D02*
X494030D01*
X521752Y836930D02*
X525666D01*
X519220Y834398D02*
X521752Y836930D01*
X525666D02*
X531706Y830890D01*
X438364Y829626D02*
Y834390D01*
Y829626D02*
X447190Y820800D01*
X438364Y834390D02*
X445770Y841796D01*
X445834Y791146D02*
Y804800D01*
X409140Y826570D02*
Y835660D01*
X497063Y815046D02*
X497304Y815042D01*
X518809Y814719D01*
X477520Y815340D02*
X480421Y815296D01*
X497063Y815046D01*
X527050Y806450D02*
Y810360D01*
X520490Y799890D02*
X527050Y806450D01*
X520490Y795330D02*
Y799890D01*
X521760Y815650D02*
X527050Y810360D01*
X419100Y808990D02*
Y816610D01*
X409140Y826570D02*
X419100Y816610D01*
X447190Y820800D02*
X447549D01*
X445834Y791146D02*
X455930Y781050D01*
X458621D01*
X451739Y816610D02*
X464439D01*
X518809Y814719D02*
X519740Y815650D01*
X518160Y814070D02*
X518809Y814719D01*
X518950D01*
X568325Y800735D02*
X588010Y820420D01*
X519740Y815650D02*
X521760D01*
X519220Y826715D02*
X521760Y824175D01*
X519220Y826715D02*
Y827080D01*
X521760Y815650D02*
Y824175D01*
X531706Y830890D02*
X532071D01*
X474771Y853440D02*
X477520D01*
X472104Y850773D02*
X474771Y853440D01*
X463042Y850773D02*
X472104D01*
X459740Y847471D02*
X463042Y850773D01*
X457843Y849368D02*
X459740Y847471D01*
X445770Y849368D02*
Y849479D01*
X414020Y855980D02*
X439269D01*
X444524Y850725D01*
X403860Y844248D02*
X406702Y847090D01*
X403860Y839940D02*
Y844248D01*
Y839940D02*
X408140Y835660D01*
X404162Y858520D02*
X406702Y855980D01*
X397510Y858520D02*
X404162D01*
X403797Y849995D02*
Y853075D01*
X405456Y854734D01*
Y855099D01*
X406337Y855980D01*
X393700Y854710D02*
X397510Y858520D01*
X393700Y846201D02*
Y854710D01*
X403797Y849995D02*
X405456Y848336D01*
X549490Y812920D02*
X550589Y811821D01*
X549490Y812920D02*
Y813920D01*
X547760Y815650D02*
X549490Y813920D01*
X546760Y815650D02*
X547760D01*
X546760D02*
Y823884D01*
X539754Y830890D02*
X546760Y823884D01*
X539389Y830890D02*
X539754D01*
X445770Y841796D02*
Y842161D01*
X447549Y820800D02*
X451739Y816610D01*
X512044Y784218D02*
X520490D01*
X506012Y790250D02*
Y795838D01*
X498900Y802950D02*
X506012Y795838D01*
Y790250D02*
X512044Y784218D01*
X520490Y783830D02*
Y784218D01*
X419100Y808990D02*
X423290Y804800D01*
X434190D01*
X408140Y835660D02*
X409140D01*
X393573Y830199D02*
X393700D01*
X386754Y823380D02*
X393573Y830199D01*
X362370Y823380D02*
X386754D01*
X358140Y819150D02*
X362370Y823380D01*
X394970Y807520D02*
X410210D01*
X394970D02*
Y808520D01*
X388570Y814920D02*
X394970Y808520D01*
X362370Y814920D02*
X388570D01*
X358140Y819150D02*
X362370Y814920D01*
D13*
X552069Y801370D02*
D03*
X568071D02*
D03*
X506012Y790250D02*
D03*
X490010D02*
D03*
X464439Y816610D02*
D03*
X480441D02*
D03*
X446659Y792480D02*
D03*
X462661D02*
D03*
D14*
X532071Y830890D02*
D03*
X539389D02*
D03*
X496360Y802950D02*
D03*
X489042D02*
D03*
X458621Y781050D02*
D03*
X465939D02*
D03*
X414020Y847090D02*
D03*
X406702D02*
D03*
Y855980D02*
D03*
X414020D02*
D03*
D15*
X521760Y815650D02*
D03*
X546760D02*
D03*
X520490Y795330D02*
D03*
X536490Y782330D02*
D03*
Y795330D02*
D03*
X411680Y834390D02*
D03*
X436680D02*
D03*
D16*
X520490Y783830D02*
D03*
D17*
X459740Y847471D02*
D03*
Y831469D02*
D03*
X393700Y830199D02*
D03*
Y846201D02*
D03*
D18*
X519220Y834398D02*
D03*
Y827080D02*
D03*
X445770Y849479D02*
D03*
Y842161D02*
D03*
D19*
X497471Y817505D02*
D03*
X503077Y822209D02*
D03*
D20*
X496570Y850900D02*
D03*
X526486D02*
D03*
D21*
X605790Y847090D02*
D03*
Y820890D02*
D03*
Y794690D02*
D03*
X358140Y845350D02*
D03*
Y819150D02*
D03*
Y792950D02*
D03*
D22*
X434190Y804800D02*
D03*
X447190Y820800D02*
D03*
X434190D02*
D03*
X410210Y782520D02*
D03*
Y807520D02*
D03*
X394970D02*
D03*
Y782520D02*
D03*
D23*
X445690Y804800D02*
D03*
D32*
X476250Y803910D02*
D03*
X434340Y848360D02*
D03*
X539750Y842010D02*
D03*
D33*
X477520Y831850D02*
D03*
Y853440D02*
D03*
D34*
X424180Y783590D02*
D03*
M02*
