G04*
G04 #@! TF.GenerationSoftware,Altium Limited,Altium Designer,19.1.8 (144)*
G04*
G04 Layer_Color=255*
%FSLAX44Y44*%
%MOMM*%
G71*
G01*
G75*
%ADD13R,0.9144X0.9398*%
%ADD14R,0.5032X0.4302*%
%ADD15R,0.8000X0.6000*%
%ADD16R,0.8000X0.9000*%
%ADD17R,0.9398X0.9144*%
%ADD18R,0.4302X0.5032*%
G04:AMPARAMS|DCode=19|XSize=0.5032mm|YSize=0.4302mm|CornerRadius=0mm|HoleSize=0mm|Usage=FLASHONLY|Rotation=220.000|XOffset=0mm|YOffset=0mm|HoleType=Round|Shape=Rectangle|*
%AMROTATEDRECTD19*
4,1,4,0.0545,0.3265,0.3310,-0.0031,-0.0545,-0.3265,-0.3310,0.0031,0.0545,0.3265,0.0*
%
%ADD19ROTATEDRECTD19*%

%ADD20R,1.1120X1.8034*%
%ADD21R,4.5000X1.1000*%
%ADD22R,0.6000X0.8000*%
%ADD23R,0.9000X0.8000*%
D13*
X552069Y801370D02*
D03*
X568071D02*
D03*
X506012Y790250D02*
D03*
X490010D02*
D03*
X464439Y816610D02*
D03*
X480441D02*
D03*
X446659Y792480D02*
D03*
X462661D02*
D03*
D14*
X532071Y830890D02*
D03*
X539389D02*
D03*
X496360Y802950D02*
D03*
X489042D02*
D03*
X458621Y781050D02*
D03*
X465939D02*
D03*
X414020Y847090D02*
D03*
X406702D02*
D03*
Y855980D02*
D03*
X414020D02*
D03*
D15*
X521760Y815650D02*
D03*
X546760D02*
D03*
X520490Y795330D02*
D03*
X536490Y782330D02*
D03*
Y795330D02*
D03*
X411680Y834390D02*
D03*
X436680D02*
D03*
D16*
X520490Y783830D02*
D03*
D17*
X459740Y847471D02*
D03*
Y831469D02*
D03*
X393700Y830199D02*
D03*
Y846201D02*
D03*
D18*
X519220Y834398D02*
D03*
Y827080D02*
D03*
X445770Y849479D02*
D03*
Y842161D02*
D03*
D19*
X497471Y817505D02*
D03*
X503077Y822209D02*
D03*
D20*
X496570Y850900D02*
D03*
X526486D02*
D03*
D21*
X605790Y847090D02*
D03*
Y820890D02*
D03*
Y794690D02*
D03*
X358140Y845350D02*
D03*
Y819150D02*
D03*
Y792950D02*
D03*
D22*
X434190Y804800D02*
D03*
X447190Y820800D02*
D03*
X434190D02*
D03*
X410210Y782520D02*
D03*
Y807520D02*
D03*
X394970D02*
D03*
Y782520D02*
D03*
D23*
X445690Y804800D02*
D03*
M02*
