G04*
G04 #@! TF.GenerationSoftware,Altium Limited,Altium Designer,19.1.8 (144)*
G04*
G04 Layer_Color=65535*
%FSLAX44Y44*%
%MOMM*%
G71*
G01*
G75*
%ADD10C,0.1000*%
%ADD11C,0.2540*%
%ADD12C,0.1524*%
D10*
X552540Y822754D02*
G03*
X552540Y822754I-500J0D01*
G01*
X520990Y802330D02*
G03*
X520990Y802330I-500J0D01*
G01*
X442460Y841494D02*
G03*
X442460Y841494I-500J0D01*
G01*
X427690Y804800D02*
G03*
X427690Y804800I-500J0D01*
G01*
X417814Y777240D02*
G03*
X417814Y777240I-500J0D01*
G01*
X388366Y812800D02*
G03*
X388366Y812800I-500J0D01*
G01*
X586929Y836048D02*
X585929Y837048D01*
X583930D01*
X582930Y836048D01*
Y835049D01*
X583930Y834049D01*
X585929D01*
X586929Y833049D01*
Y832050D01*
X585929Y831050D01*
X583930D01*
X582930Y832050D01*
X588928Y831050D02*
Y837048D01*
X590927Y835049D01*
X592927Y837048D01*
Y831050D01*
X594926D02*
Y835049D01*
X596926Y837048D01*
X598925Y835049D01*
Y831050D01*
Y834049D01*
X594926D01*
X604923Y831050D02*
X600924D01*
X604923Y835049D01*
Y836048D01*
X603923Y837048D01*
X601924D01*
X600924Y836048D01*
X364679Y834308D02*
X363679Y835308D01*
X361680D01*
X360680Y834308D01*
Y833309D01*
X361680Y832309D01*
X363679D01*
X364679Y831309D01*
Y830310D01*
X363679Y829310D01*
X361680D01*
X360680Y830310D01*
X366678Y829310D02*
Y835308D01*
X368677Y833309D01*
X370677Y835308D01*
Y829310D01*
X372676D02*
Y833309D01*
X374675Y835308D01*
X376675Y833309D01*
Y829310D01*
Y832309D01*
X372676D01*
X378674Y829310D02*
X380673D01*
X379674D01*
Y835308D01*
X378674Y834308D01*
X500380Y800100D02*
Y806098D01*
X503379D01*
X504379Y805098D01*
Y803099D01*
X503379Y802099D01*
X500380D01*
X502379D02*
X504379Y800100D01*
X506378Y805098D02*
X507378Y806098D01*
X509377D01*
X510377Y805098D01*
Y804099D01*
X509377Y803099D01*
X510377Y802099D01*
Y801100D01*
X509377Y800100D01*
X507378D01*
X506378Y801100D01*
Y802099D01*
X507378Y803099D01*
X506378Y804099D01*
Y805098D01*
X507378Y803099D02*
X509377D01*
X543257Y827387D02*
Y833385D01*
X546256D01*
X547256Y832385D01*
Y830386D01*
X546256Y829386D01*
X543257D01*
X545256D02*
X547256Y827387D01*
X549255Y833385D02*
X553254D01*
Y832385D01*
X549255Y828387D01*
Y827387D01*
X502920Y808990D02*
X499064Y813585D01*
X501362Y815512D01*
X502770Y815389D01*
X504055Y813858D01*
X503932Y812449D01*
X501635Y810522D01*
X503166Y811807D02*
X505983Y811560D01*
X506722Y820011D02*
X505834Y817960D01*
X505587Y815143D01*
X506872Y813611D01*
X508281Y813488D01*
X509812Y814773D01*
X509935Y816182D01*
X509293Y816947D01*
X507884Y817071D01*
X505587Y815143D01*
X515410Y825659D02*
X509412D01*
Y828658D01*
X510412Y829658D01*
X512411D01*
X513411Y828658D01*
Y825659D01*
Y827658D02*
X515410Y829658D01*
X509412Y835656D02*
Y831657D01*
X512411D01*
X511411Y833656D01*
Y834656D01*
X512411Y835656D01*
X514410D01*
X515410Y834656D01*
Y832657D01*
X514410Y831657D01*
X471170Y778510D02*
Y784508D01*
X474169D01*
X475169Y783508D01*
Y781509D01*
X474169Y780509D01*
X471170D01*
X473169D02*
X475169Y778510D01*
X480167D02*
Y784508D01*
X477168Y781509D01*
X481167D01*
X440690Y853440D02*
Y859438D01*
X443689D01*
X444689Y858438D01*
Y856439D01*
X443689Y855439D01*
X440690D01*
X442689D02*
X444689Y853440D01*
X446688Y858438D02*
X447688Y859438D01*
X449687D01*
X450687Y858438D01*
Y857439D01*
X449687Y856439D01*
X448687D01*
X449687D01*
X450687Y855439D01*
Y854440D01*
X449687Y853440D01*
X447688D01*
X446688Y854440D01*
X417775Y844550D02*
Y850548D01*
X420774D01*
X421774Y849548D01*
Y847549D01*
X420774Y846549D01*
X417775D01*
X419774D02*
X421774Y844550D01*
X427772D02*
X423773D01*
X427772Y848549D01*
Y849548D01*
X426772Y850548D01*
X424773D01*
X423773Y849548D01*
X417981Y853440D02*
Y859438D01*
X420980D01*
X421980Y858438D01*
Y856439D01*
X420980Y855439D01*
X417981D01*
X419980D02*
X421980Y853440D01*
X423979D02*
X425978D01*
X424979D01*
Y859438D01*
X423979Y858438D01*
X535919Y801410D02*
Y805408D01*
X534919Y806408D01*
X532920D01*
X531920Y805408D01*
Y801410D01*
X532920Y800410D01*
X534919D01*
X533919Y802409D02*
X535919Y800410D01*
X534919D02*
X535919Y801410D01*
X541917Y800410D02*
X537918D01*
X541917Y804409D01*
Y805408D01*
X540917Y806408D01*
X538918D01*
X537918Y805408D01*
X431989Y793480D02*
Y797478D01*
X430989Y798478D01*
X428990D01*
X427990Y797478D01*
Y793480D01*
X428990Y792480D01*
X430989D01*
X429989Y794479D02*
X431989Y792480D01*
X430989D02*
X431989Y793480D01*
X433988Y792480D02*
X435987D01*
X434988D01*
Y798478D01*
X433988Y797478D01*
X553720Y818798D02*
Y812800D01*
X556719D01*
X557719Y813800D01*
Y817798D01*
X556719Y818798D01*
X553720D01*
X562717Y812800D02*
Y818798D01*
X559718Y815799D01*
X563717D01*
X405130Y828958D02*
Y822960D01*
X408129D01*
X409129Y823960D01*
Y827958D01*
X408129Y828958D01*
X405130D01*
X411128Y827958D02*
X412128Y828958D01*
X414127D01*
X415127Y827958D01*
Y826959D01*
X414127Y825959D01*
X413127D01*
X414127D01*
X415127Y824959D01*
Y823960D01*
X414127Y822960D01*
X412128D01*
X411128Y823960D01*
X405130Y820068D02*
Y814070D01*
X408129D01*
X409129Y815070D01*
Y819068D01*
X408129Y820068D01*
X405130D01*
X415127Y814070D02*
X411128D01*
X415127Y818069D01*
Y819068D01*
X414127Y820068D01*
X412128D01*
X411128Y819068D01*
X391160Y820068D02*
Y814070D01*
X394159D01*
X395159Y815070D01*
Y819068D01*
X394159Y820068D01*
X391160D01*
X397158Y814070D02*
X399157D01*
X398158D01*
Y820068D01*
X397158Y819068D01*
X458659Y858057D02*
X457659Y859057D01*
X455660D01*
X454660Y858057D01*
Y854059D01*
X455660Y853059D01*
X457659D01*
X458659Y854059D01*
X464657Y859057D02*
X462657Y858057D01*
X460658Y856058D01*
Y854059D01*
X461658Y853059D01*
X463657D01*
X464657Y854059D01*
Y855058D01*
X463657Y856058D01*
X460658D01*
X539386Y854521D02*
X540386Y855521D01*
Y857520D01*
X539386Y858520D01*
X535388D01*
X534388Y857520D01*
Y855521D01*
X535388Y854521D01*
X540386Y852522D02*
Y848523D01*
X539386D01*
X535388Y852522D01*
X534388D01*
X558989Y793668D02*
X557989Y794668D01*
X555990D01*
X554990Y793668D01*
Y789670D01*
X555990Y788670D01*
X557989D01*
X558989Y789670D01*
X564987Y794668D02*
X560988D01*
Y791669D01*
X562987Y792669D01*
X563987D01*
X564987Y791669D01*
Y789670D01*
X563987Y788670D01*
X561988D01*
X560988Y789670D01*
X499089Y782548D02*
X498089Y783548D01*
X496090D01*
X495090Y782548D01*
Y778550D01*
X496090Y777550D01*
X498089D01*
X499089Y778550D01*
X504087Y777550D02*
Y783548D01*
X501088Y780549D01*
X505087D01*
X491408Y817691D02*
X492408Y818691D01*
Y820690D01*
X491408Y821690D01*
X487410D01*
X486410Y820690D01*
Y818691D01*
X487410Y817691D01*
X491408Y815692D02*
X492408Y814692D01*
Y812693D01*
X491408Y811693D01*
X490409D01*
X489409Y812693D01*
Y813693D01*
Y812693D01*
X488409Y811693D01*
X487410D01*
X486410Y812693D01*
Y814692D01*
X487410Y815692D01*
X473628Y793561D02*
X474628Y794561D01*
Y796560D01*
X473628Y797560D01*
X469630D01*
X468630Y796560D01*
Y794561D01*
X469630Y793561D01*
X468630Y787563D02*
Y791562D01*
X472629Y787563D01*
X473628D01*
X474628Y788563D01*
Y790562D01*
X473628Y791562D01*
X393889Y858438D02*
X392889Y859438D01*
X390890D01*
X389890Y858438D01*
Y854440D01*
X390890Y853440D01*
X392889D01*
X393889Y854440D01*
X395888Y853440D02*
X397887D01*
X396888D01*
Y859438D01*
X395888Y858438D01*
D11*
X334010Y866140D02*
X629920D01*
X577850Y785890D02*
X627660D01*
X577850D02*
Y802120D01*
Y855890D02*
X627940D01*
X577850Y837120D02*
Y855890D01*
Y802120D02*
Y837120D01*
X334010Y772160D02*
X629920D01*
Y866140D01*
X334010Y772160D02*
Y866140D01*
X386080Y802920D02*
Y837920D01*
Y784150D02*
Y802920D01*
X335990Y784150D02*
X386080D01*
Y837920D02*
Y854150D01*
X336270D02*
X386080D01*
D12*
X505205Y840613D02*
X517850D01*
X505205Y861187D02*
X517850D01*
M02*
