G04*
G04 #@! TF.GenerationSoftware,Altium Limited,Altium Designer,19.1.8 (144)*
G04*
G04 Layer_Physical_Order=1*
G04 Layer_Color=255*
%FSLAX44Y44*%
%MOMM*%
G71*
G01*
G75*
%ADD12C,0.2540*%
%ADD14R,0.5032X0.4302*%
%ADD15R,0.5532X0.3302*%
%ADD16R,0.3302X0.5532*%
%ADD17R,0.6000X0.8000*%
%ADD18R,0.9000X0.8000*%
%ADD19R,0.4302X0.5032*%
%ADD20R,0.8000X0.6000*%
%ADD28C,0.2500*%
%ADD29C,1.5000*%
%ADD30R,1.5000X1.5000*%
%ADD31R,3.0000X1.5000*%
%ADD32R,1.5000X3.0000*%
G36*
X877570Y1085850D02*
X877570Y1082040D01*
X877570Y1013460D01*
X875030Y1010920D01*
X844260D01*
X843040Y1011040D01*
X843040Y1012190D01*
Y1019810D01*
X825500D01*
X807960D01*
X807960Y1011040D01*
X806740Y1010920D01*
X550808D01*
X550648Y1011160D01*
X551327Y1012430D01*
X554990D01*
Y1029970D01*
Y1047510D01*
X547370D01*
Y1051800D01*
X561215D01*
X561243Y1051781D01*
X562730Y1051485D01*
X564201D01*
X568843Y1046843D01*
X568357Y1045670D01*
X567700D01*
Y1034590D01*
X570355D01*
Y1027890D01*
X567700D01*
Y1016810D01*
X580780D01*
Y1027890D01*
X578125D01*
Y1034590D01*
X580780D01*
Y1045670D01*
X578125D01*
Y1046940D01*
X577829Y1048427D01*
X576987Y1049687D01*
X568557Y1058117D01*
X567297Y1058959D01*
X566300Y1059157D01*
Y1074345D01*
X571175D01*
Y1074039D01*
X580414D01*
Y1066852D01*
X580710Y1065365D01*
X581552Y1064105D01*
X584375Y1061282D01*
Y1057029D01*
X601805D01*
Y1057835D01*
X611045D01*
Y1057029D01*
X612216D01*
Y1041463D01*
X612512Y1039976D01*
X613354Y1038716D01*
X625229Y1026841D01*
Y1021231D01*
X629920D01*
X634611D01*
Y1022223D01*
Y1032335D01*
X630723D01*
X619986Y1043072D01*
Y1057029D01*
X628475D01*
Y1061282D01*
X630568Y1063375D01*
X650250D01*
Y1058720D01*
X652905D01*
Y1045480D01*
X653201Y1043993D01*
X654043Y1042733D01*
X660478Y1036298D01*
X659992Y1035125D01*
X652931D01*
X651444Y1034829D01*
X650184Y1033987D01*
X648532Y1032335D01*
X644279D01*
Y1022223D01*
Y1021231D01*
X648970D01*
X653661D01*
Y1026476D01*
X654540Y1027355D01*
X662330D01*
Y1026860D01*
X666636D01*
X666853Y1026535D01*
X675815Y1017573D01*
Y1015119D01*
X686919D01*
Y1019810D01*
Y1024501D01*
X679874D01*
X678689Y1025687D01*
X679175Y1026860D01*
X686410D01*
Y1029515D01*
X702200D01*
X705239Y1026476D01*
Y1021231D01*
X709930D01*
X714621D01*
Y1023394D01*
X716148D01*
X721035Y1018507D01*
Y1015619D01*
X732889D01*
Y1019810D01*
X734159D01*
D01*
X732889D01*
Y1024001D01*
X726529D01*
X723600Y1026930D01*
X727029Y1030359D01*
X732639D01*
Y1035050D01*
Y1039741D01*
X721535D01*
Y1035853D01*
X716846Y1031164D01*
X714621D01*
Y1032335D01*
X710368D01*
X706556Y1036147D01*
X705296Y1036989D01*
X703809Y1037285D01*
X686410D01*
Y1039940D01*
X667824D01*
X666077Y1041687D01*
X666563Y1042860D01*
X673410D01*
Y1055940D01*
X662330D01*
Y1048138D01*
X661060Y1047497D01*
X660675Y1047782D01*
Y1058720D01*
X663330D01*
Y1069800D01*
X656744D01*
X656537Y1070007D01*
X655277Y1070849D01*
X653790Y1071145D01*
X628959D01*
X627472Y1070849D01*
X626919Y1070479D01*
X626109Y1071466D01*
X626166Y1071522D01*
X627008Y1072782D01*
X627304Y1074269D01*
Y1074809D01*
X628475D01*
Y1078155D01*
X652955D01*
Y1074809D01*
X670385D01*
Y1075540D01*
X706204D01*
X706420Y1075281D01*
X706178Y1073592D01*
X706088Y1073532D01*
X700701Y1068145D01*
X688330D01*
Y1069800D01*
X675250D01*
Y1058720D01*
X677905D01*
Y1055940D01*
X675330D01*
Y1042860D01*
X686410D01*
Y1046205D01*
X687070D01*
X688557Y1046501D01*
X689817Y1047343D01*
X692689Y1050215D01*
X708835D01*
Y1049409D01*
X726265D01*
Y1050215D01*
X733735D01*
Y1049909D01*
X736590D01*
X736694Y1049384D01*
X737536Y1048124D01*
X744391Y1041269D01*
X745652Y1040426D01*
X747138Y1040131D01*
X756656D01*
X762175Y1034612D01*
Y1033099D01*
X761793Y1032717D01*
X760951Y1031457D01*
X760655Y1029970D01*
Y1022136D01*
X760951Y1020649D01*
X761793Y1019389D01*
X762175Y1019007D01*
Y1015119D01*
X773279D01*
Y1019810D01*
Y1024501D01*
X768425D01*
Y1028361D01*
X769827Y1029763D01*
X770225Y1030359D01*
X773279D01*
Y1035050D01*
Y1039741D01*
X768034D01*
X761012Y1046762D01*
X759752Y1047604D01*
X758266Y1047900D01*
X748747D01*
X747912Y1048736D01*
X748398Y1049909D01*
X752165D01*
Y1050215D01*
X807960D01*
Y1041520D01*
X843040D01*
Y1061600D01*
X807960D01*
Y1057985D01*
X752165D01*
Y1058291D01*
X733735D01*
Y1057985D01*
X726265D01*
Y1058791D01*
X708835D01*
Y1057985D01*
X691080D01*
X689593Y1057689D01*
X688333Y1056847D01*
X687634Y1056148D01*
X687445Y1056116D01*
X686133Y1056304D01*
X685675Y1056905D01*
Y1058720D01*
X688330D01*
Y1060375D01*
X702310D01*
X703797Y1060671D01*
X705057Y1061513D01*
X710444Y1066900D01*
X713377D01*
X716224Y1064053D01*
X717484Y1063211D01*
X718971Y1062915D01*
X725345D01*
Y1061379D01*
X736449D01*
Y1066070D01*
X737719D01*
Y1067340D01*
X742775D01*
Y1068146D01*
X759849D01*
Y1065681D01*
X764540D01*
X769231D01*
Y1066673D01*
Y1076785D01*
X759849D01*
Y1075916D01*
X733625D01*
X732138Y1075620D01*
X730878Y1074778D01*
X726861Y1070761D01*
X725345D01*
Y1070685D01*
X720580D01*
X718431Y1072834D01*
Y1078176D01*
X776859D01*
Y1073051D01*
X781050D01*
X785241D01*
Y1075991D01*
X786143Y1076885D01*
X789559Y1076855D01*
Y1073051D01*
X793750D01*
X797941D01*
Y1076829D01*
X804897D01*
X804973Y1076753D01*
X805300Y1076535D01*
Y1064380D01*
X825380D01*
Y1084460D01*
X807203D01*
X806506Y1084599D01*
X797941D01*
Y1084905D01*
X789559D01*
Y1084905D01*
X789278Y1084627D01*
X785241Y1084662D01*
Y1084905D01*
X781765D01*
X780681Y1085629D01*
X779194Y1085925D01*
X779092Y1085904D01*
X716169D01*
X716066Y1085925D01*
X714579Y1085629D01*
X713319Y1084787D01*
X712937Y1084405D01*
X709049D01*
Y1083309D01*
X670385D01*
Y1084191D01*
X658449D01*
X657853Y1084787D01*
X656593Y1085629D01*
X655106Y1085925D01*
X626324D01*
X624837Y1085629D01*
X623577Y1084787D01*
X622981Y1084191D01*
X617371D01*
Y1079500D01*
X616101D01*
Y1078230D01*
X611045D01*
Y1074809D01*
X616806D01*
X617292Y1073636D01*
X614084Y1070428D01*
X613242Y1069168D01*
X612946Y1067681D01*
Y1066411D01*
X611045D01*
Y1065605D01*
X601805D01*
Y1066411D01*
X590234D01*
X588184Y1068461D01*
Y1074039D01*
X589605D01*
Y1082421D01*
X571175D01*
Y1082115D01*
X566300D01*
Y1086880D01*
X550194D01*
X549515Y1088150D01*
X549675Y1088390D01*
X875030D01*
X877570Y1085850D01*
D02*
G37*
%LPC*%
G36*
X614831Y1084191D02*
X611045D01*
Y1080770D01*
X614831D01*
Y1084191D01*
D02*
G37*
G36*
X842010Y1084379D02*
Y1075690D01*
X850699D01*
X850522Y1077041D01*
X849510Y1079483D01*
X847901Y1081581D01*
X845803Y1083190D01*
X843361Y1084202D01*
X842010Y1084379D01*
D02*
G37*
G36*
X839470D02*
X838119Y1084202D01*
X835677Y1083190D01*
X833579Y1081581D01*
X831970Y1079483D01*
X830958Y1077041D01*
X830781Y1075690D01*
X839470D01*
Y1084379D01*
D02*
G37*
G36*
X797941Y1070511D02*
X795020D01*
Y1066475D01*
X797941D01*
Y1070511D01*
D02*
G37*
G36*
X792480D02*
X789559D01*
Y1066475D01*
X792480D01*
Y1070511D01*
D02*
G37*
G36*
X785241D02*
X782320D01*
Y1066475D01*
X785241D01*
Y1070511D01*
D02*
G37*
G36*
X779780D02*
X776859D01*
Y1066475D01*
X779780D01*
Y1070511D01*
D02*
G37*
G36*
X850699Y1073150D02*
X842010D01*
Y1064461D01*
X843361Y1064638D01*
X845803Y1065650D01*
X847901Y1067259D01*
X849510Y1069357D01*
X850522Y1071799D01*
X850699Y1073150D01*
D02*
G37*
G36*
X839470D02*
X830781D01*
X830958Y1071799D01*
X831970Y1069357D01*
X833579Y1067259D01*
X835677Y1065650D01*
X838119Y1064638D01*
X839470Y1064461D01*
Y1073150D01*
D02*
G37*
G36*
X742775Y1064800D02*
X738989D01*
Y1061379D01*
X742775D01*
Y1064800D01*
D02*
G37*
G36*
X769231Y1063141D02*
X765810D01*
Y1059355D01*
X769231D01*
Y1063141D01*
D02*
G37*
G36*
X763270D02*
X759849D01*
Y1059355D01*
X763270D01*
Y1063141D01*
D02*
G37*
G36*
X605780Y1045670D02*
X600510D01*
Y1041400D01*
X605780D01*
Y1045670D01*
D02*
G37*
G36*
X597970D02*
X592700D01*
Y1041400D01*
X597970D01*
Y1045670D01*
D02*
G37*
G36*
X779605Y1039741D02*
X775819D01*
Y1036320D01*
X779605D01*
Y1039741D01*
D02*
G37*
G36*
X738965D02*
X735179D01*
Y1036320D01*
X738965D01*
Y1039741D01*
D02*
G37*
G36*
X605780Y1038860D02*
X600510D01*
Y1034590D01*
X605780D01*
Y1038860D01*
D02*
G37*
G36*
X597970D02*
X592700D01*
Y1034590D01*
X597970D01*
Y1038860D01*
D02*
G37*
G36*
X566300Y1047510D02*
X557530D01*
Y1031240D01*
X566300D01*
Y1047510D01*
D02*
G37*
G36*
X779605Y1033780D02*
X775819D01*
Y1030359D01*
X779605D01*
Y1033780D01*
D02*
G37*
G36*
X738965D02*
X735179D01*
Y1030359D01*
X738965D01*
Y1033780D01*
D02*
G37*
G36*
X605780Y1027890D02*
X600510D01*
Y1023620D01*
X605780D01*
Y1027890D01*
D02*
G37*
G36*
X597970D02*
X592700D01*
Y1023620D01*
X597970D01*
Y1027890D01*
D02*
G37*
G36*
X843040Y1031120D02*
X826770D01*
Y1022350D01*
X843040D01*
Y1031120D01*
D02*
G37*
G36*
X824230D02*
X807960D01*
Y1022350D01*
X824230D01*
Y1031120D01*
D02*
G37*
G36*
X779605Y1024501D02*
X775819D01*
Y1021080D01*
X779605D01*
Y1024501D01*
D02*
G37*
G36*
X693245D02*
X689459D01*
Y1021080D01*
X693245D01*
Y1024501D01*
D02*
G37*
G36*
X739465Y1024001D02*
X735429D01*
Y1021080D01*
X739465D01*
Y1024001D01*
D02*
G37*
G36*
X605780Y1021080D02*
X600510D01*
Y1016810D01*
X605780D01*
Y1021080D01*
D02*
G37*
G36*
X597970D02*
X592700D01*
Y1016810D01*
X597970D01*
Y1021080D01*
D02*
G37*
G36*
X739465Y1018540D02*
X735429D01*
Y1015619D01*
X739465D01*
Y1018540D01*
D02*
G37*
G36*
X779605D02*
X775819D01*
Y1015119D01*
X779605D01*
Y1018540D01*
D02*
G37*
G36*
X693245D02*
X689459D01*
Y1015119D01*
X693245D01*
Y1018540D01*
D02*
G37*
G36*
X714621Y1018691D02*
X711200D01*
Y1014905D01*
X714621D01*
Y1018691D01*
D02*
G37*
G36*
X708660D02*
X705239D01*
Y1014905D01*
X708660D01*
Y1018691D01*
D02*
G37*
G36*
X653661D02*
X650240D01*
Y1014905D01*
X653661D01*
Y1018691D01*
D02*
G37*
G36*
X647700D02*
X644279D01*
Y1014905D01*
X647700D01*
Y1018691D01*
D02*
G37*
G36*
X634611D02*
X631190D01*
Y1014905D01*
X634611D01*
Y1018691D01*
D02*
G37*
G36*
X628650D02*
X625229D01*
Y1014905D01*
X628650D01*
Y1018691D01*
D02*
G37*
G36*
X566300Y1028700D02*
X557530D01*
Y1012430D01*
X566300D01*
Y1028700D01*
D02*
G37*
%LPD*%
D12*
X733625Y1072031D02*
X764540D01*
X728394Y1066800D02*
X733625Y1072031D01*
X708835Y1070785D02*
X713740D01*
X702310Y1064260D02*
X708835Y1070785D01*
X681790Y1064260D02*
X702310D01*
X764540Y1071729D02*
Y1072031D01*
X718971Y1066800D02*
X728394D01*
X713740Y1072031D02*
X718971Y1066800D01*
X792480Y1080714D02*
X806506D01*
X807720Y1079500D02*
X815340D01*
X781061Y1080814D02*
X792480Y1080714D01*
X780415Y1080819D02*
X781061Y1080814D01*
X792480Y1079599D02*
Y1080714D01*
X779194Y1082040D02*
X780415Y1080819D01*
X713740Y1079714D02*
X716066Y1082040D01*
X806506Y1080714D02*
X807720Y1079500D01*
X814070Y1054100D02*
X825500Y1051560D01*
X746859Y1054100D02*
X814070D01*
X815340Y1074420D02*
X820420Y1069340D01*
X574240Y1022350D02*
Y1040130D01*
X565810Y1055370D02*
X574240Y1046940D01*
X562730Y1055370D02*
X565810D01*
X556260Y1061840D02*
X562730Y1055370D01*
X556260Y1061840D02*
Y1069340D01*
X574240Y1040130D02*
Y1046940D01*
X556260Y1069340D02*
Y1072000D01*
X562490Y1078230D01*
X576481D01*
X665329Y1079500D02*
X665405Y1079425D01*
X713664D01*
X713740Y1079349D01*
Y1079714D01*
X767080Y1032510D02*
Y1034899D01*
X764540Y1029970D02*
X767080Y1032510D01*
X764540Y1022136D02*
Y1029970D01*
Y1022136D02*
X766866Y1019810D01*
X767231D01*
X767080Y1034899D02*
X767231Y1035050D01*
X767231D02*
X767231D01*
X758266Y1044016D02*
X767231Y1035050D01*
X747138Y1044016D02*
X758266D01*
X740283Y1050871D02*
X747138Y1044016D01*
X740283Y1050871D02*
Y1053719D01*
X739902Y1054100D02*
X740283Y1053719D01*
X739041Y1054100D02*
X739902D01*
X721209D02*
X739041D01*
X681790Y1050090D02*
X687070D01*
X691080Y1054100D01*
X713891D01*
X681790Y1050090D02*
Y1064260D01*
X713740Y1070785D02*
Y1072031D01*
X717757Y1027279D02*
X718455D01*
X726226Y1035050D01*
X726591D01*
X725226Y1019810D02*
X726341D01*
X717757Y1027279D02*
X725226Y1019810D01*
X709930Y1027279D02*
X717757D01*
X703809Y1033400D02*
X708684Y1028525D01*
X679370Y1033400D02*
X703809D01*
X667870Y1031240D02*
X669030D01*
X652931D02*
X667870D01*
X679072Y1019810D02*
X680871D01*
X669600Y1029282D02*
X679072Y1019810D01*
X669030Y1031240D02*
X669600Y1030670D01*
Y1029282D02*
Y1030670D01*
X648970Y1027279D02*
X652931Y1031240D01*
X667870D02*
Y1033400D01*
X653790Y1067260D02*
X656790Y1064260D01*
X628959Y1067260D02*
X653790D01*
X623419Y1061720D02*
X628959Y1067260D01*
X656790Y1045480D02*
X667870Y1034400D01*
X656790Y1045480D02*
Y1064260D01*
X629920Y1027279D02*
Y1027644D01*
X616101Y1041463D02*
X629920Y1027644D01*
X616101Y1041463D02*
Y1061720D01*
X655106Y1082040D02*
X657646Y1079500D01*
X626324Y1082040D02*
X655106D01*
X623784Y1079500D02*
X626324Y1082040D01*
X657646Y1079500D02*
X658011D01*
X623419D02*
X623784D01*
X623419Y1074269D02*
Y1079500D01*
X616831Y1067681D02*
X623419Y1074269D01*
X616831Y1062450D02*
Y1067681D01*
X616101Y1061720D02*
X616831Y1062450D01*
X596749Y1061720D02*
X616101D01*
X584299Y1066852D02*
X588185Y1062966D01*
Y1062601D02*
Y1062966D01*
Y1062601D02*
X589066Y1061720D01*
X589431D01*
X584299Y1066852D02*
Y1078230D01*
D14*
X721209Y1054100D02*
D03*
X713891D02*
D03*
X774549Y1035050D02*
D03*
X767231D02*
D03*
Y1019810D02*
D03*
X774549D02*
D03*
X730401Y1066070D02*
D03*
X737719D02*
D03*
X726591Y1035050D02*
D03*
X733909D02*
D03*
X688189Y1019810D02*
D03*
X680871D02*
D03*
X658011Y1079500D02*
D03*
X665329D02*
D03*
X616101Y1061720D02*
D03*
X623419D02*
D03*
Y1079500D02*
D03*
X616101D02*
D03*
X596749Y1061720D02*
D03*
X589431D02*
D03*
D15*
X734159Y1019810D02*
D03*
X726341D02*
D03*
X746859Y1054100D02*
D03*
X739041D02*
D03*
X576481Y1078230D02*
D03*
X584299D02*
D03*
D16*
X781050Y1079599D02*
D03*
Y1071781D02*
D03*
X793750Y1079599D02*
D03*
Y1071781D02*
D03*
D17*
X667870Y1033400D02*
D03*
X680870Y1049400D02*
D03*
X667870D02*
D03*
D18*
X679370Y1033400D02*
D03*
D19*
X764540Y1064411D02*
D03*
Y1071729D02*
D03*
X709930Y1027279D02*
D03*
Y1019961D02*
D03*
X713740Y1072031D02*
D03*
Y1079349D02*
D03*
X648970Y1027279D02*
D03*
Y1019961D02*
D03*
X629920Y1027279D02*
D03*
Y1019961D02*
D03*
D20*
X681790Y1064260D02*
D03*
X656790D02*
D03*
X599240Y1022350D02*
D03*
X574240D02*
D03*
Y1040130D02*
D03*
X599240D02*
D03*
D28*
X716066Y1082040D02*
X779194D01*
D29*
X840740Y1074420D02*
D03*
D30*
X815340D02*
D03*
D31*
X825500Y1021080D02*
D03*
Y1051560D02*
D03*
D32*
X556260Y1069340D02*
D03*
Y1029970D02*
D03*
M02*
