G04*
G04 #@! TF.GenerationSoftware,Altium Limited,Altium Designer,19.1.8 (144)*
G04*
G04 Layer_Physical_Order=1*
G04 Layer_Color=255*
%FSLAX44Y44*%
%MOMM*%
G71*
G01*
G75*
%ADD12C,0.2540*%
%ADD15R,1.5000X3.0000*%
%ADD16R,0.5588X0.5080*%
%ADD17R,0.5080X0.5588*%
%ADD18R,1.4620X0.5680*%
%ADD19R,0.5032X0.4302*%
%ADD20R,0.3302X0.5532*%
%ADD21R,0.8000X0.6000*%
%ADD22R,0.8000X0.9000*%
%ADD23R,0.4302X0.5032*%
%ADD24R,0.5532X0.3302*%
%ADD25R,0.6000X0.8000*%
%ADD31C,1.2700*%
G36*
X842010Y1088390D02*
X842033Y1012213D01*
X839459Y1009639D01*
X550807Y1010916D01*
X550645Y1011160D01*
X551325Y1012430D01*
X554990D01*
Y1029970D01*
Y1047510D01*
X547370D01*
Y1051800D01*
X562115D01*
X562490Y1051725D01*
X567111D01*
X569455Y1049381D01*
X568970Y1048210D01*
X568970D01*
Y1037130D01*
X571625D01*
Y1026620D01*
X568970D01*
Y1015540D01*
X582050D01*
Y1026620D01*
X579395D01*
Y1037130D01*
X582050D01*
Y1048210D01*
X579395D01*
Y1048820D01*
X579099Y1050307D01*
X578257Y1051567D01*
X572239Y1057585D01*
X572765Y1058855D01*
X575691D01*
Y1067969D01*
X582636D01*
Y1059355D01*
X592018D01*
Y1060526D01*
X598853D01*
Y1059355D01*
X608235D01*
Y1060526D01*
X615069D01*
Y1059355D01*
X618957D01*
X623149Y1055163D01*
X624409Y1054321D01*
X625896Y1054025D01*
X630309D01*
Y1045385D01*
X639691D01*
X639691Y1045385D01*
Y1045385D01*
X640861Y1045048D01*
X646316Y1039592D01*
X646824Y1038833D01*
X650681Y1034975D01*
X650155Y1033705D01*
X648970D01*
Y1028399D01*
X647700D01*
Y1027129D01*
X643509D01*
Y1024591D01*
X636131D01*
Y1026879D01*
X631440D01*
X626749D01*
Y1024716D01*
X619371D01*
Y1026879D01*
X614680D01*
X609989D01*
Y1023093D01*
Y1015775D01*
X619371D01*
Y1016946D01*
X626749D01*
Y1015775D01*
X636131D01*
Y1016821D01*
X643509D01*
Y1015275D01*
X651891D01*
Y1016696D01*
X654370D01*
Y1012700D01*
X667450D01*
Y1025700D01*
Y1036780D01*
X659864D01*
X652825Y1043819D01*
X652526Y1044266D01*
X652996Y1045536D01*
X656201D01*
Y1046632D01*
X663329D01*
Y1045385D01*
X672711D01*
Y1046556D01*
X686110D01*
X686610Y1046056D01*
Y1038470D01*
X697690D01*
Y1051550D01*
X692104D01*
X690466Y1053188D01*
X689206Y1054030D01*
X687719Y1054326D01*
X672711D01*
Y1056489D01*
X668020D01*
X663329D01*
Y1054401D01*
X656201D01*
Y1056640D01*
X651510D01*
X646819D01*
Y1054401D01*
X639691D01*
Y1057321D01*
X644097Y1061727D01*
X644939Y1062987D01*
X645235Y1064474D01*
Y1068699D01*
X651345Y1074809D01*
X662916D01*
Y1075665D01*
X676529D01*
Y1073051D01*
X680720D01*
X684911D01*
Y1075589D01*
X696349D01*
Y1066975D01*
X697155D01*
Y1062776D01*
X697451Y1061289D01*
X698293Y1060029D01*
X703755Y1054567D01*
Y1050679D01*
X704926D01*
Y1043551D01*
X703755D01*
Y1034169D01*
X704926D01*
Y1027041D01*
X703755D01*
Y1023153D01*
X703027Y1022425D01*
X697690D01*
Y1026550D01*
X686610D01*
Y1022125D01*
X683450D01*
Y1023780D01*
X670370D01*
Y1012700D01*
X683450D01*
Y1014355D01*
X686610D01*
Y1013470D01*
X697690D01*
Y1014655D01*
X704636D01*
X706123Y1014951D01*
X707383Y1015793D01*
X709249Y1017659D01*
X721185D01*
Y1017906D01*
X733179D01*
Y1016175D01*
X742561D01*
Y1017346D01*
X749689D01*
Y1016175D01*
X753942D01*
X754324Y1015793D01*
X755584Y1014951D01*
X757071Y1014655D01*
X764215D01*
Y1014349D01*
X782645D01*
Y1014655D01*
X793869D01*
X795617Y1013315D01*
X797779Y1012419D01*
X800100Y1012113D01*
X802421Y1012419D01*
X804583Y1013315D01*
X806440Y1014740D01*
X807865Y1016597D01*
X808761Y1018759D01*
X809067Y1021080D01*
X808761Y1023401D01*
X807865Y1025563D01*
X806440Y1027420D01*
X804583Y1028845D01*
X802421Y1029741D01*
X800100Y1030047D01*
X797779Y1029741D01*
X795617Y1028845D01*
X793760Y1027420D01*
X792335Y1025563D01*
X791439Y1023401D01*
X791310Y1022425D01*
X782645D01*
Y1022731D01*
X764215D01*
Y1022425D01*
X759071D01*
Y1027279D01*
X754380D01*
X749689D01*
Y1025116D01*
X742561D01*
Y1027279D01*
X737870D01*
X733179D01*
Y1025675D01*
X721185D01*
Y1027041D01*
X712696D01*
Y1034169D01*
X714859D01*
Y1038860D01*
Y1043551D01*
X712696D01*
Y1050679D01*
X714859D01*
Y1055370D01*
Y1060061D01*
X709249D01*
X704925Y1064385D01*
Y1066975D01*
X705731D01*
Y1075714D01*
X717169D01*
Y1073051D01*
X721360D01*
X725551D01*
Y1075827D01*
X729996D01*
Y1071697D01*
X735330D01*
Y1070427D01*
X736600D01*
Y1065347D01*
X740664D01*
Y1067634D01*
X741934Y1068019D01*
X742037Y1067865D01*
X745979Y1063923D01*
Y1057600D01*
X746054Y1057225D01*
Y1050650D01*
X765754D01*
Y1061410D01*
X753749D01*
Y1065532D01*
X753453Y1067018D01*
X752611Y1068279D01*
X752413Y1068477D01*
X752899Y1069650D01*
X765754D01*
Y1080410D01*
X746264D01*
X744427Y1082247D01*
X743167Y1083089D01*
X741680Y1083385D01*
X740664D01*
Y1084905D01*
X729996D01*
Y1083597D01*
X725551D01*
Y1084905D01*
X717169D01*
Y1083484D01*
X705731D01*
Y1084405D01*
X696349D01*
Y1083359D01*
X684911D01*
Y1084905D01*
X676529D01*
Y1083434D01*
X662916D01*
Y1084191D01*
X645486D01*
Y1079938D01*
X638603Y1073055D01*
X637761Y1071795D01*
X637465Y1070308D01*
Y1066083D01*
X634197Y1062815D01*
X630309D01*
Y1061795D01*
X627505D01*
X624451Y1064849D01*
Y1070459D01*
X619760D01*
X615069D01*
Y1068296D01*
X608235D01*
Y1070459D01*
X603544D01*
X598853D01*
Y1068296D01*
X592018D01*
Y1076785D01*
X582636D01*
Y1075739D01*
X575691D01*
Y1077285D01*
X567309D01*
X566300Y1077915D01*
Y1086880D01*
X550191D01*
X549511Y1088150D01*
X549673Y1088394D01*
X813823Y1089548D01*
X813909Y1088278D01*
X813019Y1088161D01*
X810857Y1087265D01*
X809000Y1085840D01*
X807575Y1083983D01*
X806679Y1081821D01*
X806373Y1079500D01*
X806458Y1078860D01*
X805521Y1077924D01*
X804164D01*
Y1079119D01*
X799244D01*
X797386Y1080977D01*
X796126Y1081819D01*
X794639Y1082115D01*
X784860D01*
X783373Y1081819D01*
X782113Y1080977D01*
X781546Y1080410D01*
X768406D01*
Y1069650D01*
Y1066800D01*
X778256D01*
Y1064260D01*
X768406D01*
Y1060150D01*
Y1050650D01*
X773680D01*
Y1037844D01*
X770707D01*
Y1032510D01*
Y1027176D01*
X783915D01*
Y1037844D01*
X781450D01*
Y1050650D01*
X788106D01*
Y1054348D01*
X792546Y1058788D01*
X793496Y1059561D01*
X797560D01*
Y1064641D01*
X798830D01*
Y1065911D01*
X804164D01*
Y1070154D01*
X807130D01*
X808616Y1070450D01*
X809877Y1071292D01*
X810553Y1071968D01*
X810857Y1071735D01*
X813019Y1070839D01*
X815340Y1070533D01*
X817661Y1070839D01*
X819823Y1071735D01*
X821680Y1073160D01*
X823105Y1075017D01*
X824001Y1077179D01*
X824307Y1079500D01*
X824001Y1081821D01*
X823105Y1083983D01*
X821680Y1085840D01*
X819823Y1087265D01*
X817661Y1088161D01*
X816679Y1088290D01*
X816759Y1089561D01*
X840734Y1089666D01*
X842010Y1088390D01*
D02*
G37*
%LPC*%
G36*
X624451Y1076785D02*
X621030D01*
Y1072999D01*
X624451D01*
Y1076785D01*
D02*
G37*
G36*
X618490D02*
X615069D01*
Y1072999D01*
X618490D01*
Y1076785D01*
D02*
G37*
G36*
X608235D02*
X604814D01*
Y1072999D01*
X608235D01*
Y1076785D01*
D02*
G37*
G36*
X602274D02*
X598853D01*
Y1072999D01*
X602274D01*
Y1076785D01*
D02*
G37*
G36*
X725551Y1070511D02*
X722630D01*
Y1066475D01*
X725551D01*
Y1070511D01*
D02*
G37*
G36*
X720090D02*
X717169D01*
Y1066475D01*
X720090D01*
Y1070511D01*
D02*
G37*
G36*
X684911D02*
X681990D01*
Y1066475D01*
X684911D01*
Y1070511D01*
D02*
G37*
G36*
X679450D02*
X676529D01*
Y1066475D01*
X679450D01*
Y1070511D01*
D02*
G37*
G36*
X734060Y1069157D02*
X729996D01*
Y1065347D01*
X734060D01*
Y1069157D01*
D02*
G37*
G36*
X816610Y1067980D02*
Y1060450D01*
X824139D01*
X824001Y1061501D01*
X823105Y1063663D01*
X821680Y1065520D01*
X819823Y1066945D01*
X817661Y1067841D01*
X816610Y1067980D01*
D02*
G37*
G36*
X814070D02*
X813019Y1067841D01*
X810857Y1066945D01*
X809000Y1065520D01*
X807575Y1063663D01*
X806679Y1061501D01*
X806541Y1060450D01*
X814070D01*
Y1067980D01*
D02*
G37*
G36*
X804164Y1063371D02*
X800100D01*
Y1059561D01*
X804164D01*
Y1063371D01*
D02*
G37*
G36*
X656201Y1062966D02*
X652780D01*
Y1059180D01*
X656201D01*
Y1062966D01*
D02*
G37*
G36*
X650240D02*
X646819D01*
Y1059180D01*
X650240D01*
Y1062966D01*
D02*
G37*
G36*
X672711Y1062815D02*
X669290D01*
Y1059029D01*
X672711D01*
Y1062815D01*
D02*
G37*
G36*
X666750D02*
X663329D01*
Y1059029D01*
X666750D01*
Y1062815D01*
D02*
G37*
G36*
X721185Y1060061D02*
X717399D01*
Y1056640D01*
X721185D01*
Y1060061D01*
D02*
G37*
G36*
Y1054100D02*
X717399D01*
Y1050679D01*
X721185D01*
Y1054100D01*
D02*
G37*
G36*
X824139Y1057910D02*
X816610D01*
Y1050380D01*
X817661Y1050519D01*
X819823Y1051415D01*
X821680Y1052840D01*
X823105Y1054697D01*
X824001Y1056859D01*
X824139Y1057910D01*
D02*
G37*
G36*
X814070D02*
X806541D01*
X806679Y1056859D01*
X807575Y1054697D01*
X809000Y1052840D01*
X810857Y1051415D01*
X813019Y1050519D01*
X814070Y1050380D01*
Y1057910D01*
D02*
G37*
G36*
X607050Y1048210D02*
X601780D01*
Y1043940D01*
X607050D01*
Y1048210D01*
D02*
G37*
G36*
X599240D02*
X593970D01*
Y1043940D01*
X599240D01*
Y1048210D01*
D02*
G37*
G36*
X801370Y1050200D02*
Y1042670D01*
X808900D01*
X808761Y1043721D01*
X807865Y1045883D01*
X806440Y1047740D01*
X804583Y1049165D01*
X802421Y1050061D01*
X801370Y1050200D01*
D02*
G37*
G36*
X798830D02*
X797779Y1050061D01*
X795617Y1049165D01*
X793760Y1047740D01*
X792335Y1045883D01*
X791439Y1043721D01*
X791301Y1042670D01*
X798830D01*
Y1050200D01*
D02*
G37*
G36*
X721185Y1043551D02*
X717399D01*
Y1040130D01*
X721185D01*
Y1043551D01*
D02*
G37*
G36*
X607050Y1041400D02*
X601780D01*
Y1037130D01*
X607050D01*
Y1041400D01*
D02*
G37*
G36*
X599240D02*
X593970D01*
Y1037130D01*
X599240D01*
Y1041400D01*
D02*
G37*
G36*
X721185Y1037590D02*
X717399D01*
Y1034169D01*
X721185D01*
Y1037590D01*
D02*
G37*
G36*
X768167Y1037844D02*
X764357D01*
Y1033780D01*
X768167D01*
Y1037844D01*
D02*
G37*
G36*
X808900Y1040130D02*
X801370D01*
Y1032600D01*
X802421Y1032739D01*
X804583Y1033635D01*
X806440Y1035060D01*
X807865Y1036917D01*
X808761Y1039079D01*
X808900Y1040130D01*
D02*
G37*
G36*
X798830D02*
X791301D01*
X791439Y1039079D01*
X792335Y1036917D01*
X793760Y1035060D01*
X795617Y1033635D01*
X797779Y1032739D01*
X798830Y1032600D01*
Y1040130D01*
D02*
G37*
G36*
X566300Y1047510D02*
X557530D01*
Y1031240D01*
X566300D01*
Y1047510D01*
D02*
G37*
G36*
X759071Y1033605D02*
X755650D01*
Y1029819D01*
X759071D01*
Y1033605D01*
D02*
G37*
G36*
X742561D02*
X739140D01*
Y1029819D01*
X742561D01*
Y1033605D01*
D02*
G37*
G36*
X736600D02*
X733179D01*
Y1029819D01*
X736600D01*
Y1033605D01*
D02*
G37*
G36*
X753110D02*
X749689D01*
Y1029819D01*
X753110D01*
Y1033605D01*
D02*
G37*
G36*
X646430Y1033705D02*
X643509D01*
Y1029669D01*
X646430D01*
Y1033705D01*
D02*
G37*
G36*
X636131Y1033205D02*
X632710D01*
Y1029419D01*
X636131D01*
Y1033205D01*
D02*
G37*
G36*
X619371D02*
X615950D01*
Y1029419D01*
X619371D01*
Y1033205D01*
D02*
G37*
G36*
X630170D02*
X626749D01*
Y1029419D01*
X630170D01*
Y1033205D01*
D02*
G37*
G36*
X613410D02*
X609989D01*
Y1029419D01*
X613410D01*
Y1033205D01*
D02*
G37*
G36*
X768167Y1031240D02*
X764357D01*
Y1027176D01*
X768167D01*
Y1031240D01*
D02*
G37*
G36*
X683450Y1036780D02*
X670370D01*
Y1025700D01*
X683450D01*
Y1036780D01*
D02*
G37*
G36*
X607050Y1026620D02*
X601780D01*
Y1022350D01*
X607050D01*
Y1026620D01*
D02*
G37*
G36*
X599240D02*
X593970D01*
Y1022350D01*
X599240D01*
Y1026620D01*
D02*
G37*
G36*
X607050Y1019810D02*
X601780D01*
Y1015540D01*
X607050D01*
Y1019810D01*
D02*
G37*
G36*
X599240D02*
X593970D01*
Y1015540D01*
X599240D01*
Y1019810D01*
D02*
G37*
G36*
X566300Y1028700D02*
X557530D01*
Y1012430D01*
X566300D01*
Y1028700D01*
D02*
G37*
%LPD*%
D12*
X568720Y1055610D02*
X575510Y1048820D01*
Y1042670D02*
Y1048820D01*
Y1021080D02*
Y1042670D01*
X562490Y1055610D02*
X568720D01*
X556260Y1061840D02*
X562490Y1055610D01*
X556260Y1061840D02*
Y1069340D01*
X561439Y1061621D02*
Y1064161D01*
X556260Y1069340D02*
X561439Y1064161D01*
X571500D01*
X812591Y1079500D02*
X815340D01*
X807130Y1074039D02*
X812591Y1079500D01*
X798830Y1074039D02*
X807130D01*
X794639Y1078230D02*
X798830Y1074039D01*
X784860Y1078230D02*
X794639D01*
X781164Y1074535D02*
X784860Y1078230D01*
X778752Y1074535D02*
X781164D01*
X784790D02*
X789940Y1069384D01*
Y1061676D02*
Y1069384D01*
X784294Y1056030D02*
X789940Y1061676D01*
X778256Y1075030D02*
X778752Y1074535D01*
X777565Y1033780D02*
X778835Y1032510D01*
X778256Y1056030D02*
X784294D01*
X777565Y1033780D02*
Y1055339D01*
X778256Y1056030D01*
X640961Y1050441D02*
X649570Y1041832D01*
Y1041580D02*
Y1041832D01*
Y1041580D02*
X659910Y1031240D01*
X660910D01*
X635000Y1050441D02*
X640961D01*
X690720Y1018540D02*
X704636D01*
X701040Y1062776D02*
Y1072031D01*
Y1062776D02*
X708446Y1055370D01*
X708811D01*
Y1038860D02*
Y1055370D01*
Y1022350D02*
Y1038860D01*
X797351Y1021080D02*
X800100D01*
X794811Y1018540D02*
X797351Y1021080D01*
X777339Y1018540D02*
X794811D01*
X755626Y1019985D02*
X757071Y1018540D01*
X755261Y1019985D02*
X755626D01*
X754380Y1020866D02*
X755261Y1019985D01*
X754380Y1020866D02*
Y1021231D01*
X757071Y1018540D02*
X769521D01*
X737870Y1021231D02*
X754380D01*
X737310Y1021790D02*
X737870Y1021231D01*
X716689Y1021790D02*
X737310D01*
X716129Y1022350D02*
X716689Y1021790D01*
X690420Y1018240D02*
X690720Y1018540D01*
X704636D02*
X708446Y1022350D01*
X708811D01*
X676910Y1018240D02*
X690420D01*
X692150Y1045010D02*
Y1046010D01*
X687719Y1050441D02*
X692150Y1046010D01*
X668020Y1050441D02*
X687719D01*
X667944Y1050517D02*
X668020Y1050441D01*
X651585Y1050517D02*
X667944D01*
X651510Y1050592D02*
X651585Y1050517D01*
X651434D02*
X651510Y1050592D01*
X635075Y1050517D02*
X651434D01*
X635000Y1050441D02*
X635075Y1050517D01*
X741680Y1079500D02*
X744784Y1076396D01*
Y1070612D02*
Y1076396D01*
Y1070612D02*
X749864Y1065532D01*
Y1057600D02*
Y1065532D01*
Y1057600D02*
X751434Y1056030D01*
X755904D01*
X735655Y1079500D02*
X741680D01*
X735330Y1079825D02*
X735655Y1079500D01*
X735217Y1079712D02*
X735330Y1079825D01*
X721473Y1079712D02*
X735217D01*
X721360Y1079599D02*
X721473Y1079712D01*
X701040Y1079349D02*
X701290Y1079599D01*
X721360D01*
X700915Y1079474D02*
X701040Y1079349D01*
X680845Y1079474D02*
X700915D01*
X680720Y1079599D02*
X680845Y1079474D01*
X680670Y1079549D02*
X680720Y1079599D01*
X657909Y1079549D02*
X680670D01*
X657860Y1079500D02*
X657909Y1079549D01*
X660069Y1020581D02*
X660910Y1019740D01*
X647700Y1020581D02*
X660069D01*
X647575Y1020706D02*
X647700Y1020581D01*
X631565Y1020706D02*
X647575D01*
X631440Y1020831D02*
X631565Y1020706D01*
X614680Y1020831D02*
X631440D01*
X635000Y1058124D02*
X641350Y1064474D01*
X635000Y1057759D02*
Y1058124D01*
X641350Y1064474D02*
Y1070308D01*
X649296Y1078254D01*
Y1078619D01*
X650177Y1079500D01*
X650542D01*
X625896Y1057910D02*
X634849D01*
X635000Y1057759D01*
X619760Y1064046D02*
X625896Y1057910D01*
X619760Y1064046D02*
Y1064411D01*
X603544D02*
X619760D01*
X587327D02*
X603544D01*
X587202Y1071854D02*
X587327Y1071729D01*
X571625Y1071854D02*
X587202D01*
X571500Y1071979D02*
X571625Y1071854D01*
D15*
X556260Y1029970D02*
D03*
Y1069340D02*
D03*
D16*
X798830Y1064641D02*
D03*
Y1074039D02*
D03*
X735330Y1070427D02*
D03*
Y1079825D02*
D03*
D17*
X769437Y1032510D02*
D03*
X778835D02*
D03*
D18*
X778256Y1056030D02*
D03*
Y1065530D02*
D03*
Y1075030D02*
D03*
X755904D02*
D03*
Y1056030D02*
D03*
D19*
X716129Y1022350D02*
D03*
X708811D02*
D03*
Y1038860D02*
D03*
X716129D02*
D03*
Y1055370D02*
D03*
X708811D02*
D03*
X650542Y1079500D02*
D03*
X657860D02*
D03*
D20*
X647700Y1028399D02*
D03*
Y1020581D02*
D03*
X680720Y1071781D02*
D03*
Y1079599D02*
D03*
X721360Y1071781D02*
D03*
Y1079599D02*
D03*
X571500Y1064161D02*
D03*
Y1071979D02*
D03*
D21*
X660910Y1031240D02*
D03*
X676910Y1018240D02*
D03*
Y1031240D02*
D03*
X600510Y1021080D02*
D03*
X575510D02*
D03*
Y1042670D02*
D03*
X600510D02*
D03*
D22*
X660910Y1019740D02*
D03*
D23*
X737870Y1028549D02*
D03*
Y1021231D02*
D03*
X754380D02*
D03*
Y1028549D02*
D03*
X631440Y1020831D02*
D03*
Y1028149D02*
D03*
X614680Y1020831D02*
D03*
Y1028149D02*
D03*
X701040Y1072031D02*
D03*
Y1079349D02*
D03*
X651510Y1050592D02*
D03*
Y1057910D02*
D03*
X668020Y1057759D02*
D03*
Y1050441D02*
D03*
X619760Y1064411D02*
D03*
Y1071729D02*
D03*
X635000Y1057759D02*
D03*
Y1050441D02*
D03*
X603544Y1064411D02*
D03*
Y1071729D02*
D03*
X587327Y1064411D02*
D03*
Y1071729D02*
D03*
D24*
X777339Y1018540D02*
D03*
X769521D02*
D03*
D25*
X692150Y1020010D02*
D03*
Y1045010D02*
D03*
D31*
X815340Y1079500D02*
D03*
Y1059180D02*
D03*
X800100Y1041400D02*
D03*
Y1021080D02*
D03*
M02*
