G04*
G04 #@! TF.GenerationSoftware,Altium Limited,Altium Designer,19.1.8 (144)*
G04*
G04 Layer_Color=255*
%FSLAX44Y44*%
%MOMM*%
G71*
G01*
G75*
%ADD14R,0.5032X0.4302*%
%ADD15R,0.5532X0.3302*%
%ADD16R,0.3302X0.5532*%
%ADD17R,0.6000X0.8000*%
%ADD18R,0.9000X0.8000*%
%ADD19R,0.4302X0.5032*%
%ADD20R,0.8000X0.6000*%
%ADD29C,1.5000*%
%ADD30R,1.5000X1.5000*%
%ADD31R,3.0000X1.5000*%
%ADD32R,1.5000X3.0000*%
D14*
X721209Y1054100D02*
D03*
X713891D02*
D03*
X774549Y1035050D02*
D03*
X767231D02*
D03*
Y1019810D02*
D03*
X774549D02*
D03*
X730401Y1066070D02*
D03*
X737719D02*
D03*
X726591Y1035050D02*
D03*
X733909D02*
D03*
X688189Y1019810D02*
D03*
X680871D02*
D03*
X658011Y1079500D02*
D03*
X665329D02*
D03*
X616101Y1061720D02*
D03*
X623419D02*
D03*
Y1079500D02*
D03*
X616101D02*
D03*
X596749Y1061720D02*
D03*
X589431D02*
D03*
D15*
X734159Y1019810D02*
D03*
X726341D02*
D03*
X746859Y1054100D02*
D03*
X739041D02*
D03*
X576481Y1078230D02*
D03*
X584299D02*
D03*
D16*
X781050Y1079599D02*
D03*
Y1071781D02*
D03*
X793750Y1079599D02*
D03*
Y1071781D02*
D03*
D17*
X667870Y1033400D02*
D03*
X680870Y1049400D02*
D03*
X667870D02*
D03*
D18*
X679370Y1033400D02*
D03*
D19*
X764540Y1064411D02*
D03*
Y1071729D02*
D03*
X709930Y1027279D02*
D03*
Y1019961D02*
D03*
X713740Y1072031D02*
D03*
Y1079349D02*
D03*
X648970Y1027279D02*
D03*
Y1019961D02*
D03*
X629920Y1027279D02*
D03*
Y1019961D02*
D03*
D20*
X681790Y1064260D02*
D03*
X656790D02*
D03*
X599240Y1022350D02*
D03*
X574240D02*
D03*
Y1040130D02*
D03*
X599240D02*
D03*
D29*
X840740Y1074420D02*
D03*
D30*
X815340D02*
D03*
D31*
X825500Y1021080D02*
D03*
Y1051560D02*
D03*
D32*
X556260Y1069340D02*
D03*
Y1029970D02*
D03*
M02*
