G04*
G04 #@! TF.GenerationSoftware,Altium Limited,Altium Designer,19.1.8 (144)*
G04*
G04 Layer_Color=16711935*
%FSLAX44Y44*%
%MOMM*%
G71*
G01*
G75*
%ADD14C,1.7032*%
%ADD15C,0.2540*%
D14*
X786130Y595630D02*
D03*
X1075690Y544830D02*
D03*
Y595630D02*
D03*
X786130Y544830D02*
D03*
D15*
X1045210Y524510D02*
Y539745D01*
X1040132Y534667D01*
X1035053Y539745D01*
Y524510D01*
X1029975Y539745D02*
X1024897D01*
X1027436D01*
Y524510D01*
X1029975D01*
X1024897D01*
X1007122Y537206D02*
X1009661Y539745D01*
X1014740D01*
X1017279Y537206D01*
Y527049D01*
X1014740Y524510D01*
X1009661D01*
X1007122Y527049D01*
X1002044Y539745D02*
Y524510D01*
Y532127D01*
X991887D01*
Y539745D01*
Y524510D01*
X986809Y539745D02*
Y524510D01*
Y529588D01*
X976652Y539745D01*
X984270Y532127D01*
X976652Y524510D01*
X963956Y539745D02*
X969035D01*
X971574Y537206D01*
Y527049D01*
X969035Y524510D01*
X963956D01*
X961417Y527049D01*
Y537206D01*
X963956Y539745D01*
X956339Y537206D02*
X953800Y539745D01*
X948721D01*
X946182Y537206D01*
Y527049D01*
X948721Y524510D01*
X953800D01*
X956339Y527049D01*
Y537206D01*
X941104Y527049D02*
X938565Y524510D01*
X933486D01*
X930947Y527049D01*
Y537206D01*
X933486Y539745D01*
X938565D01*
X941104Y537206D01*
Y534667D01*
X938565Y532127D01*
X930947D01*
M02*
