G04*
G04 #@! TF.GenerationSoftware,Altium Limited,Altium Designer,19.1.8 (144)*
G04*
G04 Layer_Physical_Order=1*
G04 Layer_Color=255*
%FSLAX44Y44*%
%MOMM*%
G71*
G01*
G75*
%ADD12R,0.5588X0.5080*%
%ADD13R,1.4620X0.5680*%
%ADD15C,0.2540*%
%ADD16C,1.5000*%
G36*
X1120065Y514425D02*
X743025D01*
Y628575D01*
X1120065D01*
Y514425D01*
D02*
G37*
%LPC*%
G36*
X1075690Y605757D02*
X1073069Y605412D01*
X1070627Y604400D01*
X1068529Y602791D01*
X1066920Y600693D01*
X1065908Y598251D01*
X1065563Y595630D01*
X1065908Y593009D01*
X1066397Y591830D01*
X1057190Y582624D01*
X997204D01*
Y583819D01*
X986536D01*
Y582624D01*
X980694D01*
Y583819D01*
X970026D01*
Y582624D01*
X964184D01*
Y583819D01*
X953516D01*
Y582484D01*
X945586D01*
Y583840D01*
X925886D01*
Y581137D01*
X924713Y580651D01*
X924157Y581207D01*
X923234Y581824D01*
Y583840D01*
X903534D01*
Y582484D01*
X894334D01*
Y583819D01*
X883666D01*
Y582624D01*
X876554D01*
Y583819D01*
X865886D01*
Y582624D01*
X804630D01*
X795423Y591830D01*
X795912Y593009D01*
X796257Y595630D01*
X795912Y598251D01*
X794900Y600693D01*
X793291Y602791D01*
X791193Y604400D01*
X788751Y605412D01*
X786130Y605757D01*
X783509Y605412D01*
X781067Y604400D01*
X778969Y602791D01*
X777360Y600693D01*
X776348Y598251D01*
X776003Y595630D01*
X776348Y593009D01*
X777360Y590567D01*
X778969Y588469D01*
X781067Y586860D01*
X783509Y585848D01*
X786130Y585503D01*
X788751Y585848D01*
X789930Y586337D01*
X800274Y575992D01*
X801534Y575150D01*
X803021Y574854D01*
X865886D01*
Y570611D01*
X871220D01*
X876554D01*
Y574854D01*
X883666D01*
Y570611D01*
X889000D01*
X894334D01*
Y574715D01*
X903534D01*
Y570230D01*
X913384D01*
Y567690D01*
X903534D01*
Y563580D01*
Y554080D01*
X923234D01*
Y557946D01*
X923739Y558283D01*
X924713Y559257D01*
X925886Y558771D01*
Y554080D01*
X945586D01*
Y564840D01*
X928389D01*
Y573080D01*
X945586D01*
Y574715D01*
X953516D01*
Y570611D01*
X958850D01*
X964184D01*
Y574854D01*
X970026D01*
Y570611D01*
X975360D01*
X980694D01*
Y574854D01*
X986536D01*
Y570611D01*
X991870D01*
X997204D01*
Y574854D01*
X1058799D01*
X1060286Y575150D01*
X1061546Y575992D01*
X1071890Y586337D01*
X1073069Y585848D01*
X1075690Y585503D01*
X1078311Y585848D01*
X1080753Y586860D01*
X1082851Y588469D01*
X1084460Y590567D01*
X1085472Y593009D01*
X1085817Y595630D01*
X1085472Y598251D01*
X1084460Y600693D01*
X1082851Y602791D01*
X1080753Y604400D01*
X1078311Y605412D01*
X1075690Y605757D01*
D02*
G37*
G36*
X997204Y568071D02*
X993140D01*
Y564261D01*
X997204D01*
Y568071D01*
D02*
G37*
G36*
X990600D02*
X986536D01*
Y564261D01*
X990600D01*
Y568071D01*
D02*
G37*
G36*
X980694D02*
X976630D01*
Y564261D01*
X980694D01*
Y568071D01*
D02*
G37*
G36*
X974090D02*
X970026D01*
Y564261D01*
X974090D01*
Y568071D01*
D02*
G37*
G36*
X964184D02*
X960120D01*
Y564261D01*
X964184D01*
Y568071D01*
D02*
G37*
G36*
X957580D02*
X953516D01*
Y564261D01*
X957580D01*
Y568071D01*
D02*
G37*
G36*
X894334D02*
X890270D01*
Y564261D01*
X894334D01*
Y568071D01*
D02*
G37*
G36*
X887730D02*
X883666D01*
Y564261D01*
X887730D01*
Y568071D01*
D02*
G37*
G36*
X876554D02*
X872490D01*
Y564261D01*
X876554D01*
Y568071D01*
D02*
G37*
G36*
X869950D02*
X865886D01*
Y564261D01*
X869950D01*
Y568071D01*
D02*
G37*
G36*
X1076960Y554789D02*
Y546100D01*
X1085649D01*
X1085472Y547451D01*
X1084460Y549893D01*
X1082851Y551991D01*
X1080753Y553600D01*
X1078311Y554612D01*
X1076960Y554789D01*
D02*
G37*
G36*
X1074420D02*
X1073069Y554612D01*
X1070627Y553600D01*
X1068529Y551991D01*
X1066920Y549893D01*
X1065908Y547451D01*
X1065731Y546100D01*
X1074420D01*
Y554789D01*
D02*
G37*
G36*
X787400D02*
Y546100D01*
X796089D01*
X795912Y547451D01*
X794900Y549893D01*
X793291Y551991D01*
X791193Y553600D01*
X788751Y554612D01*
X787400Y554789D01*
D02*
G37*
G36*
X784860D02*
X783509Y554612D01*
X781067Y553600D01*
X778969Y551991D01*
X777360Y549893D01*
X776348Y547451D01*
X776171Y546100D01*
X784860D01*
Y554789D01*
D02*
G37*
G36*
X1085649Y543560D02*
X1076960D01*
Y534871D01*
X1078311Y535048D01*
X1080753Y536060D01*
X1082851Y537669D01*
X1084460Y539767D01*
X1085472Y542209D01*
X1085649Y543560D01*
D02*
G37*
G36*
X1074420D02*
X1065731D01*
X1065908Y542209D01*
X1066920Y539767D01*
X1068529Y537669D01*
X1070627Y536060D01*
X1073069Y535048D01*
X1074420Y534871D01*
Y543560D01*
D02*
G37*
G36*
X796089D02*
X787400D01*
Y534871D01*
X788751Y535048D01*
X791193Y536060D01*
X793291Y537669D01*
X794900Y539767D01*
X795912Y542209D01*
X796089Y543560D01*
D02*
G37*
G36*
X784860D02*
X776171D01*
X776348Y542209D01*
X777360Y539767D01*
X778969Y537669D01*
X781067Y536060D01*
X783509Y535048D01*
X784860Y534871D01*
Y543560D01*
D02*
G37*
%LPD*%
D12*
X991870Y578739D02*
D03*
Y569341D02*
D03*
X975360Y578739D02*
D03*
Y569341D02*
D03*
X958850Y578739D02*
D03*
Y569341D02*
D03*
X889000Y578739D02*
D03*
Y569341D02*
D03*
X871220Y578739D02*
D03*
Y569341D02*
D03*
D13*
X913384Y578460D02*
D03*
Y568960D02*
D03*
Y559460D02*
D03*
X935736D02*
D03*
Y578460D02*
D03*
D15*
X803021Y578739D02*
X871220D01*
X786130Y595630D02*
X803021Y578739D01*
X1058799D02*
X1075690Y595630D01*
X991870Y578739D02*
X1058799D01*
X975360D02*
X991870D01*
X958850D02*
X975360D01*
X958710Y578600D02*
X958850Y578739D01*
X935875Y578600D02*
X958710D01*
X935736Y578460D02*
X935875Y578600D01*
X924504Y564542D02*
Y575366D01*
X921410Y578460D02*
X924504Y575366D01*
X913384Y578460D02*
X921410D01*
X913384Y559460D02*
X914954Y561030D01*
X920992D01*
X924504Y564542D01*
X913244Y578600D02*
X913384Y578460D01*
X889139Y578600D02*
X913244D01*
X889000Y578739D02*
X889139Y578600D01*
X871220Y578739D02*
X889000D01*
D16*
X786130Y595630D02*
D03*
X1075690Y544830D02*
D03*
Y595630D02*
D03*
X786130Y544830D02*
D03*
M02*
