G04*
G04 #@! TF.GenerationSoftware,Altium Limited,Altium Designer,19.1.8 (144)*
G04*
G04 Layer_Color=16711935*
%FSLAX44Y44*%
%MOMM*%
G71*
G01*
G75*
%ADD14C,1.7032*%
%ADD15C,0.2540*%
D14*
X769620Y595630D02*
D03*
X1094740Y544830D02*
D03*
Y595630D02*
D03*
X769620Y544830D02*
D03*
D15*
X955040Y538480D02*
Y553715D01*
X960118Y548637D01*
X965197Y553715D01*
Y538480D01*
X970275Y553715D02*
X975353D01*
X972814D01*
Y538480D01*
X970275D01*
X975353D01*
X993128Y551176D02*
X990589Y553715D01*
X985510D01*
X982971Y551176D01*
Y541019D01*
X985510Y538480D01*
X990589D01*
X993128Y541019D01*
X998206Y553715D02*
Y538480D01*
Y546097D01*
X1008363D01*
Y553715D01*
Y538480D01*
X1013441Y553715D02*
Y538480D01*
Y543558D01*
X1023598Y553715D01*
X1015980Y546097D01*
X1023598Y538480D01*
X1036294Y553715D02*
X1031215D01*
X1028676Y551176D01*
Y541019D01*
X1031215Y538480D01*
X1036294D01*
X1038833Y541019D01*
Y551176D01*
X1036294Y553715D01*
X1043911Y551176D02*
X1046450Y553715D01*
X1051529D01*
X1054068Y551176D01*
Y541019D01*
X1051529Y538480D01*
X1046450D01*
X1043911Y541019D01*
Y551176D01*
X1059146Y541019D02*
X1061685Y538480D01*
X1066764D01*
X1069303Y541019D01*
Y551176D01*
X1066764Y553715D01*
X1061685D01*
X1059146Y551176D01*
Y548637D01*
X1061685Y546097D01*
X1069303D01*
M02*
