G04*
G04 #@! TF.GenerationSoftware,Altium Limited,Altium Designer,19.1.8 (144)*
G04*
G04 Layer_Color=65535*
%FSLAX44Y44*%
%MOMM*%
G71*
G01*
G75*
%ADD10C,0.1524*%
%ADD11C,0.1000*%
D10*
X914527Y552450D02*
X934593D01*
Y565627D02*
Y572293D01*
X914527Y585470D02*
X934593D01*
D11*
X845820Y543937D02*
Y535940D01*
X851152D01*
X853817Y543937D02*
Y535940D01*
X857816D01*
X859149Y537273D01*
Y542604D01*
X857816Y543937D01*
X853817D01*
X865814D02*
X863148D01*
X861815Y542604D01*
Y537273D01*
X863148Y535940D01*
X865814D01*
X867146Y537273D01*
Y542604D01*
X865814Y543937D01*
X877810D02*
X883141D01*
X880475D01*
Y535940D01*
X889806D02*
X887140D01*
X885807Y537273D01*
Y539939D01*
X887140Y541272D01*
X889806D01*
X891139Y539939D01*
Y538606D01*
X885807D01*
X893804Y535940D02*
X897803D01*
X899136Y537273D01*
X897803Y538606D01*
X895137D01*
X893804Y539939D01*
X895137Y541272D01*
X899136D01*
X903135Y542604D02*
Y541272D01*
X901802D01*
X904468D01*
X903135D01*
Y537273D01*
X904468Y535940D01*
X908466Y543937D02*
Y535940D01*
X912465D01*
X913798Y537273D01*
Y538606D01*
Y539939D01*
X912465Y541272D01*
X908466D01*
X917797Y535940D02*
X920463D01*
X921796Y537273D01*
Y539939D01*
X920463Y541272D01*
X917797D01*
X916464Y539939D01*
Y537273D01*
X917797Y535940D01*
X925794Y541272D02*
X928460D01*
X929793Y539939D01*
Y535940D01*
X925794D01*
X924461Y537273D01*
X925794Y538606D01*
X929793D01*
X932459Y541272D02*
Y535940D01*
Y538606D01*
X933792Y539939D01*
X935125Y541272D01*
X936457D01*
X945788Y543937D02*
Y535940D01*
X941789D01*
X940456Y537273D01*
Y539939D01*
X941789Y541272D01*
X945788D01*
X989519Y591738D02*
X988519Y592738D01*
X986520D01*
X985520Y591738D01*
Y587740D01*
X986520Y586740D01*
X988519D01*
X989519Y587740D01*
X995517Y592738D02*
X991518D01*
Y589739D01*
X993517Y590739D01*
X994517D01*
X995517Y589739D01*
Y587740D01*
X994517Y586740D01*
X992518D01*
X991518Y587740D01*
X973009Y591738D02*
X972009Y592738D01*
X970010D01*
X969010Y591738D01*
Y587740D01*
X970010Y586740D01*
X972009D01*
X973009Y587740D01*
X978007Y586740D02*
Y592738D01*
X975008Y589739D01*
X979007D01*
X956499Y591738D02*
X955499Y592738D01*
X953500D01*
X952500Y591738D01*
Y587740D01*
X953500Y586740D01*
X955499D01*
X956499Y587740D01*
X958498Y591738D02*
X959498Y592738D01*
X961497D01*
X962497Y591738D01*
Y590739D01*
X961497Y589739D01*
X960497D01*
X961497D01*
X962497Y588739D01*
Y587740D01*
X961497Y586740D01*
X959498D01*
X958498Y587740D01*
X886649Y591738D02*
X885649Y592738D01*
X883650D01*
X882650Y591738D01*
Y587740D01*
X883650Y586740D01*
X885649D01*
X886649Y587740D01*
X892647Y586740D02*
X888648D01*
X892647Y590739D01*
Y591738D01*
X891647Y592738D01*
X889648D01*
X888648Y591738D01*
X868869D02*
X867869Y592738D01*
X865870D01*
X864870Y591738D01*
Y587740D01*
X865870Y586740D01*
X867869D01*
X868869Y587740D01*
X870868Y586740D02*
X872867D01*
X871868D01*
Y592738D01*
X870868Y591738D01*
X900430Y597818D02*
Y592820D01*
X901430Y591820D01*
X903429D01*
X904429Y592820D01*
Y597818D01*
X906428Y591820D02*
X908427D01*
X907428D01*
Y597818D01*
X906428Y596818D01*
X907669Y587868D02*
X911668Y583870D01*
X907669D02*
X911668Y587868D01*
X907669Y585869D02*
X911668D01*
X909668Y583870D02*
Y587868D01*
M02*
